Blinker-Thin_15.ufo
<glyph name="exclam" format="1">
  <advance width="200.0"/>
  <unicode hex="0021"/>
  <outline>
    <contour>
      <point x="88" y="627" type="line"/>
      <point x="112" y="627" type="line"/>
      <point x="108" y="145" type="line"/>
      <point x="92" y="145" type="line"/>
    </contour>
    <contour>
      <point x="112" y="33" type="line"/>
      <point x="112" y="0" type="line"/>
      <point x="88" y="0" type="line"/>
      <point x="88" y="33" type="line"/>
    </contour>
  </outline>
</glyph>
<glyph name="numbersign" format="1">
  <advance width="600.0"/>
  <unicode hex="0023"/>
  <outline>
    <contour>
      <point x="560" y="493" type="line"/>
      <point x="560" y="473" type="line"/>
      <point x="468" y="473" type="line"/>
      <point x="418" y="164" type="line"/>
      <point x="525" y="164" type="line"/>
      <point x="525" y="144" type="line"/>
      <point x="414" y="144" type="line"/>
      <point x="390" y="0" type="line"/>
      <point x="369" y="0" type="line"/>
      <point x="392" y="144" type="line"/>
      <point x="155" y="144" type="line"/>
      <point x="132" y="0" type="line"/>
      <point x="110" y="0" type="line"/>
      <point x="134" y="144" type="line"/>
      <point x="41" y="144" type="line"/>
      <point x="41" y="164" type="line"/>
      <point x="138" y="164" type="line"/>
      <point x="189" y="473" type="line"/>
      <point x="76" y="473" type="line"/>
      <point x="76" y="493" type="line"/>
      <point x="193" y="493" type="line"/>
      <point x="214" y="627" type="line"/>
      <point x="235" y="627" type="line"/>
      <point x="214" y="493" type="line"/>
      <point x="450" y="493" type="line"/>
      <point x="472" y="627" type="line"/>
      <point x="493" y="627" type="line"/>
      <point x="472" y="493" type="line"/>
    </contour>
    <contour>
      <point x="396" y="164" type="line"/>
      <point x="447" y="473" type="line"/>
      <point x="211" y="473" type="line"/>
      <point x="159" y="164" type="line"/>
    </contour>
  </outline>
</glyph>
<glyph name="dollar" format="1">
  <advance width="493.0"/>
  <unicode hex="0024"/>
  <outline>
    <contour>
      <point x="254" y="-6" type="qcurve"/>
      <point x="254" y="-100" type="line"/>
      <point x="234" y="-100" type="line"/>
      <point x="234" y="-6" type="line"/>
      <point x="184" y="-5"/>
      <point x="89" y="12"/>
      <point x="53" y="25" type="qcurve"/>
      <point x="53" y="45" type="line"/>
      <point x="109" y="28"/>
      <point x="202" y="14"/>
      <point x="250" y="14" type="qcurve"/>
      <point x="343" y="14"/>
      <point x="424" y="83"/>
      <point x="424" y="169" type="qcurve"/>
      <point x="424" y="224"/>
      <point x="380" y="273"/>
      <point x="313" y="292" type="qcurve"/>
      <point x="164" y="334" type="line" smooth="yes"/>
      <point x="105" y="350"/>
      <point x="55" y="411"/>
      <point x="55" y="465" type="qcurve"/>
      <point x="55" y="548"/>
      <point x="142" y="632"/>
      <point x="234" y="637" type="qcurve"/>
      <point x="234" y="727" type="line"/>
      <point x="254" y="727" type="line"/>
      <point x="254" y="637" type="line"/>
      <point x="256" y="637" type="line" smooth="yes"/>
      <point x="297" y="637"/>
      <point x="369" y="628"/>
      <point x="401" y="619" type="qcurve"/>
      <point x="401" y="599" type="line"/>
      <point x="365" y="608"/>
      <point x="292" y="617"/>
      <point x="256" y="617" type="qcurve" smooth="yes"/>
      <point x="161" y="617"/>
      <point x="76" y="545"/>
      <point x="76" y="466" type="qcurve"/>
      <point x="76" y="419"/>
      <point x="119" y="370"/>
      <point x="173" y="354" type="qcurve"/>
      <point x="322" y="311" type="line" smooth="yes"/>
      <point x="395" y="290"/>
      <point x="445" y="230"/>
      <point x="445" y="168" type="qcurve"/>
      <point x="445" y="76"/>
      <point x="353" y="-6"/>
    </contour>
  </outline>
</glyph>
<glyph name="percent" format="1">
  <advance width="634.0"/>
  <unicode hex="0025"/>
  <outline>
    <contour>
      <point x="276" y="475" type="qcurve"/>
      <point x="276" y="390"/>
      <point x="224" y="320"/>
      <point x="161" y="320" type="qcurve"/>
      <point x="98" y="320"/>
      <point x="46" y="390"/>
      <point x="46" y="475" type="qcurve"/>
      <point x="46" y="561"/>
      <point x="98" y="631"/>
      <point x="161" y="631" type="qcurve"/>
      <point x="224" y="631"/>
      <point x="276" y="561"/>
    </contour>
    <contour>
      <point x="475" y="627" type="line"/>
      <point x="175" y="0" type="line"/>
      <point x="152" y="0" type="line"/>
      <point x="452" y="627" type="line"/>
    </contour>
    <contour>
      <point x="255" y="475" type="qcurve"/>
      <point x="255" y="551"/>
      <point x="213" y="612"/>
      <point x="161" y="612" type="qcurve"/>
      <point x="109" y="612"/>
      <point x="67" y="551"/>
      <point x="67" y="475" type="qcurve"/>
      <point x="67" y="400"/>
      <point x="109" y="339"/>
      <point x="161" y="339" type="qcurve"/>
      <point x="213" y="339"/>
      <point x="255" y="400"/>
    </contour>
    <contour>
      <point x="588" y="152" type="qcurve"/>
      <point x="588" y="67"/>
      <point x="536" y="-3"/>
      <point x="473" y="-3" type="qcurve"/>
      <point x="410" y="-3"/>
      <point x="358" y="67"/>
      <point x="358" y="152" type="qcurve"/>
      <point x="358" y="238"/>
      <point x="410" y="308"/>
      <point x="473" y="308" type="qcurve"/>
      <point x="536" y="308"/>
      <point x="588" y="238"/>
    </contour>
    <contour>
      <point x="567" y="152" type="qcurve"/>
      <point x="567" y="228"/>
      <point x="525" y="289"/>
      <point x="473" y="289" type="qcurve"/>
      <point x="421" y="289"/>
      <point x="379" y="228"/>
      <point x="379" y="152" type="qcurve"/>
      <point x="379" y="77"/>
      <point x="421" y="16"/>
      <point x="473" y="16" type="qcurve"/>
      <point x="525" y="16"/>
      <point x="567" y="77"/>
    </contour>
  </outline>
</glyph>
<glyph name="ampersand" format="1">
  <advance width="751.0"/>
  <unicode hex="0026"/>
  <outline>
    <contour>
      <point x="331" y="14" type="qcurve" smooth="yes"/>
      <point x="396" y="14"/>
      <point x="491" y="33"/>
      <point x="523" y="52" type="qcurve"/>
      <point x="523" y="327" type="line"/>
      <point x="725" y="327" type="line"/>
      <point x="725" y="307" type="line"/>
      <point x="544" y="307" type="line"/>
      <point x="544" y="40" type="line"/>
      <point x="503" y="15"/>
      <point x="403" y="-6"/>
      <point x="331" y="-6" type="qcurve"/>
      <point x="193" y="-6"/>
      <point x="64" y="154"/>
      <point x="64" y="329" type="qcurve"/>
      <point x="64" y="488"/>
      <point x="190" y="637"/>
      <point x="326" y="637" type="qcurve"/>
      <point x="414" y="637"/>
      <point x="514" y="554"/>
      <point x="514" y="483" type="qcurve" smooth="yes"/>
      <point x="514" y="378"/>
      <point x="312" y="284"/>
      <point x="86" y="281" type="qcurve"/>
      <point x="94" y="141"/>
      <point x="212" y="14"/>
    </contour>
    <contour>
      <point x="326" y="617" type="qcurve"/>
      <point x="199" y="617"/>
      <point x="85" y="480"/>
      <point x="85" y="329" type="qcurve"/>
      <point x="85" y="322"/>
      <point x="85" y="308"/>
      <point x="85" y="301" type="qcurve"/>
      <point x="300" y="304"/>
      <point x="493" y="389"/>
      <point x="493" y="482" type="qcurve" smooth="yes"/>
      <point x="493" y="545"/>
      <point x="404" y="617"/>
    </contour>
  </outline>
</glyph>
<glyph name="parenleft" format="1">
  <advance width="211.0"/>
  <unicode hex="0028"/>
  <outline>
    <contour>
      <point x="84" y="313" type="qcurve"/>
      <point x="84" y="200"/>
      <point x="126" y="2"/>
      <point x="167" y="-75" type="qcurve"/>
      <point x="151" y="-80" type="line"/>
      <point x="108" y="-2"/>
      <point x="63" y="200"/>
      <point x="63" y="313" type="qcurve"/>
      <point x="63" y="430"/>
      <point x="108" y="630"/>
      <point x="151" y="707" type="qcurve"/>
      <point x="167" y="702" type="line"/>
      <point x="126" y="625"/>
      <point x="84" y="426"/>
    </contour>
  </outline>
</glyph>
<glyph name="parenright" format="1">
  <advance width="211.0"/>
  <unicode hex="0029"/>
  <outline>
    <contour>
      <point x="127" y="313" type="qcurve"/>
      <point x="127" y="426"/>
      <point x="85" y="625"/>
      <point x="44" y="702" type="qcurve"/>
      <point x="60" y="707" type="line"/>
      <point x="103" y="630"/>
      <point x="148" y="430"/>
      <point x="148" y="313" type="qcurve"/>
      <point x="148" y="200"/>
      <point x="103" y="-2"/>
      <point x="60" y="-80" type="qcurve"/>
      <point x="44" y="-75" type="line"/>
      <point x="85" y="2"/>
      <point x="127" y="200"/>
    </contour>
  </outline>
</glyph>
<glyph name="asterisk" format="1">
  <advance width="412.0"/>
  <unicode hex="002A"/>
  <outline>
    <contour>
      <point x="219" y="460" type="line"/>
      <point x="310" y="337" type="line"/>
      <point x="290" y="323" type="line"/>
      <point x="205" y="450" type="line"/>
      <point x="117" y="326" type="line"/>
      <point x="98" y="340" type="line"/>
      <point x="192" y="460" type="line"/>
      <point x="47" y="506" type="line"/>
      <point x="55" y="529" type="line"/>
      <point x="197" y="477" type="line"/>
      <point x="194" y="627" type="line"/>
      <point x="218" y="627" type="line"/>
      <point x="215" y="476" type="line"/>
      <point x="358" y="525" type="line"/>
      <point x="365" y="502" type="line"/>
    </contour>
  </outline>
</glyph>
<glyph name="comma" format="1">
  <advance width="149.0"/>
  <unicode hex="002C"/>
  <outline>
    <contour>
      <point x="91" y="38" type="line"/>
      <point x="71" y="-95" type="line" smooth="yes"/>
      <point x="69" y="-104"/>
      <point x="64" y="-110"/>
      <point x="57" y="-110" type="qcurve"/>
      <point x="55" y="-110" type="line"/>
      <point x="65" y="38" type="line"/>
    </contour>
  </outline>
</glyph>
<glyph name="hyphen" format="1">
  <advance width="445.0"/>
  <unicode hex="002D"/>
  <outline>
    <contour>
      <point x="382" y="328" type="line"/>
      <point x="382" y="308" type="line"/>
      <point x="63" y="308" type="line"/>
      <point x="63" y="328" type="line"/>
    </contour>
  </outline>
</glyph>
<glyph name="period" format="1">
  <advance width="130.0"/>
  <unicode hex="002E"/>
  <outline>
    <contour>
      <point x="77" y="0" type="line"/>
      <point x="53" y="0" type="line"/>
      <point x="53" y="33" type="line"/>
      <point x="77" y="33" type="line"/>
    </contour>
  </outline>
</glyph>
<glyph name="slash" format="1">
  <advance width="291.0"/>
  <unicode hex="002F"/>
  <outline>
    <contour>
      <point x="257" y="707" type="line"/>
      <point x="57" y="-80" type="line"/>
      <point x="35" y="-80" type="line"/>
      <point x="235" y="707" type="line"/>
    </contour>
  </outline>
</glyph>
<glyph name="zero" format="1">
  <advance width="581.0"/>
  <unicode hex="0030"/>
  <outline>
    <contour>
      <point x="512" y="316" type="qcurve"/>
      <point x="512" y="137"/>
      <point x="414" y="-6"/>
      <point x="291" y="-6" type="qcurve"/>
      <point x="210" y="-6"/>
      <point x="122" y="38"/>
      <point x="99" y="89" type="qcurve" smooth="yes"/>
      <point x="84" y="125"/>
      <point x="69" y="234"/>
      <point x="69" y="316" type="qcurve"/>
      <point x="69" y="495"/>
      <point x="167" y="637"/>
      <point x="291" y="637" type="qcurve"/>
      <point x="372" y="637"/>
      <point x="460" y="593"/>
      <point x="482" y="542" type="qcurve" smooth="yes"/>
      <point x="498" y="507"/>
      <point x="512" y="398"/>
    </contour>
    <contour>
      <point x="466" y="527" type="qcurve" smooth="yes"/>
      <point x="446" y="575"/>
      <point x="366" y="617"/>
      <point x="291" y="617" type="qcurve"/>
      <point x="177" y="617"/>
      <point x="90" y="487"/>
      <point x="90" y="316" type="qcurve"/>
      <point x="90" y="238"/>
      <point x="102" y="137"/>
      <point x="115" y="104" type="qcurve" smooth="yes"/>
      <point x="135" y="56"/>
      <point x="215" y="14"/>
      <point x="291" y="14" type="qcurve"/>
      <point x="404" y="14"/>
      <point x="491" y="145"/>
      <point x="491" y="316" type="qcurve"/>
      <point x="491" y="393"/>
      <point x="479" y="494"/>
    </contour>
  </outline>
</glyph>
<glyph name="two" format="1">
  <advance width="448.0"/>
  <unicode hex="0032"/>
  <outline>
    <contour>
      <point x="399" y="20" type="line"/>
      <point x="399" y="0" type="line"/>
      <point x="33" y="0" type="line"/>
      <point x="33" y="20" type="line"/>
      <point x="273" y="299" type="line" smooth="yes"/>
      <point x="321" y="354"/>
      <point x="361" y="443"/>
      <point x="361" y="488" type="qcurve"/>
      <point x="361" y="551"/>
      <point x="291" y="617"/>
      <point x="225" y="617" type="qcurve"/>
      <point x="182" y="617"/>
      <point x="97" y="605"/>
      <point x="65" y="594" type="qcurve"/>
      <point x="65" y="615" type="line"/>
      <point x="104" y="626"/>
      <point x="181" y="637"/>
      <point x="223" y="637" type="qcurve"/>
      <point x="301" y="637"/>
      <point x="382" y="561"/>
      <point x="382" y="488" type="qcurve"/>
      <point x="382" y="440"/>
      <point x="341" y="349"/>
      <point x="290" y="289" type="qcurve"/>
      <point x="59" y="20" type="line"/>
    </contour>
  </outline>
</glyph>
<glyph name="three" format="1">
  <advance width="470.0"/>
  <unicode hex="0033"/>
  <outline>
    <contour>
      <point x="377" y="484" type="qcurve"/>
      <point x="377" y="424"/>
      <point x="318" y="343"/>
      <point x="266" y="329" type="qcurve"/>
      <point x="266" y="327" type="line"/>
      <point x="335" y="323"/>
      <point x="408" y="242"/>
      <point x="408" y="170" type="qcurve"/>
      <point x="408" y="84"/>
      <point x="304" y="-6"/>
      <point x="205" y="-6" type="qcurve"/>
      <point x="151" y="-6"/>
      <point x="77" y="2"/>
      <point x="42" y="12" type="qcurve"/>
      <point x="42" y="33" type="line"/>
      <point x="74" y="22"/>
      <point x="149" y="14"/>
      <point x="205" y="14" type="qcurve"/>
      <point x="294" y="14"/>
      <point x="387" y="94"/>
      <point x="387" y="169" type="qcurve"/>
      <point x="387" y="244"/>
      <point x="304" y="314"/>
      <point x="216" y="314" type="qcurve"/>
      <point x="125" y="314" type="line"/>
      <point x="125" y="333" type="line"/>
      <point x="199" y="333" type="line"/>
      <point x="270" y="333"/>
      <point x="357" y="413"/>
      <point x="357" y="483" type="qcurve"/>
      <point x="357" y="551"/>
      <point x="288" y="617"/>
      <point x="218" y="617" type="qcurve"/>
      <point x="177" y="617"/>
      <point x="102" y="607"/>
      <point x="66" y="596" type="qcurve"/>
      <point x="66" y="616" type="line"/>
      <point x="103" y="627"/>
      <point x="175" y="637"/>
      <point x="218" y="637" type="qcurve"/>
      <point x="297" y="637"/>
      <point x="377" y="560"/>
    </contour>
  </outline>
</glyph>
<glyph name="four" format="1">
  <advance width="520.0"/>
  <unicode hex="0034"/>
  <outline>
    <contour>
      <point x="485" y="207" type="line"/>
      <point x="485" y="187" type="line"/>
      <point x="382" y="187" type="line"/>
      <point x="382" y="0" type="line"/>
      <point x="361" y="0" type="line"/>
      <point x="361" y="187" type="line"/>
      <point x="48" y="187" type="line"/>
      <point x="48" y="206" type="line"/>
      <point x="129" y="627" type="line"/>
      <point x="150" y="627" type="line"/>
      <point x="69" y="207" type="line"/>
      <point x="361" y="207" type="line"/>
      <point x="361" y="517" type="line"/>
      <point x="382" y="517" type="line"/>
      <point x="382" y="207" type="line"/>
    </contour>
  </outline>
</glyph>
<glyph name="five" format="1">
  <advance width="468.0"/>
  <unicode hex="0035"/>
  <outline>
    <contour>
      <point x="415" y="182" type="qcurve" smooth="yes"/>
      <point x="415" y="82"/>
      <point x="320" y="-6"/>
      <point x="211" y="-6" type="qcurve"/>
      <point x="161" y="-6"/>
      <point x="81" y="4"/>
      <point x="53" y="13" type="qcurve"/>
      <point x="53" y="34" type="line"/>
      <point x="84" y="24"/>
      <point x="164" y="14"/>
      <point x="211" y="14" type="qcurve"/>
      <point x="310" y="14"/>
      <point x="394" y="91"/>
      <point x="394" y="182" type="qcurve" smooth="yes"/>
      <point x="394" y="258"/>
      <point x="311" y="326"/>
      <point x="207" y="326" type="qcurve" smooth="yes"/>
      <point x="172" y="326"/>
      <point x="113" y="320"/>
      <point x="84" y="313" type="qcurve"/>
      <point x="84" y="627" type="line"/>
      <point x="375" y="627" type="line"/>
      <point x="375" y="607" type="line"/>
      <point x="105" y="607" type="line"/>
      <point x="105" y="336" type="line"/>
      <point x="131" y="341"/>
      <point x="181" y="346"/>
      <point x="207" y="346" type="qcurve" smooth="yes"/>
      <point x="320" y="346"/>
      <point x="415" y="268"/>
    </contour>
  </outline>
</glyph>
<glyph name="six" format="1">
  <advance width="531.0"/>
  <unicode hex="0036"/>
  <outline>
    <contour>
      <point x="272" y="-6" type="qcurve"/>
      <point x="163" y="-6"/>
      <point x="68" y="137"/>
      <point x="68" y="297" type="qcurve"/>
      <point x="68" y="485"/>
      <point x="185" y="637"/>
      <point x="324" y="637" type="qcurve"/>
      <point x="344" y="637"/>
      <point x="389" y="633"/>
      <point x="400" y="631" type="qcurve"/>
      <point x="400" y="611" type="line"/>
      <point x="383" y="614"/>
      <point x="345" y="617"/>
      <point x="324" y="617" type="qcurve"/>
      <point x="199" y="617"/>
      <point x="92" y="486"/>
      <point x="89" y="323" type="qcurve"/>
      <point x="146" y="358"/>
      <point x="249" y="389"/>
      <point x="305" y="389" type="qcurve"/>
      <point x="397" y="389"/>
      <point x="481" y="302"/>
      <point x="481" y="207" type="qcurve"/>
      <point x="481" y="106"/>
      <point x="371" y="-6"/>
    </contour>
    <contour>
      <point x="89" y="303" type="qcurve"/>
      <point x="89" y="297" type="line"/>
      <point x="89" y="146"/>
      <point x="174" y="14"/>
      <point x="272" y="14" type="qcurve"/>
      <point x="363" y="14"/>
      <point x="460" y="114"/>
      <point x="460" y="207" type="qcurve"/>
      <point x="460" y="293"/>
      <point x="384" y="369"/>
      <point x="296" y="369" type="qcurve"/>
      <point x="246" y="369"/>
      <point x="144" y="336"/>
    </contour>
  </outline>
</glyph>
<glyph name="seven" format="1">
  <advance width="442.0"/>
  <unicode hex="0037"/>
  <outline>
    <contour>
      <point x="413" y="627" type="line"/>
      <point x="413" y="608" type="line"/>
      <point x="78" y="0" type="line"/>
      <point x="56" y="0" type="line"/>
      <point x="390" y="607" type="line"/>
      <point x="36" y="607" type="line"/>
      <point x="36" y="627" type="line"/>
    </contour>
  </outline>
</glyph>
<glyph name="eight" format="1">
  <advance width="540.0"/>
  <unicode hex="0038"/>
  <outline>
    <contour>
      <point x="474" y="165" type="qcurve"/>
      <point x="474" y="77"/>
      <point x="374" y="-6"/>
      <point x="268" y="-6" type="qcurve"/>
      <point x="165" y="-6"/>
      <point x="66" y="73"/>
      <point x="66" y="155" type="qcurve"/>
      <point x="66" y="228"/>
      <point x="140" y="315"/>
      <point x="209" y="321" type="qcurve"/>
      <point x="145" y="326"/>
      <point x="78" y="406"/>
      <point x="78" y="476" type="qcurve"/>
      <point x="78" y="557"/>
      <point x="172" y="637"/>
      <point x="268" y="637" type="qcurve"/>
      <point x="366" y="637"/>
      <point x="462" y="560"/>
      <point x="462" y="481" type="qcurve"/>
      <point x="462" y="409"/>
      <point x="394" y="327"/>
      <point x="328" y="321" type="qcurve"/>
      <point x="398" y="316"/>
      <point x="474" y="235"/>
    </contour>
    <contour>
      <point x="442" y="480" type="qcurve"/>
      <point x="442" y="552"/>
      <point x="359" y="617"/>
      <point x="268" y="617" type="qcurve"/>
      <point x="179" y="617"/>
      <point x="98" y="550"/>
      <point x="98" y="477" type="qcurve"/>
      <point x="98" y="401"/>
      <point x="181" y="330"/>
      <point x="267" y="330" type="qcurve"/>
      <point x="356" y="330"/>
      <point x="442" y="403"/>
    </contour>
    <contour>
      <point x="454" y="164" type="qcurve"/>
      <point x="454" y="239"/>
      <point x="363" y="310"/>
      <point x="267" y="310" type="qcurve"/>
      <point x="175" y="310"/>
      <point x="87" y="234"/>
      <point x="87" y="155" type="qcurve"/>
      <point x="87" y="82"/>
      <point x="175" y="14"/>
      <point x="268" y="14" type="qcurve"/>
      <point x="364" y="14"/>
      <point x="454" y="87"/>
    </contour>
  </outline>
</glyph>
<glyph name="nine" format="1">
  <advance width="523.0"/>
  <unicode hex="0039"/>
  <outline>
    <contour>
      <point x="256" y="637" type="qcurve"/>
      <point x="365" y="637"/>
      <point x="455" y="499"/>
      <point x="455" y="334" type="qcurve"/>
      <point x="455" y="146"/>
      <point x="338" y="-6"/>
      <point x="199" y="-6" type="qcurve"/>
      <point x="179" y="-6"/>
      <point x="134" y="-2"/>
      <point x="123" y="0" type="qcurve"/>
      <point x="123" y="20" type="line"/>
      <point x="140" y="17"/>
      <point x="178" y="14"/>
      <point x="199" y="14" type="qcurve"/>
      <point x="324" y="14"/>
      <point x="431" y="146"/>
      <point x="434" y="312" type="qcurve"/>
      <point x="386" y="279"/>
      <point x="288" y="247"/>
      <point x="234" y="247" type="qcurve"/>
      <point x="139" y="247"/>
      <point x="51" y="338"/>
      <point x="51" y="434" type="qcurve"/>
      <point x="51" y="530"/>
      <point x="159" y="637"/>
    </contour>
    <contour>
      <point x="256" y="617" type="qcurve"/>
      <point x="167" y="617"/>
      <point x="72" y="523"/>
      <point x="72" y="434" type="qcurve"/>
      <point x="72" y="345"/>
      <point x="151" y="267"/>
      <point x="243" y="267" type="qcurve"/>
      <point x="290" y="267"/>
      <point x="387" y="300"/>
      <point x="434" y="332" type="qcurve"/>
      <point x="434" y="334" type="line"/>
      <point x="434" y="491"/>
      <point x="355" y="617"/>
    </contour>
  </outline>
</glyph>
<glyph name="less" format="1">
  <advance width="500.0"/>
  <unicode hex="003C"/>
  <outline>
    <contour>
      <point x="463" y="108" type="line"/>
      <point x="463" y="87" type="line"/>
      <point x="37" y="302" type="line"/>
      <point x="37" y="323" type="line"/>
      <point x="463" y="537" type="line"/>
      <point x="463" y="516" type="line"/>
      <point x="58" y="312" type="line"/>
    </contour>
  </outline>
</glyph>
<glyph name="question" format="1">
  <advance width="401.0"/>
  <unicode hex="003F"/>
  <outline>
    <contour>
      <point x="187" y="637" type="qcurve"/>
      <point x="269" y="637"/>
      <point x="359" y="568"/>
      <point x="359" y="504" type="qcurve" smooth="yes"/>
      <point x="359" y="444"/>
      <point x="269" y="343"/>
      <point x="172" y="297" type="qcurve"/>
      <point x="172" y="145" type="line"/>
      <point x="152" y="145" type="line"/>
      <point x="152" y="308" type="line"/>
      <point x="251" y="353"/>
      <point x="339" y="448"/>
      <point x="339" y="504" type="qcurve" smooth="yes"/>
      <point x="339" y="559"/>
      <point x="259" y="618"/>
      <point x="187" y="618" type="qcurve"/>
      <point x="144" y="618"/>
      <point x="63" y="603"/>
      <point x="27" y="588" type="qcurve"/>
      <point x="27" y="608" type="line"/>
      <point x="63" y="622"/>
      <point x="145" y="637"/>
    </contour>
    <contour>
      <point x="173" y="33" type="line"/>
      <point x="173" y="0" type="line"/>
      <point x="149" y="0" type="line"/>
      <point x="149" y="33" type="line"/>
    </contour>
  </outline>
</glyph>
<glyph name="at" format="1">
  <advance width="692.0"/>
  <unicode hex="0040"/>
  <outline>
    <contour>
      <point x="318" y="67" type="qcurve"/>
      <point x="268" y="67"/>
      <point x="220" y="118"/>
      <point x="220" y="171" type="qcurve"/>
      <point x="220" y="223"/>
      <point x="278" y="268"/>
      <point x="347" y="268" type="qcurve"/>
      <point x="370" y="268"/>
      <point x="414" y="264"/>
      <point x="454" y="258" type="qcurve"/>
      <point x="454" y="294" type="line" smooth="yes"/>
      <point x="454" y="354"/>
      <point x="407" y="400"/>
      <point x="357" y="400" type="qcurve" smooth="yes"/>
      <point x="331" y="400"/>
      <point x="284" y="394"/>
      <point x="257" y="387" type="qcurve"/>
      <point x="257" y="406" type="line"/>
      <point x="285" y="414"/>
      <point x="328" y="419"/>
      <point x="357" y="419" type="qcurve"/>
      <point x="419" y="419"/>
      <point x="474" y="364"/>
      <point x="474" y="294" type="qcurve"/>
      <point x="474" y="137" type="line" smooth="yes"/>
      <point x="474" y="110"/>
      <point x="491" y="86"/>
      <point x="509" y="86" type="qcurve"/>
      <point x="554" y="86"/>
      <point x="607" y="192"/>
      <point x="607" y="283" type="qcurve"/>
      <point x="607" y="412"/>
      <point x="485" y="538"/>
      <point x="363" y="538" type="qcurve"/>
      <point x="216" y="538"/>
      <point x="81" y="393"/>
      <point x="82" y="236" type="qcurve" smooth="yes"/>
      <point x="82" y="84"/>
      <point x="219" y="-57"/>
      <point x="368" y="-57" type="qcurve"/>
      <point x="423" y="-57"/>
      <point x="512" y="-37"/>
      <point x="551" y="-16" type="qcurve"/>
      <point x="551" y="-36" type="line"/>
      <point x="518" y="-55"/>
      <point x="421" y="-76"/>
      <point x="368" y="-76" type="qcurve"/>
      <point x="208" y="-76"/>
      <point x="62" y="74"/>
      <point x="62" y="236" type="qcurve" smooth="yes"/>
      <point x="62" y="402"/>
      <point x="207" y="557"/>
      <point x="363" y="557" type="qcurve"/>
      <point x="494" y="557"/>
      <point x="628" y="418"/>
      <point x="628" y="284" type="qcurve"/>
      <point x="628" y="182"/>
      <point x="565" y="67"/>
      <point x="508" y="67" type="qcurve"/>
      <point x="486" y="67"/>
      <point x="460" y="91"/>
      <point x="457" y="113" type="qcurve"/>
      <point x="430" y="90"/>
      <point x="360" y="67"/>
    </contour>
    <contour>
      <point x="348" y="249" type="qcurve"/>
      <point x="288" y="249"/>
      <point x="240" y="214"/>
      <point x="240" y="172" type="qcurve"/>
      <point x="240" y="127"/>
      <point x="280" y="86"/>
      <point x="323" y="86" type="qcurve"/>
      <point x="364" y="86"/>
      <point x="432" y="109"/>
      <point x="454" y="130" type="qcurve"/>
      <point x="454" y="239" type="line"/>
      <point x="419" y="245"/>
      <point x="372" y="249"/>
    </contour>
  </outline>
</glyph>
<glyph name="A" format="1">
  <advance width="592.0"/>
  <unicode hex="0041"/>
  <outline>
    <contour>
      <point x="46" y="0" type="line"/>
      <point x="23" y="0" type="line"/>
      <point x="285" y="627" type="line"/>
      <point x="307" y="627" type="line"/>
      <point x="569" y="0" type="line"/>
      <point x="546" y="0" type="line"/>
      <point x="466" y="193" type="line"/>
      <point x="126" y="193" type="line"/>
    </contour>
    <contour>
      <point x="296" y="608" type="qcurve"/>
      <point x="286" y="578"/>
      <point x="248" y="487"/>
      <point x="243" y="476" type="qcurve"/>
      <point x="134" y="213" type="line"/>
      <point x="458" y="213" type="line"/>
      <point x="349" y="476" type="line" smooth="yes"/>
      <point x="344" y="487"/>
      <point x="306" y="578"/>
    </contour>
    <contour>
      <point x="296.0" y="645" type="move" name="top"/>
    </contour>
    <contour>
      <point x="569.0" y="0" type="move" name="ogonek"/>
    </contour>
  </outline>
</glyph>
<glyph name="B" format="1">
  <advance width="567.0"/>
  <unicode hex="0042"/>
  <outline>
    <contour>
      <point x="508" y="176" type="qcurve"/>
      <point x="508" y="79"/>
      <point x="410" y="0"/>
      <point x="298" y="0" type="qcurve"/>
      <point x="93" y="0" type="line"/>
      <point x="93" y="627" type="line"/>
      <point x="297" y="627" type="line" smooth="yes"/>
      <point x="398" y="627"/>
      <point x="482" y="561"/>
      <point x="482" y="479" type="qcurve"/>
      <point x="482" y="414"/>
      <point x="427" y="341"/>
      <point x="372" y="333" type="qcurve"/>
      <point x="439" y="329"/>
      <point x="508" y="249"/>
    </contour>
    <contour>
      <point x="461" y="477" type="qcurve"/>
      <point x="461" y="551"/>
      <point x="389" y="607"/>
      <point x="298" y="607" type="qcurve"/>
      <point x="114" y="607" type="line"/>
      <point x="114" y="339" type="line"/>
      <point x="298" y="339" type="line" smooth="yes"/>
      <point x="384" y="339"/>
      <point x="461" y="404"/>
    </contour>
    <contour>
      <point x="487" y="176" type="qcurve"/>
      <point x="487" y="257"/>
      <point x="402" y="319"/>
      <point x="298" y="319" type="qcurve"/>
      <point x="114" y="319" type="line"/>
      <point x="114" y="20" type="line"/>
      <point x="298" y="20" type="line" smooth="yes"/>
      <point x="402" y="20"/>
      <point x="487" y="88"/>
    </contour>
  </outline>
</glyph>
<glyph name="C" format="1">
  <advance width="535.0"/>
  <unicode hex="0043"/>
  <outline>
    <contour>
      <point x="327" y="14" type="qcurve" smooth="yes"/>
      <point x="369" y="14"/>
      <point x="457" y="34"/>
      <point x="498" y="53" type="qcurve"/>
      <point x="498" y="33" type="line"/>
      <point x="444" y="11"/>
      <point x="360" y="-6"/>
      <point x="317" y="-6" type="qcurve" smooth="yes"/>
      <point x="181" y="-6"/>
      <point x="64" y="145"/>
      <point x="64" y="316" type="qcurve" smooth="yes"/>
      <point x="64" y="482"/>
      <point x="195" y="637"/>
      <point x="337" y="637" type="qcurve"/>
      <point x="383" y="637"/>
      <point x="455" y="633"/>
      <point x="484" y="628" type="qcurve"/>
      <point x="484" y="607" type="line"/>
      <point x="448" y="612"/>
      <point x="377" y="617"/>
      <point x="337" y="617" type="qcurve"/>
      <point x="203" y="617"/>
      <point x="85" y="474"/>
      <point x="85" y="316" type="qcurve" smooth="yes"/>
      <point x="85" y="149"/>
      <point x="191" y="14"/>
    </contour>
    <contour>
      <point x="310.0" y="0" type="move" name="bottom"/>
    </contour>
    <contour>
      <point x="329.0" y="655" type="move" name="top"/>
    </contour>
  </outline>
</glyph>
<glyph name="D" format="1">
  <advance width="615.0"/>
  <unicode hex="0044"/>
  <outline>
    <contour>
      <point x="242" y="0" type="qcurve"/>
      <point x="93" y="0" type="line"/>
      <point x="93" y="627" type="line"/>
      <point x="242" y="627" type="line" smooth="yes"/>
      <point x="340" y="627"/>
      <point x="454" y="596"/>
      <point x="487" y="561" type="qcurve" smooth="yes"/>
      <point x="520" y="527"/>
      <point x="550" y="408"/>
      <point x="550" y="314" type="qcurve"/>
      <point x="550" y="151"/>
      <point x="404" y="0"/>
    </contour>
    <contour>
      <point x="471" y="545" type="qcurve" smooth="yes"/>
      <point x="440" y="578"/>
      <point x="333" y="607"/>
      <point x="242" y="607" type="qcurve"/>
      <point x="114" y="607" type="line"/>
      <point x="114" y="20" type="line"/>
      <point x="242" y="20" type="line" smooth="yes"/>
      <point x="394" y="20"/>
      <point x="529" y="159"/>
      <point x="529" y="314" type="qcurve"/>
      <point x="529" y="403"/>
      <point x="501" y="513"/>
    </contour>
    <contour>
      <point x="293.0" y="645" type="move" name="top"/>
    </contour>
  </outline>
</glyph>
<glyph name="E" format="1">
  <advance width="538.0"/>
  <unicode hex="0045"/>
  <outline>
    <contour>
      <point x="495" y="20" type="line"/>
      <point x="495" y="0" type="line"/>
      <point x="93" y="0" type="line"/>
      <point x="93" y="627" type="line"/>
      <point x="486" y="627" type="line"/>
      <point x="486" y="607" type="line"/>
      <point x="114" y="607" type="line"/>
      <point x="114" y="333" type="line"/>
      <point x="449" y="333" type="line"/>
      <point x="449" y="313" type="line"/>
      <point x="114" y="313" type="line"/>
      <point x="114" y="20" type="line"/>
    </contour>
    <contour>
      <point x="427.0" y="0" type="move" name="ogonek"/>
    </contour>
    <contour>
      <point x="294.0" y="645" type="move" name="top"/>
    </contour>
  </outline>
</glyph>
<glyph name="F" format="1">
  <advance width="509.0"/>
  <unicode hex="0046"/>
  <outline>
    <contour>
      <point x="114" y="288" type="line"/>
      <point x="114" y="0" type="line"/>
      <point x="93" y="0" type="line"/>
      <point x="93" y="627" type="line"/>
      <point x="476" y="627" type="line"/>
      <point x="476" y="607" type="line"/>
      <point x="114" y="607" type="line"/>
      <point x="114" y="308" type="line"/>
      <point x="439" y="308" type="line"/>
      <point x="439" y="288" type="line"/>
    </contour>
  </outline>
</glyph>
<glyph name="G" format="1">
  <advance width="618.0"/>
  <unicode hex="0047"/>
  <outline>
    <contour>
      <point x="535" y="285" type="line"/>
      <point x="323" y="285" type="line"/>
      <point x="323" y="305" type="line"/>
      <point x="556" y="305" type="line"/>
      <point x="556" y="32" type="line"/>
      <point x="528" y="19"/>
      <point x="384" y="-6"/>
      <point x="325" y="-6" type="qcurve"/>
      <point x="177" y="-6"/>
      <point x="65" y="135"/>
      <point x="65" y="314" type="qcurve" smooth="yes"/>
      <point x="65" y="478"/>
      <point x="202" y="637"/>
      <point x="345" y="637" type="qcurve"/>
      <point x="390" y="637"/>
      <point x="484" y="632"/>
      <point x="522" y="627" type="qcurve"/>
      <point x="522" y="607" type="line"/>
      <point x="484" y="612"/>
      <point x="389" y="617"/>
      <point x="345" y="617" type="qcurve" smooth="yes"/>
      <point x="211" y="617"/>
      <point x="86" y="471"/>
      <point x="86" y="314" type="qcurve" smooth="yes"/>
      <point x="86" y="232"/>
      <point x="106" y="123"/>
      <point x="128" y="89" type="qcurve" smooth="yes"/>
      <point x="154" y="49"/>
      <point x="249" y="14"/>
      <point x="335" y="14" type="qcurve"/>
      <point x="382" y="14"/>
      <point x="508" y="34"/>
      <point x="535" y="46" type="qcurve"/>
    </contour>
    <contour>
      <point x="347.0" y="655" type="move" name="top"/>
    </contour>
    <contour>
      <point x="336.0" y="0" type="move" name="bottom"/>
    </contour>
  </outline>
</glyph>
<glyph name="J" format="1">
  <advance width="445.0"/>
  <unicode hex="004A"/>
  <outline>
    <contour>
      <point x="336" y="224" type="qcurve"/>
      <point x="336" y="627" type="line"/>
      <point x="357" y="627" type="line"/>
      <point x="357" y="224" type="line" smooth="yes"/>
      <point x="357" y="106"/>
      <point x="254" y="-6"/>
      <point x="144" y="-6" type="qcurve"/>
      <point x="109" y="-6"/>
      <point x="50" y="1"/>
      <point x="26" y="9" type="qcurve"/>
      <point x="26" y="29" type="line"/>
      <point x="51" y="21"/>
      <point x="107" y="14"/>
      <point x="139" y="14" type="qcurve"/>
      <point x="243" y="14"/>
      <point x="336" y="113"/>
    </contour>
    <contour>
      <point x="346.0" y="645" type="move" name="top"/>
    </contour>
  </outline>
</glyph>
<glyph name="K" format="1">
  <advance width="566.0"/>
  <unicode hex="004B"/>
  <outline>
    <contour>
      <point x="252" y="319" type="line"/>
      <point x="547" y="0" type="line"/>
      <point x="516" y="0" type="line"/>
      <point x="232" y="308" type="line"/>
      <point x="114" y="308" type="line"/>
      <point x="114" y="0" type="line"/>
      <point x="93" y="0" type="line"/>
      <point x="93" y="627" type="line"/>
      <point x="114" y="627" type="line"/>
      <point x="114" y="328" type="line"/>
      <point x="232" y="328" type="line"/>
      <point x="505" y="627" type="line"/>
      <point x="535" y="627" type="line"/>
    </contour>
    <contour>
      <point x="275.0" y="645" type="move" name="top"/>
    </contour>
    <contour>
      <point x="275.0" y="0" type="move" name="bottom"/>
    </contour>
  </outline>
</glyph>
<glyph name="L" format="1">
  <advance width="487.0"/>
  <unicode hex="004C"/>
  <outline>
    <contour>
      <point x="463" y="20" type="line"/>
      <point x="463" y="0" type="line"/>
      <point x="93" y="0" type="line"/>
      <point x="93" y="627" type="line"/>
      <point x="114" y="627" type="line"/>
      <point x="114" y="20" type="line"/>
    </contour>
    <contour>
      <point x="104.0" y="645" type="move" name="top"/>
    </contour>
    <contour>
      <point x="285.0" y="0" type="move" name="bottom"/>
    </contour>
    <contour>
      <point x="363.0" y="627" type="move" name="caronalt"/>
    </contour>
  </outline>
</glyph>
<glyph name="M" format="1">
  <advance width="743.0"/>
  <unicode hex="004D"/>
  <outline>
    <contour>
      <point x="650" y="627" type="line"/>
      <point x="650" y="0" type="line"/>
      <point x="629" y="0" type="line"/>
      <point x="629" y="602" type="line"/>
      <point x="384" y="130" type="line"/>
      <point x="359" y="130" type="line"/>
      <point x="114" y="603" type="line"/>
      <point x="114" y="0" type="line"/>
      <point x="93" y="0" type="line"/>
      <point x="93" y="627" type="line"/>
      <point x="124" y="627" type="line"/>
      <point x="372" y="153" type="line"/>
      <point x="619" y="627" type="line"/>
    </contour>
  </outline>
</glyph>
<glyph name="N" format="1">
  <advance width="673.0"/>
  <unicode hex="004E"/>
  <outline>
    <contour>
      <point x="580" y="627" type="line"/>
      <point x="580" y="0" type="line"/>
      <point x="550" y="0" type="line"/>
      <point x="114" y="603" type="line"/>
      <point x="114" y="0" type="line"/>
      <point x="93" y="0" type="line"/>
      <point x="93" y="627" type="line"/>
      <point x="123" y="627" type="line"/>
      <point x="559" y="24" type="line"/>
      <point x="559" y="627" type="line"/>
    </contour>
    <contour>
      <point x="341.0" y="645" type="move" name="top"/>
    </contour>
    <contour>
      <point x="341.0" y="0" type="move" name="bottom"/>
    </contour>
  </outline>
</glyph>
<glyph name="O" format="1">
  <advance width="662.0"/>
  <unicode hex="004F"/>
  <outline>
    <contour>
      <point x="597" y="316" type="qcurve"/>
      <point x="597" y="146"/>
      <point x="473" y="-6"/>
      <point x="332" y="-6" type="qcurve"/>
      <point x="242" y="-6"/>
      <point x="140" y="33"/>
      <point x="111" y="76" type="qcurve" smooth="yes"/>
      <point x="87" y="112"/>
      <point x="65" y="229"/>
      <point x="65" y="316" type="qcurve"/>
      <point x="65" y="485"/>
      <point x="190" y="637"/>
      <point x="332" y="637" type="qcurve"/>
      <point x="421" y="637"/>
      <point x="523" y="598"/>
      <point x="551" y="555" type="qcurve" smooth="yes"/>
      <point x="575" y="518"/>
      <point x="597" y="403"/>
    </contour>
    <contour>
      <point x="126" y="91" type="qcurve" smooth="yes"/>
      <point x="151" y="50"/>
      <point x="246" y="14"/>
      <point x="332" y="14" type="qcurve" smooth="yes"/>
      <point x="464" y="14"/>
      <point x="576" y="155"/>
      <point x="576" y="316" type="qcurve"/>
      <point x="576" y="399"/>
      <point x="557" y="507"/>
      <point x="537" y="541" type="qcurve" smooth="yes"/>
      <point x="512" y="582"/>
      <point x="419" y="617"/>
      <point x="332" y="617" type="qcurve"/>
      <point x="199" y="617"/>
      <point x="86" y="477"/>
      <point x="86" y="316" type="qcurve"/>
      <point x="86" y="233"/>
      <point x="105" y="124"/>
    </contour>
    <contour>
      <point x="332.0" y="655" type="move" name="top"/>
    </contour>
  </outline>
</glyph>
<glyph name="P" format="1">
  <advance width="571.0"/>
  <unicode hex="0050"/>
  <outline>
    <contour>
      <point x="114" y="228" type="line"/>
      <point x="114" y="0" type="line"/>
      <point x="93" y="0" type="line"/>
      <point x="93" y="627" type="line"/>
      <point x="292" y="627" type="line" smooth="yes"/>
      <point x="414" y="627"/>
      <point x="523" y="536"/>
      <point x="523" y="435" type="qcurve"/>
      <point x="523" y="330"/>
      <point x="411" y="228"/>
      <point x="295" y="228" type="qcurve"/>
    </contour>
    <contour>
      <point x="502" y="435" type="qcurve"/>
      <point x="502" y="526"/>
      <point x="403" y="607"/>
      <point x="292" y="607" type="qcurve"/>
      <point x="114" y="607" type="line"/>
      <point x="114" y="247" type="line"/>
      <point x="292" y="247" type="line" smooth="yes"/>
      <point x="400" y="247"/>
      <point x="502" y="339"/>
    </contour>
  </outline>
</glyph>
<glyph name="Q" format="1">
  <advance width="662.0"/>
  <unicode hex="0051"/>
  <outline>
    <contour>
      <point x="332" y="-6" type="qcurve"/>
      <point x="242" y="-6"/>
      <point x="140" y="33"/>
      <point x="111" y="76" type="qcurve" smooth="yes"/>
      <point x="87" y="112"/>
      <point x="65" y="229"/>
      <point x="65" y="316" type="qcurve"/>
      <point x="65" y="485"/>
      <point x="190" y="637"/>
      <point x="332" y="637" type="qcurve"/>
      <point x="421" y="637"/>
      <point x="523" y="598"/>
      <point x="551" y="555" type="qcurve" smooth="yes"/>
      <point x="575" y="518"/>
      <point x="597" y="403"/>
      <point x="597" y="316" type="qcurve"/>
      <point x="597" y="186"/>
      <point x="526" y="38"/>
      <point x="450" y="11" type="qcurve"/>
      <point x="557" y="-128" type="line"/>
      <point x="530" y="-128" type="line"/>
      <point x="429" y="5" type="line"/>
      <point x="409" y="-1"/>
      <point x="361" y="-6"/>
    </contour>
    <contour>
      <point x="126" y="91" type="qcurve" smooth="yes"/>
      <point x="151" y="50"/>
      <point x="246" y="14"/>
      <point x="332" y="14" type="qcurve" smooth="yes"/>
      <point x="464" y="14"/>
      <point x="576" y="155"/>
      <point x="576" y="316" type="qcurve"/>
      <point x="576" y="399"/>
      <point x="557" y="507"/>
      <point x="537" y="541" type="qcurve" smooth="yes"/>
      <point x="512" y="582"/>
      <point x="419" y="617"/>
      <point x="332" y="617" type="qcurve"/>
      <point x="199" y="617"/>
      <point x="86" y="477"/>
      <point x="86" y="316" type="qcurve"/>
      <point x="86" y="233"/>
      <point x="105" y="124"/>
    </contour>
  </outline>
</glyph>
<glyph name="R" format="1">
  <advance width="580.0"/>
  <unicode hex="0052"/>
  <outline>
    <contour>
      <point x="114" y="248" type="line"/>
      <point x="114" y="0" type="line"/>
      <point x="93" y="0" type="line"/>
      <point x="93" y="627" type="line"/>
      <point x="292" y="627" type="line" smooth="yes"/>
      <point x="414" y="627"/>
      <point x="523" y="541"/>
      <point x="523" y="445" type="qcurve"/>
      <point x="523" y="360"/>
      <point x="441" y="264"/>
      <point x="358" y="252" type="qcurve"/>
      <point x="535" y="0" type="line"/>
      <point x="510" y="0" type="line"/>
      <point x="335" y="250" type="line"/>
      <point x="322" y="249"/>
      <point x="303" y="248"/>
      <point x="295" y="248" type="qcurve"/>
    </contour>
    <contour>
      <point x="502" y="445" type="qcurve"/>
      <point x="502" y="531"/>
      <point x="404" y="607"/>
      <point x="292" y="607" type="qcurve"/>
      <point x="114" y="607" type="line"/>
      <point x="114" y="267" type="line"/>
      <point x="292" y="267" type="line" smooth="yes"/>
      <point x="400" y="267"/>
      <point x="502" y="354"/>
    </contour>
    <contour>
      <point x="294.0" y="645" type="move" name="top"/>
    </contour>
    <contour>
      <point x="284.0" y="0" type="move" name="bottom"/>
    </contour>
  </outline>
</glyph>
<glyph name="S" format="1">
  <advance width="521.0"/>
  <unicode hex="0053"/>
  <outline>
    <contour>
      <point x="342" y="291" type="qcurve"/>
      <point x="167" y="333" type="line" smooth="yes"/>
      <point x="110" y="347"/>
      <point x="58" y="413"/>
      <point x="58" y="472" type="qcurve"/>
      <point x="58" y="559"/>
      <point x="159" y="637"/>
      <point x="272" y="637" type="qcurve" smooth="yes"/>
      <point x="318" y="637"/>
      <point x="396" y="628"/>
      <point x="426" y="619" type="qcurve"/>
      <point x="426" y="599" type="line"/>
      <point x="394" y="608"/>
      <point x="314" y="617"/>
      <point x="272" y="617" type="qcurve" smooth="yes"/>
      <point x="168" y="617"/>
      <point x="79" y="551"/>
      <point x="79" y="473" type="qcurve"/>
      <point x="79" y="421"/>
      <point x="124" y="367"/>
      <point x="176" y="354" type="qcurve"/>
      <point x="351" y="311" type="line" smooth="yes"/>
      <point x="422" y="294"/>
      <point x="474" y="232"/>
      <point x="474" y="168" type="qcurve"/>
      <point x="474" y="71"/>
      <point x="377" y="-6"/>
      <point x="266" y="-6" type="qcurve"/>
      <point x="205" y="-6"/>
      <point x="90" y="11"/>
      <point x="56" y="25" type="qcurve"/>
      <point x="56" y="45" type="line"/>
      <point x="108" y="29"/>
      <point x="211" y="14"/>
      <point x="266" y="14" type="qcurve"/>
      <point x="369" y="14"/>
      <point x="453" y="78"/>
      <point x="453" y="169" type="qcurve"/>
      <point x="453" y="225"/>
      <point x="407" y="275"/>
    </contour>
    <contour>
      <point x="265.0" y="655" type="move" name="top"/>
    </contour>
    <contour>
      <point x="249.0" y="0" type="move" name="bottom"/>
    </contour>
  </outline>
</glyph>
<glyph name="T" format="1">
  <advance width="551.0"/>
  <unicode hex="0054"/>
  <outline>
    <contour>
      <point x="528" y="627" type="line"/>
      <point x="528" y="607" type="line"/>
      <point x="286" y="607" type="line"/>
      <point x="286" y="0" type="line"/>
      <point x="265" y="0" type="line"/>
      <point x="265" y="607" type="line"/>
      <point x="23" y="607" type="line"/>
      <point x="23" y="627" type="line"/>
    </contour>
    <contour>
      <point x="276.0" y="645" type="move" name="top"/>
    </contour>
    <contour>
      <point x="276.0" y="0" type="move" name="bottom"/>
    </contour>
  </outline>
</glyph>
<glyph name="U" format="1">
  <advance width="644.0"/>
  <unicode hex="0055"/>
  <outline>
    <contour>
      <point x="535" y="238" type="qcurve"/>
      <point x="535" y="627" type="line"/>
      <point x="556" y="627" type="line"/>
      <point x="556" y="238" type="line" smooth="yes"/>
      <point x="556" y="110"/>
      <point x="442" y="-6"/>
      <point x="318" y="-6" type="qcurve"/>
      <point x="199" y="-6"/>
      <point x="88" y="111"/>
      <point x="88" y="238" type="qcurve"/>
      <point x="88" y="627" type="line"/>
      <point x="109" y="627" type="line"/>
      <point x="109" y="238" type="line" smooth="yes"/>
      <point x="109" y="117"/>
      <point x="207" y="14"/>
      <point x="318" y="14" type="qcurve"/>
      <point x="433" y="14"/>
      <point x="535" y="118"/>
    </contour>
    <contour>
      <point x="317.0" y="645.0" type="move" name="top"/>
    </contour>
    <contour>
      <point x="441.0" y="14" type="move" name="ogonekalt"/>
    </contour>
  </outline>
</glyph>
<glyph name="V" format="1">
  <advance width="572.0"/>
  <unicode hex="0056"/>
  <outline>
    <contour>
      <point x="275" y="0" type="line"/>
      <point x="23" y="627" type="line"/>
      <point x="46" y="627" type="line"/>
      <point x="235" y="151" type="line" smooth="yes"/>
      <point x="238" y="142"/>
      <point x="246" y="122"/>
      <point x="254" y="103" type="qcurve" smooth="yes"/>
      <point x="268" y="69"/>
      <point x="281" y="35"/>
      <point x="286" y="19" type="qcurve"/>
      <point x="296" y="49"/>
      <point x="333" y="142"/>
      <point x="337" y="151" type="qcurve"/>
      <point x="526" y="627" type="line"/>
      <point x="549" y="627" type="line"/>
      <point x="297" y="0" type="line"/>
    </contour>
  </outline>
</glyph>
<glyph name="W" format="1">
  <advance width="866.0"/>
  <unicode hex="0057"/>
  <outline>
    <contour>
      <point x="211" y="0" type="line"/>
      <point x="29" y="627" type="line"/>
      <point x="51" y="627" type="line"/>
      <point x="189" y="151" type="line" smooth="yes"/>
      <point x="194" y="135"/>
      <point x="211" y="70"/>
      <point x="223" y="22" type="qcurve"/>
      <point x="239" y="75"/>
      <point x="258" y="139"/>
      <point x="262" y="151" type="qcurve"/>
      <point x="422" y="627" type="line"/>
      <point x="444" y="627" type="line"/>
      <point x="604" y="151" type="line" smooth="yes"/>
      <point x="608" y="139"/>
      <point x="627" y="75"/>
      <point x="643" y="22" type="qcurve"/>
      <point x="654" y="68"/>
      <point x="670" y="124"/>
      <point x="678" y="151" type="qcurve"/>
      <point x="815" y="627" type="line"/>
      <point x="837" y="627" type="line"/>
      <point x="655" y="0" type="line"/>
      <point x="633" y="0" type="line"/>
      <point x="473" y="469" type="line" smooth="yes"/>
      <point x="458" y="513"/>
      <point x="440" y="575"/>
      <point x="433" y="602" type="qcurve"/>
      <point x="426" y="575"/>
      <point x="408" y="513"/>
      <point x="393" y="469" type="qcurve"/>
      <point x="233" y="0" type="line"/>
    </contour>
    <contour>
      <point x="434.0" y="645" type="move" name="top"/>
    </contour>
  </outline>
</glyph>
<glyph name="X" format="1">
  <advance width="533.0"/>
  <unicode hex="0058"/>
  <outline>
    <contour>
      <point x="275" y="324" type="line"/>
      <point x="516" y="0" type="line"/>
      <point x="490" y="0" type="line"/>
      <point x="262" y="308" type="line"/>
      <point x="48" y="0" type="line"/>
      <point x="23" y="0" type="line"/>
      <point x="250" y="323" type="line"/>
      <point x="30" y="627" type="line"/>
      <point x="55" y="627" type="line"/>
      <point x="262" y="339" type="line"/>
      <point x="470" y="627" type="line"/>
      <point x="495" y="627" type="line"/>
    </contour>
    <contour>
      <point x="262.0" y="645" type="move" name="top"/>
    </contour>
  </outline>
</glyph>
<glyph name="Y" format="1">
  <advance width="563.0"/>
  <unicode hex="0059"/>
  <outline>
    <contour>
      <point x="516" y="627" type="line"/>
      <point x="539" y="627" type="line"/>
      <point x="293" y="248" type="line"/>
      <point x="293" y="0" type="line"/>
      <point x="272" y="0" type="line"/>
      <point x="272" y="248" type="line"/>
      <point x="20" y="627" type="line"/>
      <point x="43" y="627" type="line"/>
      <point x="283" y="268" type="line"/>
    </contour>
    <contour>
      <point x="283.0" y="645.0" type="move" name="top"/>
    </contour>
  </outline>
</glyph>
<glyph name="Z" format="1">
  <advance width="508.0"/>
  <unicode hex="005A"/>
  <outline>
    <contour>
      <point x="483" y="20" type="line"/>
      <point x="483" y="0" type="line"/>
      <point x="28" y="0" type="line"/>
      <point x="28" y="20" type="line"/>
      <point x="440" y="607" type="line"/>
      <point x="57" y="607" type="line"/>
      <point x="57" y="627" type="line"/>
      <point x="464" y="627" type="line"/>
      <point x="464" y="607" type="line"/>
      <point x="53" y="20" type="line"/>
    </contour>
    <contour>
      <point x="261.0" y="645" type="move" name="top"/>
    </contour>
  </outline>
</glyph>
<glyph name="bracketleft" format="1">
  <advance width="286.0"/>
  <unicode hex="005B"/>
  <outline>
    <contour>
      <point x="256" y="-62" type="line"/>
      <point x="256" y="-82" type="line"/>
      <point x="91" y="-82" type="line"/>
      <point x="91" y="707" type="line"/>
      <point x="256" y="707" type="line"/>
      <point x="256" y="687" type="line"/>
      <point x="112" y="687" type="line"/>
      <point x="112" y="-62" type="line"/>
    </contour>
  </outline>
</glyph>
<glyph name="backslash" format="1">
  <advance width="291.0"/>
  <unicode hex="005C"/>
  <outline>
    <contour>
      <point x="56" y="707" type="line"/>
      <point x="256" y="-80" type="line"/>
      <point x="234" y="-80" type="line"/>
      <point x="34" y="707" type="line"/>
    </contour>
  </outline>
</glyph>
<glyph name="asciicircum" format="1">
  <advance width="500.0"/>
  <unicode hex="005E"/>
  <outline>
    <contour>
      <point x="116" y="365" type="line"/>
      <point x="94" y="365" type="line"/>
      <point x="239" y="627" type="line"/>
      <point x="262" y="627" type="line"/>
      <point x="405" y="365" type="line"/>
      <point x="384" y="365" type="line"/>
      <point x="250" y="608" type="line"/>
    </contour>
  </outline>
</glyph>
<glyph name="a" format="1">
  <advance width="500.0"/>
  <unicode hex="0061"/>
  <outline>
    <contour>
      <point x="195" y="-6" type="qcurve"/>
      <point x="119" y="-6"/>
      <point x="48" y="65"/>
      <point x="48" y="141" type="qcurve"/>
      <point x="48" y="215"/>
      <point x="134" y="279"/>
      <point x="237" y="279" type="qcurve"/>
      <point x="276" y="279"/>
      <point x="349" y="273"/>
      <point x="399" y="266" type="qcurve"/>
      <point x="399" y="327" type="line" smooth="yes"/>
      <point x="399" y="414"/>
      <point x="329" y="485"/>
      <point x="249" y="485" type="qcurve" smooth="yes"/>
      <point x="206" y="485"/>
      <point x="139" y="476"/>
      <point x="100" y="466" type="qcurve"/>
      <point x="100" y="486" type="line"/>
      <point x="145" y="497"/>
      <point x="209" y="504"/>
      <point x="255" y="504" type="qcurve" smooth="yes"/>
      <point x="341" y="504"/>
      <point x="419" y="421"/>
      <point x="419" y="327" type="qcurve"/>
      <point x="419" y="0" type="line"/>
      <point x="403" y="0" type="line"/>
      <point x="401" y="56" type="line"/>
      <point x="400" y="56" type="line"/>
      <point x="370" y="28"/>
      <point x="257" y="-6"/>
    </contour>
    <contour>
      <point x="237" y="260" type="qcurve"/>
      <point x="143" y="260"/>
      <point x="68" y="207"/>
      <point x="68" y="142" type="qcurve"/>
      <point x="68" y="74"/>
      <point x="131" y="13"/>
      <point x="200" y="13" type="qcurve"/>
      <point x="257" y="13"/>
      <point x="369" y="47"/>
      <point x="399" y="74" type="qcurve"/>
      <point x="399" y="247" type="line"/>
      <point x="360" y="254"/>
      <point x="279" y="260"/>
    </contour>
    <contour>
      <point x="248.0" y="530.0" type="move" name="top"/>
    </contour>
    <contour>
      <point x="419.0" y="0.0" type="move" name="ogonek"/>
    </contour>
  </outline>
</glyph>
<glyph name="b" format="1">
  <advance width="544.0"/>
  <unicode hex="0062"/>
  <outline>
    <contour>
      <point x="286" y="504" type="qcurve"/>
      <point x="390" y="504"/>
      <point x="482" y="383"/>
      <point x="482" y="249" type="qcurve" smooth="yes"/>
      <point x="482" y="111"/>
      <point x="375" y="-6"/>
      <point x="245" y="-6" type="qcurve"/>
      <point x="201" y="-6"/>
      <point x="120" y="6"/>
      <point x="84" y="18" type="qcurve"/>
      <point x="84" y="665" type="line"/>
      <point x="104" y="665" type="line"/>
      <point x="104" y="449" type="line"/>
      <point x="143" y="477"/>
      <point x="233" y="504"/>
    </contour>
    <contour>
      <point x="281" y="485" type="qcurve"/>
      <point x="231" y="485"/>
      <point x="141" y="456"/>
      <point x="104" y="428" type="qcurve"/>
      <point x="104" y="32" type="line"/>
      <point x="134" y="23"/>
      <point x="207" y="13"/>
      <point x="245" y="13" type="qcurve"/>
      <point x="367" y="13"/>
      <point x="462" y="120"/>
      <point x="462" y="249" type="qcurve" smooth="yes"/>
      <point x="462" y="376"/>
      <point x="381" y="485"/>
    </contour>
  </outline>
</glyph>
<glyph name="c" format="1">
  <advance width="454.0"/>
  <unicode hex="0063"/>
  <outline>
    <contour>
      <point x="416" y="50" type="qcurve"/>
      <point x="416" y="31" type="line"/>
      <point x="391" y="15"/>
      <point x="299" y="-6"/>
      <point x="248" y="-6" type="qcurve"/>
      <point x="144" y="-6"/>
      <point x="62" y="107"/>
      <point x="62" y="249" type="qcurve" smooth="yes"/>
      <point x="62" y="385"/>
      <point x="169" y="504"/>
      <point x="294" y="504" type="qcurve"/>
      <point x="320" y="504"/>
      <point x="363" y="501"/>
      <point x="403" y="495" type="qcurve"/>
      <point x="403" y="476" type="line"/>
      <point x="372" y="482"/>
      <point x="325" y="485"/>
      <point x="294" y="485" type="qcurve"/>
      <point x="178" y="485"/>
      <point x="82" y="376"/>
      <point x="82" y="249" type="qcurve" smooth="yes"/>
      <point x="82" y="116"/>
      <point x="157" y="13"/>
      <point x="253" y="13" type="qcurve"/>
      <point x="298" y="13"/>
      <point x="388" y="35"/>
    </contour>
    <contour>
      <point x="251.0" y="0" type="move" name="bottom"/>
    </contour>
    <contour>
      <point x="272.0" y="530" type="move" name="top"/>
    </contour>
  </outline>
</glyph>
<glyph name="d" format="1">
  <advance width="545.0"/>
  <unicode hex="0064"/>
  <outline>
    <contour>
      <point x="440" y="665" type="line"/>
      <point x="460" y="665" type="line"/>
      <point x="460" y="0" type="line"/>
      <point x="444" y="0" type="line"/>
      <point x="442" y="50" type="line"/>
      <point x="441" y="50" type="line"/>
      <point x="403" y="22"/>
      <point x="313" y="-6"/>
      <point x="258" y="-6" type="qcurve"/>
      <point x="154" y="-6"/>
      <point x="62" y="115"/>
      <point x="62" y="249" type="qcurve" smooth="yes"/>
      <point x="62" y="387"/>
      <point x="169" y="504"/>
      <point x="299" y="504" type="qcurve"/>
      <point x="341" y="504"/>
      <point x="409" y="493"/>
      <point x="440" y="480" type="qcurve"/>
    </contour>
    <contour>
      <point x="263" y="13" type="qcurve"/>
      <point x="316" y="13"/>
      <point x="404" y="42"/>
      <point x="440" y="70" type="qcurve"/>
      <point x="440" y="460" type="line"/>
      <point x="412" y="473"/>
      <point x="343" y="485"/>
      <point x="299" y="485" type="qcurve"/>
      <point x="177" y="485"/>
      <point x="82" y="378"/>
      <point x="82" y="249" type="qcurve" smooth="yes"/>
      <point x="82" y="122"/>
      <point x="163" y="13"/>
    </contour>
    <contour>
      <point x="550.0" y="665" type="move" name="caronalt"/>
    </contour>
  </outline>
</glyph>
<glyph name="e" format="1">
  <advance width="503.0"/>
  <unicode hex="0065"/>
  <outline>
    <contour>
      <point x="427" y="47" type="qcurve"/>
      <point x="427" y="27" type="line"/>
      <point x="398" y="13"/>
      <point x="310" y="-6"/>
      <point x="268" y="-6" type="qcurve" smooth="yes"/>
      <point x="157" y="-6"/>
      <point x="62" y="114"/>
      <point x="62" y="252" type="qcurve" smooth="yes"/>
      <point x="62" y="385"/>
      <point x="158" y="504"/>
      <point x="266" y="504" type="qcurve"/>
      <point x="361" y="504"/>
      <point x="448" y="407"/>
      <point x="448" y="302" type="qcurve"/>
      <point x="448" y="290"/>
      <point x="446" y="262"/>
      <point x="444" y="246" type="qcurve"/>
      <point x="82" y="246" type="line"/>
      <point x="82" y="122"/>
      <point x="169" y="13"/>
      <point x="272" y="13" type="qcurve" smooth="yes"/>
      <point x="312" y="13"/>
      <point x="400" y="33"/>
    </contour>
    <contour>
      <point x="428" y="302" type="qcurve"/>
      <point x="428" y="398"/>
      <point x="350" y="485"/>
      <point x="266" y="485" type="qcurve"/>
      <point x="168" y="485"/>
      <point x="82" y="382"/>
      <point x="82" y="265" type="qcurve"/>
      <point x="426" y="265" type="line"/>
      <point x="427" y="274"/>
      <point x="428" y="292"/>
    </contour>
    <contour>
      <point x="267.0" y="530" type="move" name="top"/>
    </contour>
    <contour>
      <point x="389.0" y="14" type="move" name="ogonekalt"/>
    </contour>
  </outline>
</glyph>
<glyph name="f" format="1">
  <advance width="348.0"/>
  <unicode hex="0066"/>
  <outline>
    <contour>
      <point x="114" y="475" type="line"/>
      <point x="26" y="475" type="line"/>
      <point x="26" y="494" type="line"/>
      <point x="114" y="494" type="line"/>
      <point x="114" y="518" type="line"/>
      <point x="114" y="601"/>
      <point x="187" y="675"/>
      <point x="266" y="675" type="qcurve"/>
      <point x="287" y="675"/>
      <point x="323" y="672"/>
      <point x="342" y="668" type="qcurve"/>
      <point x="342" y="649" type="line"/>
      <point x="330" y="652"/>
      <point x="287" y="656"/>
      <point x="262" y="656" type="qcurve"/>
      <point x="193" y="656"/>
      <point x="134" y="594"/>
      <point x="134" y="518" type="qcurve"/>
      <point x="134" y="494" type="line"/>
      <point x="327" y="494" type="line"/>
      <point x="327" y="475" type="line"/>
      <point x="134" y="475" type="line"/>
      <point x="134" y="0" type="line"/>
      <point x="114" y="0" type="line"/>
    </contour>
  </outline>
</glyph>
<glyph name="g" format="1">
  <advance width="539.0"/>
  <unicode hex="0067"/>
  <outline>
    <contour>
      <point x="272" y="-162" type="qcurve"/>
      <point x="227" y="-162"/>
      <point x="149" y="-150"/>
      <point x="121" y="-139" type="qcurve"/>
      <point x="121" y="-119" type="line"/>
      <point x="144" y="-129"/>
      <point x="226" y="-143"/>
      <point x="266" y="-143" type="qcurve"/>
      <point x="360" y="-143"/>
      <point x="434" y="-60"/>
      <point x="434" y="48" type="qcurve"/>
      <point x="434" y="89" type="line"/>
      <point x="397" y="61"/>
      <point x="309" y="34"/>
      <point x="256" y="34" type="qcurve"/>
      <point x="152" y="34"/>
      <point x="62" y="146"/>
      <point x="62" y="269" type="qcurve" smooth="yes"/>
      <point x="62" y="396"/>
      <point x="167" y="504"/>
      <point x="297" y="504" type="qcurve"/>
      <point x="336" y="504"/>
      <point x="410" y="495"/>
      <point x="454" y="485" type="qcurve"/>
      <point x="454" y="50" type="line" smooth="yes"/>
      <point x="454" y="-68"/>
      <point x="372" y="-162"/>
    </contour>
    <contour>
      <point x="261" y="53" type="qcurve"/>
      <point x="311" y="53"/>
      <point x="398" y="82"/>
      <point x="434" y="110" type="qcurve"/>
      <point x="434" y="470" type="line"/>
      <point x="401" y="477"/>
      <point x="331" y="485"/>
      <point x="297" y="485" type="qcurve"/>
      <point x="176" y="485"/>
      <point x="82" y="387"/>
      <point x="82" y="269" type="qcurve" smooth="yes"/>
      <point x="82" y="153"/>
      <point x="162" y="53"/>
    </contour>
    <contour>
      <point x="274.0" y="530" type="move" name="top"/>
    </contour>
  </outline>
</glyph>
<glyph name="j" format="1">
  <advance width="202.0"/>
  <unicode hex="006A"/>
  <outline>
    <contour>
      <point x="119" y="631" type="line"/>
      <point x="95" y="631" type="line"/>
      <point x="95" y="664" type="line"/>
      <point x="119" y="664" type="line"/>
    </contour>
    <contour>
      <point x="-23" y="-162" type="qcurve"/>
      <point x="-44" y="-162"/>
      <point x="-80" y="-159"/>
      <point x="-98" y="-156" type="qcurve"/>
      <point x="-98" y="-137" type="line"/>
      <point x="-79" y="-140"/>
      <point x="-45" y="-143"/>
      <point x="-27" y="-143" type="qcurve"/>
      <point x="37" y="-143"/>
      <point x="97" y="-72"/>
      <point x="97" y="5" type="qcurve"/>
      <point x="97" y="494" type="line"/>
      <point x="117" y="494" type="line"/>
      <point x="117" y="5" type="line"/>
      <point x="117" y="-80"/>
      <point x="48" y="-162"/>
    </contour>
  </outline>
</glyph>
<glyph name="k" format="1">
  <advance width="474.0"/>
  <unicode hex="006B"/>
  <outline>
    <contour>
      <point x="105" y="240" type="line"/>
      <point x="105" y="0" type="line"/>
      <point x="85" y="0" type="line"/>
      <point x="85" y="665" type="line"/>
      <point x="105" y="665" type="line"/>
      <point x="105" y="259" type="line"/>
      <point x="187" y="259" type="line"/>
      <point x="413" y="494" type="line"/>
      <point x="441" y="494" type="line"/>
      <point x="207" y="252" type="line"/>
      <point x="451" y="0" type="line"/>
      <point x="421" y="0" type="line"/>
      <point x="190" y="240" type="line"/>
    </contour>
    <contour>
      <point x="244.0" y="0" type="move" name="bottom"/>
    </contour>
  </outline>
</glyph>
<glyph name="l" format="1">
  <advance width="190.0"/>
  <unicode hex="006C"/>
  <outline>
    <contour>
      <point x="105" y="665" type="line"/>
      <point x="105" y="0" type="line"/>
      <point x="85" y="0" type="line"/>
      <point x="85" y="665" type="line"/>
    </contour>
    <contour>
      <point x="95.0" y="680" type="move" name="top"/>
    </contour>
    <contour>
      <point x="95.0" y="0" type="move" name="bottom"/>
    </contour>
    <contour>
      <point x="195.0" y="665" type="move" name="caronalt"/>
    </contour>
  </outline>
</glyph>
<glyph name="m" format="1">
  <advance width="812.0"/>
  <unicode hex="006D"/>
  <outline>
    <contour>
      <point x="105" y="0" type="line"/>
      <point x="85" y="0" type="line"/>
      <point x="85" y="494" type="line"/>
      <point x="101" y="494" type="line"/>
      <point x="104" y="448" type="line"/>
      <point x="106" y="448" type="line"/>
      <point x="166" y="482"/>
      <point x="237" y="504"/>
      <point x="274" y="504" type="qcurve" smooth="yes"/>
      <point x="318" y="504"/>
      <point x="381" y="476"/>
      <point x="398" y="448" type="qcurve"/>
      <point x="401" y="448" type="line"/>
      <point x="456" y="479"/>
      <point x="541" y="504"/>
      <point x="587" y="504" type="qcurve" smooth="yes"/>
      <point x="657" y="504"/>
      <point x="731" y="434"/>
      <point x="731" y="368" type="qcurve"/>
      <point x="731" y="0" type="line"/>
      <point x="711" y="0" type="line"/>
      <point x="711" y="368" type="line" smooth="yes"/>
      <point x="711" y="428"/>
      <point x="647" y="485"/>
      <point x="580" y="485" type="qcurve" smooth="yes"/>
      <point x="540" y="485"/>
      <point x="454" y="458"/>
      <point x="407" y="431" type="qcurve"/>
      <point x="412" y="417"/>
      <point x="418" y="385"/>
      <point x="418" y="368" type="qcurve"/>
      <point x="418" y="0" type="line"/>
      <point x="398" y="0" type="line"/>
      <point x="398" y="368" type="line" smooth="yes"/>
      <point x="398" y="428"/>
      <point x="334" y="485"/>
      <point x="267" y="485" type="qcurve" smooth="yes"/>
      <point x="235" y="485"/>
      <point x="163" y="461"/>
      <point x="105" y="428" type="qcurve"/>
    </contour>
  </outline>
</glyph>
<glyph name="n" format="1">
  <advance width="552.0"/>
  <unicode hex="006E"/>
  <outline>
    <contour>
      <point x="105" y="0" type="line"/>
      <point x="85" y="0" type="line"/>
      <point x="85" y="494" type="line"/>
      <point x="101" y="494" type="line"/>
      <point x="103" y="446" type="line"/>
      <point x="105" y="446" type="line"/>
      <point x="164" y="478"/>
      <point x="257" y="504"/>
      <point x="307" y="504" type="qcurve" smooth="yes"/>
      <point x="388" y="504"/>
      <point x="471" y="422"/>
      <point x="471" y="342" type="qcurve"/>
      <point x="471" y="0" type="line"/>
      <point x="451" y="0" type="line"/>
      <point x="451" y="342" type="line" smooth="yes"/>
      <point x="451" y="415"/>
      <point x="377" y="485"/>
      <point x="300" y="485" type="qcurve" smooth="yes"/>
      <point x="254" y="485"/>
      <point x="157" y="456"/>
      <point x="105" y="427" type="qcurve"/>
    </contour>
    <contour>
      <point x="277.0" y="0" type="move" name="bottom"/>
    </contour>
    <contour>
      <point x="277.0" y="530" type="move" name="top"/>
    </contour>
    <contour>
      <point x="15.0" y="665" type="move" name="caronalt"/>
    </contour>
  </outline>
</glyph>
<glyph name="o" format="1">
  <advance width="554.0"/>
  <unicode hex="006F"/>
  <outline>
    <contour>
      <point x="491" y="249" type="qcurve" smooth="yes"/>
      <point x="491" y="107"/>
      <point x="396" y="-6"/>
      <point x="277" y="-6" type="qcurve" smooth="yes"/>
      <point x="151" y="-6"/>
      <point x="63" y="99"/>
      <point x="63" y="249" type="qcurve" smooth="yes"/>
      <point x="63" y="391"/>
      <point x="158" y="504"/>
      <point x="277" y="504" type="qcurve" smooth="yes"/>
      <point x="403" y="504"/>
      <point x="491" y="399"/>
    </contour>
    <contour>
      <point x="83" y="249" type="qcurve" smooth="yes"/>
      <point x="83" y="109"/>
      <point x="162" y="13"/>
      <point x="277" y="13" type="qcurve" smooth="yes"/>
      <point x="387" y="13"/>
      <point x="471" y="115"/>
      <point x="471" y="249" type="qcurve" smooth="yes"/>
      <point x="471" y="389"/>
      <point x="392" y="485"/>
      <point x="277" y="485" type="qcurve" smooth="yes"/>
      <point x="167" y="485"/>
      <point x="83" y="383"/>
    </contour>
    <contour>
      <point x="277.0" y="530.0" type="move" name="top"/>
    </contour>
  </outline>
</glyph>
<glyph name="q" format="1">
  <advance width="545.0"/>
  <unicode hex="0071"/>
  <outline>
    <contour>
      <point x="460" y="485" type="qcurve"/>
      <point x="460" y="-152" type="line"/>
      <point x="440" y="-152" type="line"/>
      <point x="440" y="49" type="line"/>
      <point x="405" y="21"/>
      <point x="315" y="-6"/>
      <point x="258" y="-6" type="qcurve"/>
      <point x="154" y="-6"/>
      <point x="62" y="115"/>
      <point x="62" y="249" type="qcurve" smooth="yes"/>
      <point x="62" y="387"/>
      <point x="169" y="504"/>
      <point x="299" y="504" type="qcurve"/>
      <point x="341" y="504"/>
      <point x="419" y="495"/>
    </contour>
    <contour>
      <point x="263" y="13" type="qcurve"/>
      <point x="317" y="13"/>
      <point x="407" y="42"/>
      <point x="440" y="70" type="qcurve"/>
      <point x="440" y="470" type="line"/>
      <point x="409" y="477"/>
      <point x="337" y="485"/>
      <point x="299" y="485" type="qcurve"/>
      <point x="177" y="485"/>
      <point x="82" y="378"/>
      <point x="82" y="249" type="qcurve" smooth="yes"/>
      <point x="82" y="122"/>
      <point x="163" y="13"/>
    </contour>
  </outline>
</glyph>
<glyph name="r" format="1">
  <advance width="349.0"/>
  <unicode hex="0072"/>
  <outline>
    <contour>
      <point x="105" y="0" type="line"/>
      <point x="85" y="0" type="line"/>
      <point x="85" y="494" type="line"/>
      <point x="101" y="494" type="line"/>
      <point x="104" y="446" type="line"/>
      <point x="106" y="446" type="line"/>
      <point x="150" y="470"/>
      <point x="241" y="496"/>
      <point x="284" y="496" type="qcurve"/>
      <point x="295" y="496"/>
      <point x="319" y="495"/>
      <point x="325" y="494" type="qcurve"/>
      <point x="325" y="475" type="line"/>
      <point x="321" y="476"/>
      <point x="308" y="477"/>
      <point x="277" y="477" type="qcurve"/>
      <point x="237" y="477"/>
      <point x="145" y="450"/>
      <point x="105" y="427" type="qcurve"/>
    </contour>
    <contour>
      <point x="95.0" y="0.0" type="move" name="bottom"/>
    </contour>
    <contour>
      <point x="205.0" y="530" type="move" name="top"/>
    </contour>
  </outline>
</glyph>
<glyph name="s" format="1">
  <advance width="449.0"/>
  <unicode hex="0073"/>
  <outline>
    <contour>
      <point x="234" y="485" type="qcurve" smooth="yes"/>
      <point x="152" y="485"/>
      <point x="82" y="432"/>
      <point x="82" y="362" type="qcurve" smooth="yes"/>
      <point x="82" y="324"/>
      <point x="116" y="287"/>
      <point x="155" y="280" type="qcurve"/>
      <point x="289" y="258" type="line" smooth="yes"/>
      <point x="353" y="247"/>
      <point x="400" y="196"/>
      <point x="400" y="138" type="qcurve" smooth="yes"/>
      <point x="400" y="62"/>
      <point x="323" y="-6"/>
      <point x="238" y="-6" type="qcurve" smooth="yes"/>
      <point x="180" y="-6"/>
      <point x="78" y="9"/>
      <point x="51" y="20" type="qcurve"/>
      <point x="51" y="40" type="line"/>
      <point x="81" y="28"/>
      <point x="181" y="13"/>
      <point x="238" y="13" type="qcurve" smooth="yes"/>
      <point x="315" y="13"/>
      <point x="380" y="71"/>
      <point x="380" y="138" type="qcurve" smooth="yes"/>
      <point x="380" y="187"/>
      <point x="340" y="229"/>
      <point x="283" y="238" type="qcurve"/>
      <point x="151" y="260" type="line" smooth="yes"/>
      <point x="104" y="268"/>
      <point x="62" y="315"/>
      <point x="62" y="361" type="qcurve" smooth="yes"/>
      <point x="62" y="438"/>
      <point x="144" y="504"/>
      <point x="234" y="504" type="qcurve" smooth="yes"/>
      <point x="263" y="504"/>
      <point x="310" y="502"/>
      <point x="366" y="494" type="qcurve"/>
      <point x="366" y="475" type="line"/>
      <point x="332" y="480"/>
      <point x="268" y="485"/>
    </contour>
    <contour>
      <point x="217.0" y="0" type="move" name="bottom"/>
    </contour>
    <contour>
      <point x="233.0" y="530.0" type="move" name="top"/>
    </contour>
  </outline>
</glyph>
<glyph name="t" format="1">
  <advance width="366.0"/>
  <unicode hex="0074"/>
  <outline>
    <contour>
      <point x="349" y="24" type="qcurve"/>
      <point x="349" y="6" type="line"/>
      <point x="331" y="0"/>
      <point x="286" y="-6"/>
      <point x="262" y="-6" type="qcurve" smooth="yes"/>
      <point x="180" y="-6"/>
      <point x="113" y="69"/>
      <point x="113" y="170" type="qcurve"/>
      <point x="113" y="475" type="line"/>
      <point x="25" y="475" type="line"/>
      <point x="25" y="494" type="line"/>
      <point x="113" y="494" type="line"/>
      <point x="118" y="619" type="line"/>
      <point x="133" y="619" type="line"/>
      <point x="133" y="494" type="line"/>
      <point x="343" y="494" type="line"/>
      <point x="343" y="475" type="line"/>
      <point x="133" y="475" type="line"/>
      <point x="133" y="170" type="line" smooth="yes"/>
      <point x="133" y="80"/>
      <point x="192" y="13"/>
      <point x="265" y="13" type="qcurve" smooth="yes"/>
      <point x="287" y="13"/>
      <point x="335" y="19"/>
    </contour>
    <contour>
      <point x="239.0" y="0" type="move" name="bottom"/>
    </contour>
    <contour>
      <point x="223.0" y="715" type="move" name="caronalt"/>
    </contour>
  </outline>
</glyph>
<glyph name="u" format="1">
  <advance width="542.0"/>
  <unicode hex="0075"/>
  <outline>
    <contour>
      <point x="243" y="-6" type="qcurve" smooth="yes"/>
      <point x="163" y="-6"/>
      <point x="81" y="76"/>
      <point x="81" y="156" type="qcurve"/>
      <point x="81" y="494" type="line"/>
      <point x="101" y="494" type="line"/>
      <point x="101" y="156" type="line" smooth="yes"/>
      <point x="101" y="82"/>
      <point x="173" y="13"/>
      <point x="250" y="13" type="qcurve" smooth="yes"/>
      <point x="294" y="13"/>
      <point x="386" y="42"/>
      <point x="437" y="71" type="qcurve"/>
      <point x="437" y="494" type="line"/>
      <point x="457" y="494" type="line"/>
      <point x="457" y="0" type="line"/>
      <point x="441" y="0" type="line"/>
      <point x="439" y="53" type="line"/>
      <point x="437" y="53" type="line"/>
      <point x="389" y="24"/>
      <point x="292" y="-6"/>
    </contour>
    <contour>
      <point x="268.0" y="520.0" type="move" name="top"/>
    </contour>
    <contour>
      <point x="457.0" y="0.0" type="move" name="ogonek"/>
    </contour>
  </outline>
</glyph>
<glyph name="v" format="1">
  <advance width="487.0"/>
  <unicode hex="0076"/>
  <outline>
    <contour>
      <point x="440" y="494" type="line"/>
      <point x="463" y="494" type="line"/>
      <point x="255" y="0" type="line"/>
      <point x="232" y="0" type="line"/>
      <point x="24" y="494" type="line"/>
      <point x="47" y="494" type="line"/>
      <point x="244" y="20" type="line"/>
    </contour>
  </outline>
</glyph>
<glyph name="w" format="1">
  <advance width="683.0"/>
  <unicode hex="0077"/>
  <outline>
    <contour>
      <point x="629" y="494" type="line"/>
      <point x="650" y="494" type="line"/>
      <point x="509" y="0" type="line"/>
      <point x="483" y="0" type="line"/>
      <point x="335" y="475" type="line"/>
      <point x="199" y="0" type="line"/>
      <point x="173" y="0" type="line"/>
      <point x="33" y="494" type="line"/>
      <point x="54" y="494" type="line"/>
      <point x="186" y="24" type="line"/>
      <point x="320" y="494" type="line"/>
      <point x="349" y="494" type="line"/>
      <point x="497" y="24" type="line"/>
    </contour>
    <contour>
      <point x="335.0" y="520" type="move" name="top"/>
    </contour>
  </outline>
</glyph>
<glyph name="x" format="1">
  <advance width="431.0"/>
  <unicode hex="0078"/>
  <outline>
    <contour>
      <point x="228" y="257" type="line"/>
      <point x="405" y="0" type="line"/>
      <point x="380" y="0" type="line"/>
      <point x="215" y="242" type="line"/>
      <point x="51" y="0" type="line"/>
      <point x="26" y="0" type="line"/>
      <point x="202" y="256" type="line"/>
      <point x="38" y="494" type="line"/>
      <point x="63" y="494" type="line"/>
      <point x="215" y="272" type="line"/>
      <point x="368" y="494" type="line"/>
      <point x="393" y="494" type="line"/>
    </contour>
    <contour>
      <point x="215.0" y="520" type="move" name="top"/>
    </contour>
  </outline>
</glyph>
<glyph name="y" format="1">
  <advance width="489.0"/>
  <unicode hex="0079"/>
  <outline>
    <contour>
      <point x="199" y="-91" type="qcurve" smooth="yes"/>
      <point x="204" y="-81"/>
      <point x="217" y="-53"/>
      <point x="239" y="4" type="qcurve"/>
      <point x="22" y="494" type="line"/>
      <point x="45" y="494" type="line"/>
      <point x="250" y="27" type="line"/>
      <point x="443" y="494" type="line"/>
      <point x="465" y="494" type="line"/>
      <point x="238" y="-54" type="line" smooth="yes"/>
      <point x="210" y="-122"/>
      <point x="158" y="-162"/>
      <point x="117" y="-162" type="qcurve"/>
      <point x="101" y="-162"/>
      <point x="71" y="-159"/>
      <point x="56" y="-155" type="qcurve"/>
      <point x="56" y="-136" type="line"/>
      <point x="70" y="-139"/>
      <point x="101" y="-143"/>
      <point x="117" y="-143" type="qcurve"/>
      <point x="146" y="-143"/>
      <point x="183" y="-120"/>
    </contour>
    <contour>
      <point x="250.0" y="520" type="move" name="top"/>
    </contour>
  </outline>
</glyph>
<glyph name="z" format="1">
  <advance width="425.0"/>
  <unicode hex="007A"/>
  <outline>
    <contour>
      <point x="395" y="19" type="line"/>
      <point x="395" y="0" type="line"/>
      <point x="36" y="0" type="line"/>
      <point x="36" y="19" type="line"/>
      <point x="355" y="475" type="line"/>
      <point x="54" y="475" type="line"/>
      <point x="54" y="494" type="line"/>
      <point x="378" y="494" type="line"/>
      <point x="378" y="475" type="line"/>
      <point x="59" y="19" type="line"/>
    </contour>
    <contour>
      <point x="214.0" y="520" type="move" name="top"/>
    </contour>
  </outline>
</glyph>
<glyph name="braceleft" format="1">
  <advance width="291.0"/>
  <unicode hex="007B"/>
  <outline>
    <contour>
      <point x="59" y="317" type="qcurve"/>
      <point x="59" y="315" type="line"/>
      <point x="97" y="308"/>
      <point x="140" y="226"/>
      <point x="140" y="157" type="qcurve"/>
      <point x="140" y="43" type="line"/>
      <point x="140" y="-12"/>
      <point x="204" y="-72"/>
      <point x="263" y="-72" type="qcurve"/>
      <point x="263" y="-92" type="line"/>
      <point x="195" y="-92"/>
      <point x="119" y="-21"/>
      <point x="119" y="43" type="qcurve"/>
      <point x="119" y="157" type="line" smooth="yes"/>
      <point x="119" y="227"/>
      <point x="69" y="305"/>
      <point x="30" y="305" type="qcurve"/>
      <point x="22" y="305" type="line"/>
      <point x="22" y="325" type="line"/>
      <point x="30" y="325" type="line"/>
      <point x="69" y="325"/>
      <point x="119" y="403"/>
      <point x="119" y="473" type="qcurve"/>
      <point x="119" y="583" type="line"/>
      <point x="119" y="647"/>
      <point x="195" y="718"/>
      <point x="263" y="718" type="qcurve"/>
      <point x="263" y="698" type="line"/>
      <point x="204" y="698"/>
      <point x="140" y="638"/>
      <point x="140" y="583" type="qcurve"/>
      <point x="140" y="473" type="line" smooth="yes"/>
      <point x="140" y="405"/>
      <point x="98" y="324"/>
    </contour>
  </outline>
</glyph>
<glyph name="bar" format="1">
  <advance width="203.0"/>
  <unicode hex="007C"/>
  <outline>
    <contour>
      <point x="112" y="707" type="line"/>
      <point x="112" y="-80" type="line"/>
      <point x="91" y="-80" type="line"/>
      <point x="91" y="707" type="line"/>
    </contour>
  </outline>
</glyph>
<glyph name="braceright" format="1">
  <advance width="291.0"/>
  <unicode hex="007D"/>
  <outline>
    <contour>
      <point x="232" y="315" type="qcurve"/>
      <point x="232" y="317" type="line"/>
      <point x="193" y="324"/>
      <point x="151" y="405"/>
      <point x="151" y="473" type="qcurve"/>
      <point x="151" y="583" type="line"/>
      <point x="151" y="638"/>
      <point x="87" y="698"/>
      <point x="28" y="698" type="qcurve"/>
      <point x="28" y="718" type="line"/>
      <point x="96" y="718"/>
      <point x="172" y="647"/>
      <point x="172" y="583" type="qcurve"/>
      <point x="172" y="473" type="line" smooth="yes"/>
      <point x="172" y="403"/>
      <point x="222" y="325"/>
      <point x="261" y="325" type="qcurve"/>
      <point x="269" y="325" type="line"/>
      <point x="269" y="305" type="line"/>
      <point x="261" y="305" type="line"/>
      <point x="222" y="305"/>
      <point x="172" y="227"/>
      <point x="172" y="157" type="qcurve"/>
      <point x="172" y="43" type="line"/>
      <point x="172" y="-21"/>
      <point x="96" y="-92"/>
      <point x="28" y="-92" type="qcurve"/>
      <point x="28" y="-72" type="line"/>
      <point x="87" y="-72"/>
      <point x="151" y="-12"/>
      <point x="151" y="43" type="qcurve"/>
      <point x="151" y="157" type="line"/>
      <point x="151" y="226"/>
      <point x="194" y="308"/>
    </contour>
  </outline>
</glyph>
<glyph name="asciitilde" format="1">
  <advance width="665.0"/>
  <unicode hex="007E"/>
  <outline>
    <contour>
      <point x="581" y="458" type="qcurve"/>
      <point x="601" y="458" type="line"/>
      <point x="601" y="357"/>
      <point x="533" y="247"/>
      <point x="469" y="247" type="qcurve"/>
      <point x="438" y="247"/>
      <point x="379" y="287"/>
      <point x="329" y="351" type="qcurve" smooth="yes"/>
      <point x="283" y="410"/>
      <point x="231" y="447"/>
      <point x="204" y="447" type="qcurve"/>
      <point x="144" y="447"/>
      <point x="84" y="350"/>
      <point x="84" y="255" type="qcurve"/>
      <point x="64" y="255" type="line"/>
      <point x="64" y="354"/>
      <point x="137" y="466"/>
      <point x="206" y="466" type="qcurve"/>
      <point x="237" y="466"/>
      <point x="296" y="426"/>
      <point x="346" y="362" type="qcurve" smooth="yes"/>
      <point x="393" y="302"/>
      <point x="445" y="266"/>
      <point x="471" y="266" type="qcurve"/>
      <point x="524" y="266"/>
      <point x="581" y="367"/>
    </contour>
  </outline>
</glyph>
<glyph name="exclamdown" format="1">
  <advance width="188.0"/>
  <unicode hex="00A1"/>
  <outline>
    <contour>
      <point x="82" y="494" type="line"/>
      <point x="106" y="494" type="line"/>
      <point x="106" y="461" type="line"/>
      <point x="82" y="461" type="line"/>
    </contour>
    <contour>
      <point x="102" y="349" type="line"/>
      <point x="106" y="-133" type="line"/>
      <point x="82" y="-133" type="line"/>
      <point x="86" y="349" type="line"/>
    </contour>
  </outline>
</glyph>
<glyph name="cent" format="1">
  <advance width="452.0"/>
  <unicode hex="00A2"/>
  <outline>
    <contour>
      <point x="276" y="72" type="qcurve"/>
      <point x="276" y="-23" type="line"/>
      <point x="256" y="-23" type="line"/>
      <point x="256" y="71" type="line"/>
      <point x="252" y="71"/>
      <point x="244" y="71"/>
      <point x="240" y="71" type="qcurve"/>
      <point x="136" y="71"/>
      <point x="54" y="184"/>
      <point x="54" y="326" type="qcurve" smooth="yes"/>
      <point x="54" y="454"/>
      <point x="148" y="574"/>
      <point x="256" y="580" type="qcurve"/>
      <point x="256" y="671" type="line"/>
      <point x="276" y="671" type="line"/>
      <point x="276" y="581" type="line"/>
      <point x="279" y="581"/>
      <point x="284" y="581"/>
      <point x="286" y="581" type="qcurve"/>
      <point x="312" y="581"/>
      <point x="355" y="578"/>
      <point x="395" y="572" type="qcurve"/>
      <point x="395" y="553" type="line"/>
      <point x="364" y="559"/>
      <point x="317" y="562"/>
      <point x="286" y="562" type="qcurve"/>
      <point x="170" y="562"/>
      <point x="74" y="453"/>
      <point x="74" y="326" type="qcurve" smooth="yes"/>
      <point x="74" y="193"/>
      <point x="149" y="90"/>
      <point x="245" y="90" type="qcurve"/>
      <point x="290" y="90"/>
      <point x="380" y="112"/>
      <point x="408" y="127" type="qcurve"/>
      <point x="408" y="108" type="line"/>
      <point x="389" y="95"/>
      <point x="317" y="75"/>
    </contour>
  </outline>
</glyph>
<glyph name="sterling" format="1">
  <advance width="512.0"/>
  <unicode hex="00A3"/>
  <outline>
    <contour>
      <point x="45" y="289" type="line"/>
      <point x="45" y="309" type="line"/>
      <point x="133" y="309" type="line"/>
      <point x="133" y="456" type="line" smooth="yes"/>
      <point x="133" y="549"/>
      <point x="220" y="637"/>
      <point x="312" y="637" type="qcurve" smooth="yes"/>
      <point x="348" y="637"/>
      <point x="414" y="628"/>
      <point x="455" y="618" type="qcurve"/>
      <point x="455" y="598" type="line"/>
      <point x="403" y="610"/>
      <point x="344" y="617"/>
      <point x="312" y="617" type="qcurve" smooth="yes"/>
      <point x="229" y="617"/>
      <point x="154" y="540"/>
      <point x="154" y="456" type="qcurve"/>
      <point x="154" y="309" type="line"/>
      <point x="421" y="309" type="line"/>
      <point x="421" y="289" type="line"/>
      <point x="154" y="289" type="line"/>
      <point x="154" y="195" type="line"/>
      <point x="154" y="129"/>
      <point x="119" y="48"/>
      <point x="77" y="23" type="qcurve"/>
      <point x="77" y="20" type="line"/>
      <point x="471" y="20" type="line"/>
      <point x="471" y="0" type="line"/>
      <point x="45" y="0" type="line"/>
      <point x="45" y="21" type="line"/>
      <point x="93" y="48"/>
      <point x="133" y="128"/>
      <point x="133" y="195" type="qcurve"/>
      <point x="133" y="289" type="line"/>
    </contour>
  </outline>
</glyph>
<glyph name="currency" format="1">
  <advance width="668.0"/>
  <unicode hex="00A4"/>
  <outline>
    <contour>
      <point x="86" y="53" type="line"/>
      <point x="72" y="67" type="line"/>
      <point x="141" y="136" type="line"/>
      <point x="108" y="171"/>
      <point x="73" y="264"/>
      <point x="73" y="316" type="qcurve" smooth="yes"/>
      <point x="73" y="368"/>
      <point x="109" y="461"/>
      <point x="142" y="496" type="qcurve"/>
      <point x="74" y="564" type="line"/>
      <point x="88" y="578" type="line"/>
      <point x="156" y="510" type="line"/>
      <point x="191" y="542"/>
      <point x="281" y="575"/>
      <point x="332" y="575" type="qcurve" smooth="yes"/>
      <point x="384" y="575"/>
      <point x="476" y="541"/>
      <point x="511" y="509" type="qcurve"/>
      <point x="580" y="578" type="line"/>
      <point x="594" y="563" type="line"/>
      <point x="526" y="495" type="line"/>
      <point x="560" y="459"/>
      <point x="595" y="367"/>
      <point x="595" y="315" type="qcurve" smooth="yes"/>
      <point x="595" y="264"/>
      <point x="560" y="173"/>
      <point x="528" y="138" type="qcurve"/>
      <point x="597" y="69" type="line"/>
      <point x="583" y="55" type="line"/>
      <point x="514" y="124" type="line"/>
      <point x="479" y="91"/>
      <point x="386" y="56"/>
      <point x="334" y="56" type="qcurve" smooth="yes"/>
      <point x="283" y="56"/>
      <point x="191" y="90"/>
      <point x="155" y="122" type="qcurve"/>
    </contour>
    <contour>
      <point x="332" y="556" type="qcurve" smooth="yes"/>
      <point x="230" y="556"/>
      <point x="93" y="418"/>
      <point x="93" y="316" type="qcurve" smooth="yes"/>
      <point x="93" y="213"/>
      <point x="231" y="75"/>
      <point x="334" y="75" type="qcurve" smooth="yes"/>
      <point x="438" y="75"/>
      <point x="575" y="212"/>
      <point x="575" y="316" type="qcurve" smooth="yes"/>
      <point x="575" y="419"/>
      <point x="436" y="556"/>
    </contour>
  </outline>
</glyph>
<glyph name="yen" format="1">
  <advance width="559.0"/>
  <unicode hex="00A5"/>
  <outline>
    <contour>
      <point x="67" y="122" type="line"/>
      <point x="67" y="142" type="line"/>
      <point x="270" y="142" type="line"/>
      <point x="270" y="252" type="line"/>
      <point x="67" y="252" type="line"/>
      <point x="67" y="272" type="line"/>
      <point x="261" y="272" type="line"/>
      <point x="40" y="627" type="line"/>
      <point x="63" y="627" type="line"/>
      <point x="281" y="278" type="line"/>
      <point x="492" y="627" type="line"/>
      <point x="515" y="627" type="line"/>
      <point x="299" y="272" type="line"/>
      <point x="494" y="272" type="line"/>
      <point x="494" y="252" type="line"/>
      <point x="291" y="252" type="line"/>
      <point x="291" y="142" type="line"/>
      <point x="494" y="142" type="line"/>
      <point x="494" y="122" type="line"/>
      <point x="291" y="122" type="line"/>
      <point x="291" y="0" type="line"/>
      <point x="270" y="0" type="line"/>
      <point x="270" y="122" type="line"/>
    </contour>
    <contour>
      <point x="281.0" y="645.0" type="move" name="top"/>
    </contour>
  </outline>
</glyph>
<glyph name="section" format="1">
  <advance width="516.0"/>
  <unicode hex="00A7"/>
  <outline>
    <contour>
      <point x="260" y="618" type="qcurve"/>
      <point x="178" y="618"/>
      <point x="105" y="580"/>
      <point x="105" y="539" type="qcurve"/>
      <point x="105" y="513"/>
      <point x="139" y="480"/>
      <point x="183" y="464" type="qcurve"/>
      <point x="395" y="386" type="line" smooth="yes"/>
      <point x="438" y="370"/>
      <point x="470" y="328"/>
      <point x="470" y="291" type="qcurve"/>
      <point x="470" y="254"/>
      <point x="424" y="192"/>
      <point x="377" y="166" type="qcurve"/>
      <point x="406" y="151"/>
      <point x="431" y="116"/>
      <point x="431" y="90" type="qcurve"/>
      <point x="431" y="39"/>
      <point x="346" y="-10"/>
      <point x="256" y="-10" type="qcurve"/>
      <point x="211" y="-10"/>
      <point x="131" y="0"/>
      <point x="98" y="10" type="qcurve"/>
      <point x="98" y="31" type="line"/>
      <point x="129" y="20"/>
      <point x="213" y="8"/>
      <point x="256" y="9" type="qcurve"/>
      <point x="338" y="9"/>
      <point x="411" y="47"/>
      <point x="411" y="88" type="qcurve"/>
      <point x="411" y="114"/>
      <point x="377" y="147"/>
      <point x="333" y="163" type="qcurve"/>
      <point x="121" y="241" type="line" smooth="yes"/>
      <point x="78" y="257"/>
      <point x="46" y="299"/>
      <point x="46" y="336" type="qcurve"/>
      <point x="46" y="373"/>
      <point x="92" y="435"/>
      <point x="139" y="461" type="qcurve"/>
      <point x="110" y="476"/>
      <point x="85" y="511"/>
      <point x="85" y="537" type="qcurve"/>
      <point x="85" y="588"/>
      <point x="170" y="637"/>
      <point x="260" y="637" type="qcurve"/>
      <point x="305" y="637"/>
      <point x="385" y="627"/>
      <point x="418" y="617" type="qcurve"/>
      <point x="418" y="596" type="line"/>
      <point x="387" y="607"/>
      <point x="303" y="619"/>
    </contour>
    <contour>
      <point x="132" y="258" type="qcurve"/>
      <point x="341" y="181" type="line" smooth="yes"/>
      <point x="348" y="179"/>
      <point x="355" y="176"/>
      <point x="358" y="174" type="qcurve"/>
      <point x="406" y="200"/>
      <point x="450" y="256"/>
      <point x="450" y="288" type="qcurve"/>
      <point x="450" y="320"/>
      <point x="423" y="355"/>
      <point x="384" y="369" type="qcurve"/>
      <point x="175" y="446" type="line" smooth="yes"/>
      <point x="168" y="448"/>
      <point x="161" y="451"/>
      <point x="158" y="453" type="qcurve"/>
      <point x="110" y="427"/>
      <point x="66" y="371"/>
      <point x="66" y="339" type="qcurve"/>
      <point x="66" y="307"/>
      <point x="93" y="272"/>
    </contour>
  </outline>
</glyph>
<glyph name="copyright" format="1">
  <advance width="736.0"/>
  <unicode hex="00A9"/>
  <outline>
    <contour>
      <point x="674" y="314" type="qcurve"/>
      <point x="674" y="151"/>
      <point x="523" y="-10"/>
      <point x="369" y="-10" type="qcurve"/>
      <point x="214" y="-10"/>
      <point x="62" y="150"/>
      <point x="62" y="314" type="qcurve"/>
      <point x="62" y="477"/>
      <point x="214" y="637"/>
      <point x="369" y="637" type="qcurve"/>
      <point x="523" y="637"/>
      <point x="674" y="477"/>
    </contour>
    <contour>
      <point x="655" y="314" type="qcurve"/>
      <point x="655" y="467"/>
      <point x="513" y="618"/>
      <point x="369" y="618" type="qcurve"/>
      <point x="224" y="618"/>
      <point x="82" y="467"/>
      <point x="82" y="314" type="qcurve"/>
      <point x="82" y="160"/>
      <point x="224" y="9"/>
      <point x="369" y="9" type="qcurve"/>
      <point x="513" y="9"/>
      <point x="655" y="160"/>
    </contour>
    <contour>
      <point x="383" y="156" type="qcurve"/>
      <point x="407" y="156"/>
      <point x="456" y="167"/>
      <point x="480" y="177" type="qcurve"/>
      <point x="480" y="158" type="line"/>
      <point x="461" y="148"/>
      <point x="408" y="137"/>
      <point x="378" y="137" type="qcurve"/>
      <point x="282" y="137"/>
      <point x="207" y="217"/>
      <point x="207" y="316" type="qcurve" smooth="yes"/>
      <point x="207" y="408"/>
      <point x="294" y="494"/>
      <point x="387" y="494" type="qcurve"/>
      <point x="408" y="494"/>
      <point x="448" y="489"/>
      <point x="471" y="484" type="qcurve"/>
      <point x="471" y="465" type="line"/>
      <point x="451" y="470"/>
      <point x="411" y="475"/>
      <point x="386" y="475" type="qcurve"/>
      <point x="301" y="475"/>
      <point x="227" y="400"/>
      <point x="227" y="316" type="qcurve" smooth="yes"/>
      <point x="227" y="226"/>
      <point x="294" y="156"/>
    </contour>
  </outline>
</glyph>
<glyph name="ordfeminine" format="1">
  <advance width="374.0"/>
  <unicode hex="00AA"/>
  <outline>
    <contour>
      <point x="160" y="351" type="qcurve"/>
      <point x="114" y="351"/>
      <point x="71" y="392"/>
      <point x="71" y="435" type="qcurve"/>
      <point x="71" y="477"/>
      <point x="122" y="514"/>
      <point x="182" y="514" type="qcurve"/>
      <point x="204" y="514"/>
      <point x="245" y="511"/>
      <point x="272" y="507" type="qcurve"/>
      <point x="272" y="538" type="line" smooth="yes"/>
      <point x="272" y="583"/>
      <point x="231" y="618"/>
      <point x="186" y="618" type="qcurve" smooth="yes"/>
      <point x="159" y="618"/>
      <point x="121" y="614"/>
      <point x="100" y="608" type="qcurve"/>
      <point x="100" y="628" type="line"/>
      <point x="122" y="633"/>
      <point x="163" y="637"/>
      <point x="189" y="637" type="qcurve"/>
      <point x="242" y="637"/>
      <point x="292" y="591"/>
      <point x="292" y="539" type="qcurve"/>
      <point x="292" y="355" type="line"/>
      <point x="275" y="355" type="line"/>
      <point x="274" y="386" type="line"/>
      <point x="273" y="386" type="line"/>
      <point x="250" y="370"/>
      <point x="190" y="351"/>
    </contour>
    <contour>
      <point x="183" y="495" type="qcurve"/>
      <point x="132" y="495"/>
      <point x="91" y="468"/>
      <point x="91" y="436" type="qcurve"/>
      <point x="91" y="401"/>
      <point x="125" y="370"/>
      <point x="163" y="370" type="qcurve"/>
      <point x="193" y="370"/>
      <point x="256" y="390"/>
      <point x="272" y="403" type="qcurve"/>
      <point x="272" y="488" type="line"/>
      <point x="250" y="492"/>
      <point x="207" y="495"/>
    </contour>
    <contour>
      <point x="294" y="277" type="line"/>
      <point x="74" y="277" type="line"/>
      <point x="74" y="296" type="line"/>
      <point x="294" y="296" type="line"/>
    </contour>
  </outline>
</glyph>
<glyph name="logicalnot" format="1">
  <advance width="500.0"/>
  <unicode hex="00AC"/>
  <outline>
    <contour>
      <point x="463" y="392" type="line"/>
      <point x="463" y="150" type="line"/>
      <point x="443" y="150" type="line"/>
      <point x="443" y="372" type="line"/>
      <point x="37" y="372" type="line"/>
      <point x="37" y="392" type="line"/>
    </contour>
  </outline>
</glyph>
<glyph name="registered" format="1">
  <advance width="472.0"/>
  <unicode hex="00AE"/>
  <outline>
    <contour>
      <point x="413" y="454" type="qcurve"/>
      <point x="413" y="360"/>
      <point x="326" y="270"/>
      <point x="237" y="270" type="qcurve"/>
      <point x="147" y="270"/>
      <point x="60" y="360"/>
      <point x="60" y="454" type="qcurve"/>
      <point x="60" y="547"/>
      <point x="147" y="637"/>
      <point x="237" y="637" type="qcurve"/>
      <point x="326" y="637"/>
      <point x="413" y="547"/>
    </contour>
    <contour>
      <point x="393" y="454" type="qcurve"/>
      <point x="393" y="537"/>
      <point x="316" y="618"/>
      <point x="237" y="618" type="qcurve"/>
      <point x="157" y="618"/>
      <point x="80" y="537"/>
      <point x="80" y="454" type="qcurve"/>
      <point x="80" y="370"/>
      <point x="157" y="289"/>
      <point x="237" y="289" type="qcurve"/>
      <point x="316" y="289"/>
      <point x="393" y="370"/>
    </contour>
    <contour>
      <point x="190" y="429" type="line"/>
      <point x="190" y="354" type="line"/>
      <point x="170" y="354" type="line"/>
      <point x="170" y="556" type="line"/>
      <point x="237" y="556" type="line" smooth="yes"/>
      <point x="279" y="556"/>
      <point x="315" y="527"/>
      <point x="315" y="494" type="qcurve"/>
      <point x="315" y="467"/>
      <point x="291" y="436"/>
      <point x="266" y="431" type="qcurve"/>
      <point x="320" y="354" type="line"/>
      <point x="295" y="354" type="line"/>
      <point x="244" y="429" type="line"/>
      <point x="238" y="429" type="line"/>
    </contour>
    <contour>
      <point x="295" y="494" type="qcurve"/>
      <point x="295" y="516"/>
      <point x="267" y="537"/>
      <point x="237" y="537" type="qcurve"/>
      <point x="190" y="537" type="line"/>
      <point x="190" y="446" type="line"/>
      <point x="237" y="446" type="line" smooth="yes"/>
      <point x="267" y="446"/>
      <point x="295" y="469"/>
    </contour>
  </outline>
</glyph>
<glyph name="macron" format="1">
  <advance width="333.0"/>
  <unicode hex="00AF"/>
  <outline>
    <contour>
      <point x="283" y="595" type="line"/>
      <point x="283" y="576" type="line"/>
      <point x="50" y="576" type="line"/>
      <point x="50" y="595" type="line"/>
    </contour>
    <contour>
      <point x="167" y="530" type="move" name="_top"/>
    </contour>
  </outline>
</glyph>
<glyph name="degree" format="1">
  <advance width="376.0"/>
  <unicode hex="00B0"/>
  <outline>
    <contour>
      <point x="320" y="500" type="qcurve" smooth="yes"/>
      <point x="320" y="439"/>
      <point x="248" y="366"/>
      <point x="188" y="366" type="qcurve" smooth="yes"/>
      <point x="128" y="366"/>
      <point x="56" y="439"/>
      <point x="56" y="500" type="qcurve" smooth="yes"/>
      <point x="56" y="560"/>
      <point x="128" y="634"/>
      <point x="188" y="634" type="qcurve" smooth="yes"/>
      <point x="248" y="634"/>
      <point x="320" y="560"/>
    </contour>
    <contour>
      <point x="76" y="500" type="qcurve" smooth="yes"/>
      <point x="76" y="447"/>
      <point x="137" y="385"/>
      <point x="188" y="385" type="qcurve" smooth="yes"/>
      <point x="239" y="385"/>
      <point x="300" y="447"/>
      <point x="300" y="500" type="qcurve" smooth="yes"/>
      <point x="300" y="551"/>
      <point x="238" y="615"/>
      <point x="188" y="615" type="qcurve" smooth="yes"/>
      <point x="138" y="615"/>
      <point x="76" y="551"/>
    </contour>
  </outline>
</glyph>
<glyph name="plusminus" format="1">
  <advance width="500.0"/>
  <unicode hex="00B1"/>
  <outline>
    <contour>
      <point x="463" y="421" type="line"/>
      <point x="463" y="401" type="line"/>
      <point x="260" y="401" type="line"/>
      <point x="260" y="219" type="line"/>
      <point x="240" y="219" type="line"/>
      <point x="240" y="401" type="line"/>
      <point x="37" y="401" type="line"/>
      <point x="37" y="421" type="line"/>
      <point x="240" y="421" type="line"/>
      <point x="240" y="601" type="line"/>
      <point x="260" y="601" type="line"/>
      <point x="260" y="421" type="line"/>
    </contour>
    <contour>
      <point x="463" y="110" type="line"/>
      <point x="463" y="90" type="line"/>
      <point x="37" y="90" type="line"/>
      <point x="37" y="110" type="line"/>
    </contour>
  </outline>
</glyph>
<glyph name="uni00B2" format="1">
  <advance width="297.0"/>
  <unicode hex="00B2"/>
  <outline>
    <contour>
      <point x="257" y="290" type="line"/>
      <point x="257" y="270" type="line"/>
      <point x="31" y="270" type="line"/>
      <point x="31" y="290" type="line"/>
      <point x="176" y="445" type="line" smooth="yes"/>
      <point x="203" y="474"/>
      <point x="226" y="521"/>
      <point x="226" y="546" type="qcurve"/>
      <point x="226" y="579"/>
      <point x="186" y="614"/>
      <point x="149" y="614" type="qcurve"/>
      <point x="124" y="614"/>
      <point x="69" y="607"/>
      <point x="50" y="601" type="qcurve"/>
      <point x="50" y="620" type="line"/>
      <point x="73" y="627"/>
      <point x="123" y="633"/>
      <point x="149" y="633" type="qcurve"/>
      <point x="197" y="633"/>
      <point x="247" y="589"/>
      <point x="247" y="547" type="qcurve"/>
      <point x="247" y="518"/>
      <point x="222" y="466"/>
      <point x="194" y="436" type="qcurve"/>
      <point x="57" y="290" type="line"/>
    </contour>
  </outline>
</glyph>
<glyph name="uni00B3" format="1">
  <advance width="306.0"/>
  <unicode hex="00B3"/>
  <outline>
    <contour>
      <point x="243" y="545" type="qcurve"/>
      <point x="243" y="512"/>
      <point x="206" y="466"/>
      <point x="176" y="459" type="qcurve"/>
      <point x="176" y="457" type="line"/>
      <point x="217" y="455"/>
      <point x="261" y="408"/>
      <point x="261" y="368" type="qcurve"/>
      <point x="261" y="318"/>
      <point x="197" y="266"/>
      <point x="136" y="266" type="qcurve"/>
      <point x="104" y="266"/>
      <point x="58" y="271"/>
      <point x="36" y="277" type="qcurve"/>
      <point x="36" y="296" type="line"/>
      <point x="55" y="291"/>
      <point x="101" y="286"/>
      <point x="135" y="286" type="qcurve"/>
      <point x="187" y="286"/>
      <point x="241" y="328"/>
      <point x="241" y="368" type="qcurve"/>
      <point x="241" y="408"/>
      <point x="193" y="445"/>
      <point x="142" y="445" type="qcurve"/>
      <point x="86" y="445" type="line"/>
      <point x="86" y="463" type="line"/>
      <point x="131" y="463" type="line"/>
      <point x="172" y="463"/>
      <point x="223" y="505"/>
      <point x="223" y="543" type="qcurve"/>
      <point x="223" y="579"/>
      <point x="183" y="614"/>
      <point x="142" y="614" type="qcurve"/>
      <point x="117" y="614"/>
      <point x="69" y="608"/>
      <point x="50" y="602" type="qcurve"/>
      <point x="50" y="621" type="line"/>
      <point x="74" y="628"/>
      <point x="119" y="633"/>
      <point x="145" y="633" type="qcurve"/>
      <point x="194" y="633"/>
      <point x="243" y="589"/>
    </contour>
  </outline>
</glyph>
<glyph name="paragraph" format="1">
  <advance width="491.0"/>
  <unicode hex="00B6"/>
  <outline>
    <contour>
      <point x="402" y="627" type="qcurve"/>
      <point x="402" y="-5" type="line" smooth="yes"/>
      <point x="402" y="-84"/>
      <point x="333" y="-162"/>
      <point x="262" y="-162" type="qcurve"/>
      <point x="241" y="-162"/>
      <point x="205" y="-159"/>
      <point x="187" y="-156" type="qcurve"/>
      <point x="187" y="-137" type="line"/>
      <point x="206" y="-140"/>
      <point x="240" y="-143"/>
      <point x="258" y="-143" type="qcurve"/>
      <point x="322" y="-143"/>
      <point x="382" y="-77"/>
      <point x="382" y="-5" type="qcurve"/>
      <point x="382" y="156" type="line"/>
      <point x="354" y="143"/>
      <point x="276" y="129"/>
      <point x="233" y="129" type="qcurve"/>
      <point x="129" y="129"/>
      <point x="47" y="242"/>
      <point x="47" y="384" type="qcurve" smooth="yes"/>
      <point x="47" y="520"/>
      <point x="154" y="639"/>
      <point x="279" y="639" type="qcurve"/>
      <point x="311" y="639"/>
      <point x="366" y="634"/>
    </contour>
    <contour>
      <point x="279" y="620" type="qcurve"/>
      <point x="163" y="620"/>
      <point x="67" y="511"/>
      <point x="67" y="384" type="qcurve" smooth="yes"/>
      <point x="67" y="251"/>
      <point x="142" y="148"/>
      <point x="238" y="148" type="qcurve"/>
      <point x="275" y="148"/>
      <point x="351" y="163"/>
      <point x="382" y="176" type="qcurve"/>
      <point x="382" y="612" type="line"/>
      <point x="358" y="617"/>
      <point x="311" y="620"/>
    </contour>
  </outline>
</glyph>
<glyph name="cedilla" format="1">
  <advance width="318.0"/>
  <unicode hex="00B8"/>
  <outline>
    <contour>
      <point x="275" y="-122" type="qcurve"/>
      <point x="275" y="-161"/>
      <point x="226" y="-195"/>
      <point x="171" y="-195" type="qcurve" smooth="yes"/>
      <point x="136" y="-195"/>
      <point x="82" y="-189"/>
      <point x="60" y="-183" type="qcurve"/>
      <point x="60" y="-164" type="line"/>
      <point x="81" y="-170"/>
      <point x="138" y="-176"/>
      <point x="175" y="-176" type="qcurve" smooth="yes"/>
      <point x="219" y="-176"/>
      <point x="255" y="-153"/>
      <point x="255" y="-122" type="qcurve"/>
      <point x="255" y="-97"/>
      <point x="213" y="-74"/>
      <point x="167" y="-74" type="qcurve"/>
      <point x="157" y="-74"/>
      <point x="131" y="-75"/>
      <point x="118" y="-76" type="qcurve"/>
      <point x="137" y="9" type="line"/>
      <point x="158" y="8" type="line"/>
      <point x="142" y="-58" type="line"/>
      <point x="210" y="-54"/>
      <point x="274" y="-85"/>
    </contour>
    <contour>
      <point x="149" y="0" type="move" name="_bottom"/>
    </contour>
  </outline>
</glyph>
<glyph name="ordmasculine" format="1">
  <advance width="406.0"/>
  <unicode hex="00BA"/>
  <outline>
    <contour>
      <point x="332" y="494" type="qcurve" smooth="yes"/>
      <point x="332" y="420"/>
      <point x="270" y="351"/>
      <point x="204" y="351" type="qcurve" smooth="yes"/>
      <point x="133" y="351"/>
      <point x="75" y="415"/>
      <point x="75" y="494" type="qcurve" smooth="yes"/>
      <point x="75" y="569"/>
      <point x="136" y="637"/>
      <point x="204" y="637" type="qcurve" smooth="yes"/>
      <point x="274" y="637"/>
      <point x="332" y="572"/>
    </contour>
    <contour>
      <point x="96" y="494" type="qcurve" smooth="yes"/>
      <point x="96" y="424"/>
      <point x="143" y="370"/>
      <point x="204" y="370" type="qcurve" smooth="yes"/>
      <point x="261" y="370"/>
      <point x="311" y="427"/>
      <point x="311" y="494" type="qcurve" smooth="yes"/>
      <point x="311" y="564"/>
      <point x="264" y="618"/>
      <point x="204" y="618" type="qcurve" smooth="yes"/>
      <point x="145" y="618"/>
      <point x="96" y="562"/>
    </contour>
    <contour>
      <point x="324" y="277" type="line"/>
      <point x="81" y="277" type="line"/>
      <point x="81" y="296" type="line"/>
      <point x="324" y="296" type="line"/>
    </contour>
  </outline>
</glyph>
<glyph name="guillemotright" format="1">
  <advance width="451.0"/>
  <unicode hex="00BB"/>
  <outline>
    <contour>
      <point x="414" y="281" type="line"/>
      <point x="265" y="64" type="line"/>
      <point x="244" y="64" type="line"/>
      <point x="392" y="281" type="line"/>
      <point x="244" y="494" type="line"/>
      <point x="265" y="494" type="line"/>
    </contour>
    <contour>
      <point x="220" y="281" type="line"/>
      <point x="71" y="64" type="line"/>
      <point x="50" y="64" type="line"/>
      <point x="198" y="281" type="line"/>
      <point x="50" y="494" type="line"/>
      <point x="71" y="494" type="line"/>
    </contour>
  </outline>
</glyph>
<glyph name="questiondown" format="1">
  <advance width="397.0"/>
  <unicode hex="00BF"/>
  <outline>
    <contour>
      <point x="227" y="461" type="line"/>
      <point x="227" y="494" type="line"/>
      <point x="251" y="494" type="line"/>
      <point x="251" y="461" type="line"/>
    </contour>
    <contour>
      <point x="213" y="-143" type="qcurve"/>
      <point x="131" y="-143"/>
      <point x="41" y="-74"/>
      <point x="41" y="-10" type="qcurve" smooth="yes"/>
      <point x="41" y="50"/>
      <point x="131" y="151"/>
      <point x="228" y="197" type="qcurve"/>
      <point x="228" y="349" type="line"/>
      <point x="248" y="349" type="line"/>
      <point x="248" y="186" type="line"/>
      <point x="149" y="141"/>
      <point x="61" y="46"/>
      <point x="61" y="-10" type="qcurve" smooth="yes"/>
      <point x="61" y="-65"/>
      <point x="141" y="-124"/>
      <point x="213" y="-124" type="qcurve"/>
      <point x="256" y="-124"/>
      <point x="337" y="-109"/>
      <point x="373" y="-94" type="qcurve"/>
      <point x="373" y="-114" type="line"/>
      <point x="337" y="-128"/>
      <point x="255" y="-143"/>
    </contour>
  </outline>
</glyph>
<glyph name="AE" format="1">
  <advance width="745.0"/>
  <unicode hex="00C6"/>
  <outline>
    <contour>
      <point x="46" y="0" type="line"/>
      <point x="23" y="0" type="line"/>
      <point x="275" y="627" type="line"/>
      <point x="693" y="627" type="line"/>
      <point x="693" y="607" type="line"/>
      <point x="305" y="607" type="line"/>
      <point x="415" y="334" type="line"/>
      <point x="656" y="334" type="line"/>
      <point x="656" y="314" type="line"/>
      <point x="423" y="314" type="line"/>
      <point x="541" y="20" type="line"/>
      <point x="702" y="20" type="line"/>
      <point x="702" y="0" type="line"/>
      <point x="526" y="0" type="line"/>
      <point x="449" y="193" type="line"/>
      <point x="123" y="193" type="line"/>
    </contour>
    <contour>
      <point x="286" y="607" type="qcurve"/>
      <point x="282" y="593"/>
      <point x="257" y="527"/>
      <point x="237" y="476" type="qcurve"/>
      <point x="131" y="213" type="line"/>
      <point x="441" y="213" type="line"/>
      <point x="335" y="476" type="line" smooth="yes"/>
      <point x="315" y="527"/>
      <point x="290" y="593"/>
    </contour>
    <contour>
      <point x="484.0" y="645" type="move" name="top"/>
    </contour>
    <contour>
      <point x="589.0" y="3.0" type="move" name="bottom"/>
    </contour>
  </outline>
</glyph>
<glyph name="Ccedilla" format="1">
  <advance width="535.0"/>
  <unicode hex="00C7"/>
  <outline>
    <contour>
      <point x="436" y="-122" type="qcurve"/>
      <point x="436" y="-161"/>
      <point x="387" y="-195"/>
      <point x="332" y="-195" type="qcurve" smooth="yes"/>
      <point x="297" y="-195"/>
      <point x="243" y="-189"/>
      <point x="221" y="-183" type="qcurve"/>
      <point x="221" y="-164" type="line"/>
      <point x="242" y="-170"/>
      <point x="299" y="-176"/>
      <point x="336" y="-176" type="qcurve" smooth="yes"/>
      <point x="380" y="-176"/>
      <point x="416" y="-153"/>
      <point x="416" y="-122" type="qcurve"/>
      <point x="416" y="-97"/>
      <point x="374" y="-74"/>
      <point x="328" y="-74" type="qcurve"/>
      <point x="318" y="-74"/>
      <point x="292" y="-75"/>
      <point x="279" y="-76" type="qcurve"/>
      <point x="295" y="-6" type="line"/>
      <point x="171" y="0"/>
      <point x="64" y="151"/>
      <point x="64" y="316" type="qcurve" smooth="yes"/>
      <point x="64" y="482"/>
      <point x="195" y="637"/>
      <point x="337" y="637" type="qcurve"/>
      <point x="383" y="637"/>
      <point x="455" y="633"/>
      <point x="484" y="628" type="qcurve"/>
      <point x="484" y="607" type="line"/>
      <point x="448" y="612"/>
      <point x="377" y="617"/>
      <point x="337" y="617" type="qcurve"/>
      <point x="203" y="617"/>
      <point x="85" y="474"/>
      <point x="85" y="316" type="qcurve" smooth="yes"/>
      <point x="85" y="149"/>
      <point x="191" y="14"/>
      <point x="327" y="14" type="qcurve" smooth="yes"/>
      <point x="369" y="14"/>
      <point x="457" y="34"/>
      <point x="498" y="53" type="qcurve"/>
      <point x="498" y="33" type="line"/>
      <point x="444" y="11"/>
      <point x="360" y="-6"/>
      <point x="317" y="-6" type="qcurve"/>
      <point x="316" y="-6" type="line"/>
      <point x="303" y="-58" type="line"/>
      <point x="371" y="-54"/>
      <point x="435" y="-85"/>
    </contour>
  </outline>
</glyph>
<glyph name="multiply" format="1">
  <advance width="500.0"/>
  <unicode hex="00D7"/>
  <outline>
    <contour>
      <point x="54" y="505" type="line"/>
      <point x="68" y="519" type="line"/>
      <point x="251" y="337" type="line"/>
      <point x="435" y="521" type="line"/>
      <point x="449" y="506" type="line"/>
      <point x="265" y="322" type="line"/>
      <point x="449" y="138" type="line"/>
      <point x="435" y="124" type="line"/>
      <point x="251" y="308" type="line"/>
      <point x="66" y="123" type="line"/>
      <point x="51" y="137" type="line"/>
      <point x="237" y="323" type="line"/>
    </contour>
  </outline>
</glyph>
<glyph name="Oslash" format="1">
  <advance width="662.0"/>
  <unicode hex="00D8"/>
  <outline>
    <contour>
      <point x="84" y="-43" type="line"/>
      <point x="67" y="-32" type="line"/>
      <point x="128" y="55" type="line"/>
      <point x="95" y="91"/>
      <point x="65" y="216"/>
      <point x="65" y="316" type="qcurve"/>
      <point x="65" y="485"/>
      <point x="190" y="637"/>
      <point x="332" y="637" type="qcurve"/>
      <point x="394" y="637"/>
      <point x="477" y="619"/>
      <point x="506" y="600" type="qcurve"/>
      <point x="565" y="686" type="line"/>
      <point x="582" y="675" type="line"/>
      <point x="522" y="589" type="line"/>
      <point x="561" y="555"/>
      <point x="597" y="425"/>
      <point x="597" y="316" type="qcurve"/>
      <point x="597" y="146"/>
      <point x="473" y="-6"/>
      <point x="332" y="-6" type="qcurve"/>
      <point x="263" y="-6"/>
      <point x="172" y="17"/>
      <point x="142" y="41" type="qcurve"/>
    </contour>
    <contour>
      <point x="332" y="617" type="qcurve"/>
      <point x="199" y="617"/>
      <point x="86" y="477"/>
      <point x="86" y="316" type="qcurve"/>
      <point x="86" y="220"/>
      <point x="112" y="105"/>
      <point x="140" y="72" type="qcurve"/>
      <point x="495" y="584" type="line"/>
      <point x="469" y="601"/>
      <point x="392" y="617"/>
    </contour>
    <contour>
      <point x="332" y="14" type="qcurve" smooth="yes"/>
      <point x="464" y="14"/>
      <point x="576" y="155"/>
      <point x="576" y="316" type="qcurve"/>
      <point x="576" y="421"/>
      <point x="545" y="542"/>
      <point x="510" y="572" type="qcurve"/>
      <point x="154" y="58" type="line"/>
      <point x="181" y="35"/>
      <point x="264" y="14"/>
    </contour>
    <contour>
      <point x="332.0" y="655" type="move" name="top"/>
    </contour>
  </outline>
</glyph>
<glyph name="Thorn" format="1">
  <advance width="581.0"/>
  <unicode hex="00DE"/>
  <outline>
    <contour>
      <point x="114" y="118" type="line"/>
      <point x="114" y="0" type="line"/>
      <point x="93" y="0" type="line"/>
      <point x="93" y="627" type="line"/>
      <point x="114" y="627" type="line"/>
      <point x="114" y="517" type="line"/>
      <point x="292" y="517" type="line" smooth="yes"/>
      <point x="414" y="517"/>
      <point x="523" y="426"/>
      <point x="523" y="325" type="qcurve"/>
      <point x="523" y="220"/>
      <point x="411" y="118"/>
      <point x="295" y="118" type="qcurve"/>
    </contour>
    <contour>
      <point x="502" y="325" type="qcurve"/>
      <point x="502" y="416"/>
      <point x="403" y="497"/>
      <point x="292" y="497" type="qcurve"/>
      <point x="114" y="497" type="line"/>
      <point x="114" y="137" type="line"/>
      <point x="292" y="137" type="line" smooth="yes"/>
      <point x="400" y="137"/>
      <point x="502" y="229"/>
    </contour>
  </outline>
</glyph>
<glyph name="germandbls" format="1">
  <advance width="592.0"/>
  <unicode hex="00DF"/>
  <outline>
    <contour>
      <point x="270" y="677" type="qcurve"/>
      <point x="358" y="677"/>
      <point x="442" y="613"/>
      <point x="442" y="545" type="qcurve" smooth="yes"/>
      <point x="442" y="522"/>
      <point x="431" y="470"/>
      <point x="419" y="436" type="qcurve"/>
      <point x="383" y="336" type="line"/>
      <point x="449" y="313" type="line" smooth="yes"/>
      <point x="500" y="295"/>
      <point x="538" y="233"/>
      <point x="538" y="174" type="qcurve" smooth="yes"/>
      <point x="538" y="78"/>
      <point x="459" y="-10"/>
      <point x="369" y="-10" type="qcurve" smooth="yes"/>
      <point x="335" y="-10"/>
      <point x="274" y="-3"/>
      <point x="253" y="3" type="qcurve"/>
      <point x="253" y="23" type="line"/>
      <point x="282" y="15"/>
      <point x="336" y="9"/>
      <point x="369" y="9" type="qcurve" smooth="yes"/>
      <point x="450" y="9"/>
      <point x="518" y="87"/>
      <point x="518" y="174" type="qcurve" smooth="yes"/>
      <point x="518" y="226"/>
      <point x="486" y="279"/>
      <point x="443" y="294" type="qcurve"/>
      <point x="357" y="324" type="line"/>
      <point x="399" y="439" type="line" smooth="yes"/>
      <point x="411" y="471"/>
      <point x="422" y="523"/>
      <point x="422" y="545" type="qcurve" smooth="yes"/>
      <point x="422" y="604"/>
      <point x="349" y="658"/>
      <point x="270" y="658" type="qcurve"/>
      <point x="180" y="658"/>
      <point x="105" y="585"/>
      <point x="105" y="493" type="qcurve"/>
      <point x="105" y="0" type="line"/>
      <point x="85" y="0" type="line"/>
      <point x="85" y="493" type="line" smooth="yes"/>
      <point x="85" y="592"/>
      <point x="171" y="677"/>
    </contour>
  </outline>
</glyph>
<glyph name="ae" format="1">
  <advance width="799.0"/>
  <unicode hex="00E6"/>
  <outline>
    <contour>
      <point x="194" y="-6" type="qcurve"/>
      <point x="118" y="-6"/>
      <point x="47" y="62"/>
      <point x="47" y="134" type="qcurve"/>
      <point x="47" y="205"/>
      <point x="128" y="265"/>
      <point x="226" y="265" type="qcurve"/>
      <point x="378" y="265" type="line"/>
      <point x="378" y="327" type="line" smooth="yes"/>
      <point x="378" y="414"/>
      <point x="313" y="485"/>
      <point x="238" y="485" type="qcurve" smooth="yes"/>
      <point x="201" y="485"/>
      <point x="140" y="477"/>
      <point x="99" y="466" type="qcurve"/>
      <point x="99" y="486" type="line"/>
      <point x="147" y="497"/>
      <point x="206" y="504"/>
      <point x="244" y="504" type="qcurve" smooth="yes"/>
      <point x="314" y="504"/>
      <point x="385" y="444"/>
      <point x="392" y="378" type="qcurve"/>
      <point x="411" y="443"/>
      <point x="498" y="504"/>
      <point x="572" y="504" type="qcurve"/>
      <point x="660" y="504"/>
      <point x="744" y="405"/>
      <point x="744" y="302" type="qcurve"/>
      <point x="744" y="290"/>
      <point x="742" y="262"/>
      <point x="740" y="246" type="qcurve"/>
      <point x="398" y="246" type="line"/>
      <point x="398" y="122"/>
      <point x="480" y="13"/>
      <point x="578" y="13" type="qcurve" smooth="yes"/>
      <point x="614" y="13"/>
      <point x="694" y="32"/>
      <point x="723" y="47" type="qcurve"/>
      <point x="723" y="27" type="line"/>
      <point x="690" y="12"/>
      <point x="611" y="-6"/>
      <point x="574" y="-6" type="qcurve" smooth="yes"/>
      <point x="511" y="-6"/>
      <point x="430" y="35"/>
      <point x="408" y="78" type="qcurve"/>
      <point x="363" y="36"/>
      <point x="255" y="-6"/>
    </contour>
    <contour>
      <point x="724" y="302" type="qcurve"/>
      <point x="724" y="398"/>
      <point x="651" y="485"/>
      <point x="572" y="485" type="qcurve"/>
      <point x="480" y="485"/>
      <point x="398" y="382"/>
      <point x="398" y="265" type="qcurve"/>
      <point x="722" y="265" type="line"/>
      <point x="723" y="274"/>
      <point x="724" y="292"/>
    </contour>
    <contour>
      <point x="67" y="135" type="qcurve"/>
      <point x="67" y="71"/>
      <point x="130" y="13"/>
      <point x="199" y="13" type="qcurve"/>
      <point x="254" y="13"/>
      <point x="356" y="54"/>
      <point x="401" y="95" type="qcurve"/>
      <point x="389" y="123"/>
      <point x="378" y="198"/>
      <point x="378" y="246" type="qcurve"/>
      <point x="226" y="246" type="line" smooth="yes"/>
      <point x="137" y="246"/>
      <point x="67" y="196"/>
    </contour>
    <contour>
      <point x="395.0" y="530.0" type="move" name="top"/>
    </contour>
  </outline>
</glyph>
<glyph name="ccedilla" format="1">
  <advance width="454.0"/>
  <unicode hex="00E7"/>
  <outline>
    <contour>
      <point x="377" y="-122" type="qcurve"/>
      <point x="377" y="-161"/>
      <point x="328" y="-195"/>
      <point x="273" y="-195" type="qcurve" smooth="yes"/>
      <point x="238" y="-195"/>
      <point x="184" y="-189"/>
      <point x="162" y="-183" type="qcurve"/>
      <point x="162" y="-164" type="line"/>
      <point x="183" y="-170"/>
      <point x="240" y="-176"/>
      <point x="277" y="-176" type="qcurve" smooth="yes"/>
      <point x="321" y="-176"/>
      <point x="357" y="-153"/>
      <point x="357" y="-122" type="qcurve"/>
      <point x="357" y="-97"/>
      <point x="315" y="-74"/>
      <point x="269" y="-74" type="qcurve"/>
      <point x="259" y="-74"/>
      <point x="233" y="-75"/>
      <point x="220" y="-76" type="qcurve"/>
      <point x="236" y="-6" type="line"/>
      <point x="140" y="-3"/>
      <point x="62" y="110"/>
      <point x="62" y="249" type="qcurve" smooth="yes"/>
      <point x="62" y="385"/>
      <point x="169" y="504"/>
      <point x="294" y="504" type="qcurve"/>
      <point x="320" y="504"/>
      <point x="363" y="501"/>
      <point x="403" y="495" type="qcurve"/>
      <point x="403" y="476" type="line"/>
      <point x="372" y="482"/>
      <point x="325" y="485"/>
      <point x="294" y="485" type="qcurve"/>
      <point x="178" y="485"/>
      <point x="82" y="376"/>
      <point x="82" y="249" type="qcurve" smooth="yes"/>
      <point x="82" y="116"/>
      <point x="157" y="13"/>
      <point x="253" y="13" type="qcurve"/>
      <point x="298" y="13"/>
      <point x="388" y="35"/>
      <point x="416" y="50" type="qcurve"/>
      <point x="416" y="31" type="line"/>
      <point x="391" y="15"/>
      <point x="305" y="-5"/>
      <point x="257" y="-6" type="qcurve"/>
      <point x="244" y="-58" type="line"/>
      <point x="312" y="-54"/>
      <point x="376" y="-85"/>
    </contour>
  </outline>
</glyph>
<glyph name="eth" format="1">
  <advance width="558.0"/>
  <unicode hex="00F0"/>
  <outline>
    <contour>
      <point x="491" y="249" type="qcurve" smooth="yes"/>
      <point x="491" y="107"/>
      <point x="396" y="-6"/>
      <point x="277" y="-6" type="qcurve" smooth="yes"/>
      <point x="151" y="-6"/>
      <point x="63" y="99"/>
      <point x="63" y="249" type="qcurve" smooth="yes"/>
      <point x="63" y="391"/>
      <point x="158" y="504"/>
      <point x="277" y="504" type="qcurve" smooth="yes"/>
      <point x="342" y="504"/>
      <point x="421" y="480"/>
      <point x="444" y="454" type="qcurve"/>
      <point x="430" y="492"/>
      <point x="390" y="562"/>
      <point x="363" y="594" type="qcurve"/>
      <point x="173" y="549" type="line"/>
      <point x="173" y="568" type="line"/>
      <point x="349" y="610" type="line"/>
      <point x="338" y="622"/>
      <point x="309" y="648"/>
      <point x="290" y="665" type="qcurve"/>
      <point x="321" y="665" type="line"/>
      <point x="331" y="656"/>
      <point x="352" y="634"/>
      <point x="370" y="615" type="qcurve"/>
      <point x="469" y="638" type="line"/>
      <point x="469" y="619" type="line"/>
      <point x="383" y="599" type="line"/>
      <point x="433" y="537"/>
      <point x="483" y="404"/>
      <point x="489" y="316" type="qcurve"/>
      <point x="490" y="294"/>
      <point x="491" y="263"/>
    </contour>
    <contour>
      <point x="83" y="249" type="qcurve" smooth="yes"/>
      <point x="83" y="109"/>
      <point x="162" y="13"/>
      <point x="277" y="13" type="qcurve" smooth="yes"/>
      <point x="387" y="13"/>
      <point x="471" y="115"/>
      <point x="471" y="249" type="qcurve" smooth="yes"/>
      <point x="471" y="389"/>
      <point x="392" y="485"/>
      <point x="277" y="485" type="qcurve" smooth="yes"/>
      <point x="167" y="485"/>
      <point x="83" y="383"/>
    </contour>
  </outline>
</glyph>
<glyph name="oslash" format="1">
  <advance width="554.0"/>
  <unicode hex="00F8"/>
  <outline>
    <contour>
      <point x="83" y="-52" type="line"/>
      <point x="67" y="-41" type="line"/>
      <point x="118" y="32" type="line"/>
      <point x="119" y="34" type="line"/>
      <point x="89" y="60"/>
      <point x="63" y="160"/>
      <point x="63" y="249" type="qcurve" smooth="yes"/>
      <point x="63" y="391"/>
      <point x="158" y="504"/>
      <point x="277" y="504" type="qcurve" smooth="yes"/>
      <point x="330" y="504"/>
      <point x="400" y="489"/>
      <point x="423" y="473" type="qcurve"/>
      <point x="424" y="475" type="line"/>
      <point x="473" y="545" type="line"/>
      <point x="489" y="534" type="line"/>
      <point x="439" y="463" type="line"/>
      <point x="438" y="461" type="line"/>
      <point x="466" y="435"/>
      <point x="491" y="335"/>
      <point x="491" y="249" type="qcurve" smooth="yes"/>
      <point x="491" y="107"/>
      <point x="396" y="-6"/>
      <point x="277" y="-6" type="qcurve" smooth="yes"/>
      <point x="228" y="-6"/>
      <point x="159" y="8"/>
      <point x="135" y="22" type="qcurve"/>
      <point x="135" y="22" type="line"/>
    </contour>
    <contour>
      <point x="277" y="485" type="qcurve" smooth="yes"/>
      <point x="167" y="485"/>
      <point x="83" y="383"/>
      <point x="83" y="249" type="qcurve" smooth="yes"/>
      <point x="83" y="167"/>
      <point x="105" y="75"/>
      <point x="131" y="51" type="qcurve"/>
      <point x="411" y="456" type="line"/>
      <point x="390" y="471"/>
      <point x="325" y="485"/>
    </contour>
    <contour>
      <point x="277" y="13" type="qcurve" smooth="yes"/>
      <point x="387" y="13"/>
      <point x="471" y="115"/>
      <point x="471" y="249" type="qcurve" smooth="yes"/>
      <point x="471" y="329"/>
      <point x="450" y="419"/>
      <point x="426" y="444" type="qcurve"/>
      <point x="147" y="39" type="line"/>
      <point x="168" y="26"/>
      <point x="231" y="13"/>
    </contour>
    <contour>
      <point x="277.0" y="530.0" type="move" name="top"/>
    </contour>
  </outline>
</glyph>
<glyph name="thorn" format="1">
  <advance width="545.0"/>
  <unicode hex="00FE"/>
  <outline>
    <contour>
      <point x="105" y="-152" type="line"/>
      <point x="85" y="-152" type="line"/>
      <point x="85" y="665" type="line"/>
      <point x="105" y="665" type="line"/>
      <point x="105" y="449" type="line"/>
      <point x="143" y="477"/>
      <point x="233" y="504"/>
      <point x="287" y="504" type="qcurve"/>
      <point x="391" y="504"/>
      <point x="483" y="383"/>
      <point x="483" y="249" type="qcurve" smooth="yes"/>
      <point x="483" y="111"/>
      <point x="376" y="-6"/>
      <point x="246" y="-6" type="qcurve"/>
      <point x="204" y="-6"/>
      <point x="136" y="5"/>
      <point x="105" y="18" type="qcurve"/>
    </contour>
    <contour>
      <point x="282" y="485" type="qcurve"/>
      <point x="231" y="485"/>
      <point x="141" y="456"/>
      <point x="105" y="428" type="qcurve"/>
      <point x="105" y="38" type="line"/>
      <point x="133" y="25"/>
      <point x="202" y="13"/>
      <point x="246" y="13" type="qcurve"/>
      <point x="368" y="13"/>
      <point x="463" y="120"/>
      <point x="463" y="249" type="qcurve" smooth="yes"/>
      <point x="463" y="376"/>
      <point x="382" y="485"/>
    </contour>
  </outline>
</glyph>
<glyph name="Aogonek" format="1">
  <advance width="592.0"/>
  <unicode hex="0104"/>
  <outline>
    <contour>
      <point x="46" y="0" type="line"/>
      <point x="23" y="0" type="line"/>
      <point x="285" y="627" type="line"/>
      <point x="307" y="627" type="line"/>
      <point x="569" y="0" type="line"/>
      <point x="489" y="-18"/>
      <point x="413" y="-79"/>
      <point x="413" y="-123" type="qcurve"/>
      <point x="413" y="-152"/>
      <point x="453" y="-185"/>
      <point x="489" y="-185" type="qcurve"/>
      <point x="509" y="-185"/>
      <point x="543" y="-180"/>
      <point x="562" y="-173" type="qcurve"/>
      <point x="562" y="-193" type="line"/>
      <point x="539" y="-200"/>
      <point x="508" y="-204"/>
      <point x="489" y="-204" type="qcurve"/>
      <point x="444" y="-204"/>
      <point x="393" y="-161"/>
      <point x="393" y="-125" type="qcurve"/>
      <point x="393" y="-76"/>
      <point x="464" y="-9"/>
      <point x="541" y="11" type="qcurve"/>
      <point x="466" y="193" type="line"/>
      <point x="126" y="193" type="line"/>
    </contour>
    <contour>
      <point x="296" y="608" type="qcurve"/>
      <point x="286" y="578"/>
      <point x="248" y="487"/>
      <point x="243" y="476" type="qcurve"/>
      <point x="134" y="213" type="line"/>
      <point x="458" y="213" type="line"/>
      <point x="349" y="476" type="line" smooth="yes"/>
      <point x="344" y="487"/>
      <point x="306" y="578"/>
    </contour>
  </outline>
</glyph>
<glyph name="aogonek" format="1">
  <advance width="500.0"/>
  <unicode hex="0105"/>
  <outline>
    <contour>
      <point x="195" y="-6" type="qcurve"/>
      <point x="119" y="-6"/>
      <point x="48" y="65"/>
      <point x="48" y="141" type="qcurve"/>
      <point x="48" y="215"/>
      <point x="134" y="279"/>
      <point x="237" y="279" type="qcurve"/>
      <point x="276" y="279"/>
      <point x="349" y="273"/>
      <point x="399" y="266" type="qcurve"/>
      <point x="399" y="327" type="line" smooth="yes"/>
      <point x="399" y="414"/>
      <point x="329" y="485"/>
      <point x="249" y="485" type="qcurve" smooth="yes"/>
      <point x="206" y="485"/>
      <point x="139" y="476"/>
      <point x="100" y="466" type="qcurve"/>
      <point x="100" y="486" type="line"/>
      <point x="145" y="497"/>
      <point x="209" y="504"/>
      <point x="255" y="504" type="qcurve" smooth="yes"/>
      <point x="341" y="504"/>
      <point x="419" y="421"/>
      <point x="419" y="327" type="qcurve"/>
      <point x="419" y="0" type="line"/>
      <point x="339" y="-18"/>
      <point x="263" y="-79"/>
      <point x="263" y="-123" type="qcurve"/>
      <point x="263" y="-152"/>
      <point x="303" y="-185"/>
      <point x="339" y="-185" type="qcurve"/>
      <point x="359" y="-185"/>
      <point x="393" y="-180"/>
      <point x="412" y="-173" type="qcurve"/>
      <point x="412" y="-193" type="line"/>
      <point x="389" y="-200"/>
      <point x="358" y="-204"/>
      <point x="339" y="-204" type="qcurve"/>
      <point x="294" y="-204"/>
      <point x="243" y="-161"/>
      <point x="243" y="-125" type="qcurve"/>
      <point x="243" y="-74"/>
      <point x="320" y="-6"/>
      <point x="403" y="14" type="qcurve"/>
      <point x="401" y="56" type="line"/>
      <point x="400" y="56" type="line"/>
      <point x="370" y="28"/>
      <point x="257" y="-6"/>
    </contour>
    <contour>
      <point x="237" y="260" type="qcurve"/>
      <point x="143" y="260"/>
      <point x="68" y="207"/>
      <point x="68" y="142" type="qcurve"/>
      <point x="68" y="74"/>
      <point x="131" y="13"/>
      <point x="200" y="13" type="qcurve"/>
      <point x="257" y="13"/>
      <point x="369" y="47"/>
      <point x="399" y="74" type="qcurve"/>
      <point x="399" y="247" type="line"/>
      <point x="360" y="254"/>
      <point x="279" y="260"/>
    </contour>
  </outline>
</glyph>
<glyph name="Dcroat" format="1">
  <advance width="620.0"/>
  <unicode hex="0110"/>
  <outline>
    <contour>
      <point x="28" y="311" type="line"/>
      <point x="28" y="331" type="line"/>
      <point x="98" y="331" type="line"/>
      <point x="98" y="627" type="line"/>
      <point x="247" y="627" type="line" smooth="yes"/>
      <point x="345" y="627"/>
      <point x="459" y="596"/>
      <point x="492" y="561" type="qcurve" smooth="yes"/>
      <point x="525" y="527"/>
      <point x="555" y="408"/>
      <point x="555" y="314" type="qcurve"/>
      <point x="555" y="151"/>
      <point x="409" y="0"/>
      <point x="247" y="0" type="qcurve"/>
      <point x="98" y="0" type="line"/>
      <point x="98" y="311" type="line"/>
    </contour>
    <contour>
      <point x="324" y="331" type="line"/>
      <point x="324" y="311" type="line"/>
      <point x="119" y="311" type="line"/>
      <point x="119" y="20" type="line"/>
      <point x="247" y="20" type="line" smooth="yes"/>
      <point x="399" y="20"/>
      <point x="534" y="159"/>
      <point x="534" y="314" type="qcurve"/>
      <point x="534" y="403"/>
      <point x="506" y="513"/>
      <point x="476" y="545" type="qcurve" smooth="yes"/>
      <point x="445" y="578"/>
      <point x="338" y="607"/>
      <point x="247" y="607" type="qcurve"/>
      <point x="119" y="607" type="line"/>
      <point x="119" y="331" type="line"/>
    </contour>
  </outline>
</glyph>
<glyph name="dcroat" format="1">
  <advance width="545.0"/>
  <unicode hex="0111"/>
  <outline>
    <contour>
      <point x="530" y="610" type="line"/>
      <point x="530" y="591" type="line"/>
      <point x="460" y="591" type="line"/>
      <point x="460" y="0" type="line"/>
      <point x="444" y="0" type="line"/>
      <point x="442" y="50" type="line"/>
      <point x="441" y="50" type="line"/>
      <point x="403" y="22"/>
      <point x="313" y="-6"/>
      <point x="258" y="-6" type="qcurve"/>
      <point x="154" y="-6"/>
      <point x="62" y="113"/>
      <point x="62" y="243" type="qcurve" smooth="yes"/>
      <point x="62" y="377"/>
      <point x="169" y="492"/>
      <point x="299" y="492" type="qcurve"/>
      <point x="341" y="492"/>
      <point x="409" y="481"/>
      <point x="440" y="468" type="qcurve"/>
      <point x="440" y="591" type="line"/>
      <point x="234" y="591" type="line"/>
      <point x="234" y="610" type="line"/>
      <point x="440" y="610" type="line"/>
      <point x="440" y="665" type="line"/>
      <point x="460" y="665" type="line"/>
      <point x="460" y="610" type="line"/>
    </contour>
    <contour>
      <point x="263" y="13" type="qcurve"/>
      <point x="316" y="13"/>
      <point x="404" y="42"/>
      <point x="440" y="70" type="qcurve"/>
      <point x="440" y="448" type="line"/>
      <point x="412" y="461"/>
      <point x="343" y="473"/>
      <point x="299" y="473" type="qcurve"/>
      <point x="177" y="473"/>
      <point x="82" y="369"/>
      <point x="82" y="243" type="qcurve" smooth="yes"/>
      <point x="82" y="119"/>
      <point x="163" y="13"/>
    </contour>
  </outline>
</glyph>
<glyph name="Eogonek" format="1">
  <advance width="538.0"/>
  <unicode hex="0118"/>
  <outline>
    <contour>
      <point x="495" y="0" type="line"/>
      <point x="427" y="0" type="line"/>
      <point x="347" y="-18"/>
      <point x="271" y="-79"/>
      <point x="271" y="-123" type="qcurve"/>
      <point x="271" y="-152"/>
      <point x="311" y="-185"/>
      <point x="347" y="-185" type="qcurve"/>
      <point x="367" y="-185"/>
      <point x="401" y="-180"/>
      <point x="420" y="-173" type="qcurve"/>
      <point x="420" y="-193" type="line"/>
      <point x="397" y="-200"/>
      <point x="366" y="-204"/>
      <point x="347" y="-204" type="qcurve"/>
      <point x="302" y="-204"/>
      <point x="251" y="-161"/>
      <point x="251" y="-125" type="qcurve"/>
      <point x="251" y="-82"/>
      <point x="307" y="-19"/>
      <point x="363" y="0" type="qcurve"/>
      <point x="93" y="0" type="line"/>
      <point x="93" y="627" type="line"/>
      <point x="486" y="627" type="line"/>
      <point x="486" y="607" type="line"/>
      <point x="114" y="607" type="line"/>
      <point x="114" y="333" type="line"/>
      <point x="449" y="333" type="line"/>
      <point x="449" y="313" type="line"/>
      <point x="114" y="313" type="line"/>
      <point x="114" y="20" type="line"/>
      <point x="495" y="20" type="line"/>
    </contour>
  </outline>
</glyph>
<glyph name="eogonek" format="1">
  <advance width="503.0"/>
  <unicode hex="0119"/>
  <outline>
    <contour>
      <point x="427" y="47" type="qcurve"/>
      <point x="427" y="27" type="line"/>
      <point x="415" y="22"/>
      <point x="390" y="13"/>
      <point x="377" y="9" type="qcurve"/>
      <point x="308" y="-19"/>
      <point x="233" y="-98"/>
      <point x="233" y="-143" type="qcurve"/>
      <point x="233" y="-172"/>
      <point x="272" y="-205"/>
      <point x="306" y="-205" type="qcurve"/>
      <point x="324" y="-205"/>
      <point x="366" y="-198"/>
      <point x="382" y="-193" type="qcurve"/>
      <point x="382" y="-213" type="line"/>
      <point x="364" y="-218"/>
      <point x="324" y="-224"/>
      <point x="306" y="-224" type="qcurve"/>
      <point x="262" y="-224"/>
      <point x="213" y="-181"/>
      <point x="213" y="-145" type="qcurve"/>
      <point x="213" y="-104"/>
      <point x="263" y="-33"/>
      <point x="311" y="-4" type="qcurve"/>
      <point x="294" y="-5"/>
      <point x="276" y="-6"/>
      <point x="268" y="-6" type="qcurve" smooth="yes"/>
      <point x="157" y="-6"/>
      <point x="62" y="114"/>
      <point x="62" y="252" type="qcurve" smooth="yes"/>
      <point x="62" y="385"/>
      <point x="158" y="504"/>
      <point x="266" y="504" type="qcurve"/>
      <point x="361" y="504"/>
      <point x="448" y="407"/>
      <point x="448" y="302" type="qcurve"/>
      <point x="448" y="290"/>
      <point x="446" y="262"/>
      <point x="444" y="246" type="qcurve"/>
      <point x="82" y="246" type="line"/>
      <point x="82" y="122"/>
      <point x="169" y="13"/>
      <point x="272" y="13" type="qcurve" smooth="yes"/>
      <point x="312" y="13"/>
      <point x="400" y="33"/>
    </contour>
    <contour>
      <point x="428" y="302" type="qcurve"/>
      <point x="428" y="398"/>
      <point x="350" y="485"/>
      <point x="266" y="485" type="qcurve"/>
      <point x="168" y="485"/>
      <point x="82" y="382"/>
      <point x="82" y="265" type="qcurve"/>
      <point x="426" y="265" type="line"/>
      <point x="427" y="274"/>
      <point x="428" y="292"/>
    </contour>
  </outline>
</glyph>
<glyph name="Hbar" format="1">
  <advance width="666.0"/>
  <unicode hex="0126"/>
  <outline>
    <contour>
      <point x="119" y="0" type="line"/>
      <point x="98" y="0" type="line"/>
      <point x="98" y="487" type="line"/>
      <point x="28" y="487" type="line"/>
      <point x="28" y="506" type="line"/>
      <point x="98" y="506" type="line"/>
      <point x="98" y="627" type="line"/>
      <point x="119" y="627" type="line"/>
      <point x="119" y="506" type="line"/>
      <point x="547" y="506" type="line"/>
      <point x="547" y="627" type="line"/>
      <point x="568" y="627" type="line"/>
      <point x="568" y="506" type="line"/>
      <point x="638" y="506" type="line"/>
      <point x="638" y="487" type="line"/>
      <point x="568" y="487" type="line"/>
      <point x="568" y="0" type="line"/>
      <point x="547" y="0" type="line"/>
      <point x="547" y="308" type="line"/>
      <point x="119" y="308" type="line"/>
    </contour>
    <contour>
      <point x="119" y="487" type="line"/>
      <point x="119" y="328" type="line"/>
      <point x="547" y="328" type="line"/>
      <point x="547" y="487" type="line"/>
    </contour>
  </outline>
</glyph>
<glyph name="hbar" format="1">
  <advance width="552.0"/>
  <unicode hex="0127"/>
  <outline>
    <contour>
      <point x="105" y="0" type="line"/>
      <point x="85" y="0" type="line"/>
      <point x="85" y="591" type="line"/>
      <point x="15" y="591" type="line"/>
      <point x="15" y="610" type="line"/>
      <point x="85" y="610" type="line"/>
      <point x="85" y="665" type="line"/>
      <point x="105" y="665" type="line"/>
      <point x="105" y="610" type="line"/>
      <point x="311" y="610" type="line"/>
      <point x="311" y="591" type="line"/>
      <point x="105" y="591" type="line"/>
      <point x="105" y="446" type="line"/>
      <point x="162" y="477"/>
      <point x="257" y="504"/>
      <point x="307" y="504" type="qcurve" smooth="yes"/>
      <point x="387" y="504"/>
      <point x="471" y="421"/>
      <point x="471" y="342" type="qcurve"/>
      <point x="471" y="0" type="line"/>
      <point x="451" y="0" type="line"/>
      <point x="451" y="342" type="line" smooth="yes"/>
      <point x="451" y="415"/>
      <point x="377" y="485"/>
      <point x="300" y="485" type="qcurve" smooth="yes"/>
      <point x="254" y="485"/>
      <point x="157" y="456"/>
      <point x="105" y="427" type="qcurve"/>
    </contour>
  </outline>
</glyph>
<glyph name="Iogonek" format="1">
  <advance width="209.0"/>
  <unicode hex="012E"/>
  <outline>
    <contour>
      <point x="116" y="627" type="line"/>
      <point x="116" y="0" type="line"/>
      <point x="36" y="-18"/>
      <point x="-40" y="-79"/>
      <point x="-40" y="-123" type="qcurve"/>
      <point x="-40" y="-152"/>
      <point x="0" y="-185"/>
      <point x="36" y="-185" type="qcurve"/>
      <point x="56" y="-185"/>
      <point x="90" y="-180"/>
      <point x="109" y="-173" type="qcurve"/>
      <point x="109" y="-193" type="line"/>
      <point x="86" y="-200"/>
      <point x="55" y="-204"/>
      <point x="36" y="-204" type="qcurve"/>
      <point x="-9" y="-204"/>
      <point x="-60" y="-161"/>
      <point x="-60" y="-125" type="qcurve"/>
      <point x="-60" y="-75"/>
      <point x="14" y="-8"/>
      <point x="95" y="13" type="qcurve"/>
      <point x="95" y="627" type="line"/>
    </contour>
  </outline>
</glyph>
<glyph name="iogonek" format="1">
  <advance width="193.0"/>
  <unicode hex="012F"/>
  <outline>
    <contour>
      <point x="110" y="631" type="line"/>
      <point x="86" y="631" type="line"/>
      <point x="86" y="664" type="line"/>
      <point x="110" y="664" type="line"/>
    </contour>
    <contour>
      <point x="108" y="494" type="line"/>
      <point x="108" y="0" type="line"/>
      <point x="28" y="-18"/>
      <point x="-48" y="-79"/>
      <point x="-48" y="-123" type="qcurve"/>
      <point x="-48" y="-152"/>
      <point x="-8" y="-185"/>
      <point x="28" y="-185" type="qcurve"/>
      <point x="48" y="-185"/>
      <point x="82" y="-180"/>
      <point x="101" y="-173" type="qcurve"/>
      <point x="101" y="-193" type="line"/>
      <point x="78" y="-200"/>
      <point x="47" y="-204"/>
      <point x="28" y="-204" type="qcurve"/>
      <point x="-17" y="-204"/>
      <point x="-68" y="-161"/>
      <point x="-68" y="-125" type="qcurve"/>
      <point x="-68" y="-74"/>
      <point x="7" y="-6"/>
      <point x="88" y="13" type="qcurve"/>
      <point x="88" y="494" type="line"/>
    </contour>
  </outline>
</glyph>
<glyph name="Lslash" format="1">
  <advance width="506.0"/>
  <unicode hex="0141"/>
  <outline>
    <contour>
      <point x="482" y="20" type="line"/>
      <point x="482" y="0" type="line"/>
      <point x="112" y="0" type="line"/>
      <point x="112" y="303" type="line"/>
      <point x="42" y="283" type="line"/>
      <point x="42" y="304" type="line"/>
      <point x="112" y="324" type="line"/>
      <point x="112" y="627" type="line"/>
      <point x="133" y="627" type="line"/>
      <point x="133" y="330" type="line"/>
      <point x="352" y="393" type="line"/>
      <point x="352" y="372" type="line"/>
      <point x="133" y="309" type="line"/>
      <point x="133" y="20" type="line"/>
    </contour>
  </outline>
</glyph>
<glyph name="lslash" format="1">
  <advance width="251.0"/>
  <unicode hex="0142"/>
  <outline>
    <contour>
      <point x="126" y="318" type="line"/>
      <point x="126" y="0" type="line"/>
      <point x="106" y="0" type="line"/>
      <point x="106" y="312" type="line"/>
      <point x="37" y="291" type="line"/>
      <point x="37" y="312" type="line"/>
      <point x="106" y="333" type="line"/>
      <point x="106" y="665" type="line"/>
      <point x="126" y="665" type="line"/>
      <point x="126" y="339" type="line"/>
      <point x="218" y="367" type="line"/>
      <point x="218" y="346" type="line"/>
    </contour>
  </outline>
</glyph>
<glyph name="Eng" format="1">
  <advance width="673.0"/>
  <unicode hex="014A"/>
  <outline>
    <contour>
      <point x="580" y="627" type="line"/>
      <point x="580" y="0" type="line" smooth="yes"/>
      <point x="580" y="-81"/>
      <point x="510" y="-162"/>
      <point x="439" y="-162" type="qcurve"/>
      <point x="418" y="-162"/>
      <point x="382" y="-159"/>
      <point x="364" y="-156" type="qcurve"/>
      <point x="364" y="-137" type="line"/>
      <point x="383" y="-140"/>
      <point x="417" y="-143"/>
      <point x="435" y="-143" type="qcurve"/>
      <point x="499" y="-143"/>
      <point x="559" y="-72"/>
      <point x="559" y="5" type="qcurve"/>
      <point x="114" y="603" type="line"/>
      <point x="114" y="0" type="line"/>
      <point x="93" y="0" type="line"/>
      <point x="93" y="627" type="line"/>
      <point x="123" y="627" type="line"/>
      <point x="559" y="41" type="line"/>
      <point x="559" y="627" type="line"/>
    </contour>
    <contour>
      <point x="343.0" y="645.0" type="move" name="top"/>
    </contour>
  </outline>
</glyph>
<glyph name="OE" format="1">
  <advance width="906.0"/>
  <unicode hex="0152"/>
  <outline>
    <contour>
      <point x="318" y="-6" type="qcurve"/>
      <point x="228" y="-6"/>
      <point x="130" y="33"/>
      <point x="105" y="78" type="qcurve" smooth="yes"/>
      <point x="85" y="114"/>
      <point x="66" y="228"/>
      <point x="66" y="316" type="qcurve"/>
      <point x="66" y="490"/>
      <point x="181" y="637"/>
      <point x="318" y="637" type="qcurve"/>
      <point x="351" y="637"/>
      <point x="403" y="632"/>
      <point x="425" y="627" type="qcurve"/>
      <point x="854" y="627" type="line"/>
      <point x="854" y="607" type="line"/>
      <point x="477" y="607" type="line"/>
      <point x="524" y="579"/>
      <point x="566" y="453"/>
      <point x="568" y="333" type="qcurve"/>
      <point x="817" y="333" type="line"/>
      <point x="817" y="313" type="line"/>
      <point x="568" y="313" type="line"/>
      <point x="567" y="190"/>
      <point x="512" y="50"/>
      <point x="453" y="20" type="qcurve"/>
      <point x="863" y="20" type="line"/>
      <point x="863" y="0" type="line"/>
      <point x="391" y="0" type="line"/>
      <point x="374" y="-3"/>
      <point x="338" y="-6"/>
    </contour>
    <contour>
      <point x="120" y="93" type="qcurve" smooth="yes"/>
      <point x="142" y="50"/>
      <point x="232" y="14"/>
      <point x="318" y="14" type="qcurve"/>
      <point x="445" y="14"/>
      <point x="547" y="149"/>
      <point x="547" y="316" type="qcurve"/>
      <point x="547" y="401"/>
      <point x="532" y="506"/>
      <point x="515" y="538" type="qcurve" smooth="yes"/>
      <point x="493" y="581"/>
      <point x="405" y="617"/>
      <point x="318" y="617" type="qcurve"/>
      <point x="189" y="617"/>
      <point x="87" y="483"/>
      <point x="87" y="316" type="qcurve"/>
      <point x="87" y="231"/>
      <point x="103" y="126"/>
    </contour>
  </outline>
</glyph>
<glyph name="oe" format="1">
  <advance width="877.0"/>
  <unicode hex="0153"/>
  <outline>
    <contour>
      <point x="466" y="147" type="qcurve"/>
      <point x="453" y="65"/>
      <point x="362" y="-6"/>
      <point x="270" y="-6" type="qcurve" smooth="yes"/>
      <point x="149" y="-6"/>
      <point x="64" y="99"/>
      <point x="64" y="249" type="qcurve" smooth="yes"/>
      <point x="64" y="391"/>
      <point x="156" y="504"/>
      <point x="270" y="504" type="qcurve" smooth="yes"/>
      <point x="369" y="504"/>
      <point x="455" y="439"/>
      <point x="467" y="357" type="qcurve"/>
      <point x="482" y="434"/>
      <point x="570" y="504"/>
      <point x="650" y="504" type="qcurve"/>
      <point x="740" y="504"/>
      <point x="822" y="408"/>
      <point x="822" y="302" type="qcurve"/>
      <point x="822" y="290"/>
      <point x="820" y="262"/>
      <point x="818" y="246" type="qcurve"/>
      <point x="476" y="246" type="line"/>
      <point x="476" y="122"/>
      <point x="558" y="13"/>
      <point x="656" y="13" type="qcurve" smooth="yes"/>
      <point x="692" y="13"/>
      <point x="772" y="32"/>
      <point x="801" y="47" type="qcurve"/>
      <point x="801" y="27" type="line"/>
      <point x="773" y="13"/>
      <point x="691" y="-6"/>
      <point x="652" y="-6" type="qcurve" smooth="yes"/>
      <point x="569" y="-6"/>
      <point x="480" y="67"/>
    </contour>
    <contour>
      <point x="84" y="249" type="qcurve" smooth="yes"/>
      <point x="84" y="108"/>
      <point x="159" y="13"/>
      <point x="270" y="13" type="qcurve" smooth="yes"/>
      <point x="376" y="13"/>
      <point x="456" y="115"/>
      <point x="456" y="249" type="qcurve" smooth="yes"/>
      <point x="456" y="390"/>
      <point x="381" y="485"/>
      <point x="270" y="485" type="qcurve" smooth="yes"/>
      <point x="164" y="485"/>
      <point x="84" y="383"/>
    </contour>
    <contour>
      <point x="802" y="302" type="qcurve"/>
      <point x="802" y="398"/>
      <point x="729" y="485"/>
      <point x="650" y="485" type="qcurve"/>
      <point x="558" y="485"/>
      <point x="476" y="382"/>
      <point x="476" y="265" type="qcurve"/>
      <point x="800" y="265" type="line"/>
      <point x="801" y="274"/>
      <point x="802" y="292"/>
    </contour>
    <contour>
      <point x="467.0" y="530" type="move" name="top"/>
    </contour>
  </outline>
</glyph>
<glyph name="scedilla" format="1">
  <advance width="449.0"/>
  <unicode hex="015F"/>
  <outline>
    <contour>
      <point x="343" y="-122" type="qcurve"/>
      <point x="343" y="-161"/>
      <point x="294" y="-195"/>
      <point x="239" y="-195" type="qcurve" smooth="yes"/>
      <point x="204" y="-195"/>
      <point x="150" y="-189"/>
      <point x="128" y="-183" type="qcurve"/>
      <point x="128" y="-164" type="line"/>
      <point x="149" y="-170"/>
      <point x="206" y="-176"/>
      <point x="243" y="-176" type="qcurve" smooth="yes"/>
      <point x="287" y="-176"/>
      <point x="323" y="-153"/>
      <point x="323" y="-122" type="qcurve"/>
      <point x="323" y="-97"/>
      <point x="281" y="-74"/>
      <point x="235" y="-74" type="qcurve"/>
      <point x="225" y="-74"/>
      <point x="199" y="-75"/>
      <point x="186" y="-76" type="qcurve"/>
      <point x="202" y="-5" type="line"/>
      <point x="154" y="-3"/>
      <point x="73" y="11"/>
      <point x="51" y="20" type="qcurve"/>
      <point x="51" y="40" type="line"/>
      <point x="81" y="28"/>
      <point x="181" y="13"/>
      <point x="238" y="13" type="qcurve" smooth="yes"/>
      <point x="315" y="13"/>
      <point x="380" y="71"/>
      <point x="380" y="138" type="qcurve" smooth="yes"/>
      <point x="380" y="187"/>
      <point x="340" y="229"/>
      <point x="283" y="238" type="qcurve"/>
      <point x="151" y="260" type="line" smooth="yes"/>
      <point x="104" y="268"/>
      <point x="62" y="315"/>
      <point x="62" y="361" type="qcurve" smooth="yes"/>
      <point x="62" y="438"/>
      <point x="144" y="504"/>
      <point x="234" y="504" type="qcurve" smooth="yes"/>
      <point x="263" y="504"/>
      <point x="310" y="502"/>
      <point x="366" y="494" type="qcurve"/>
      <point x="366" y="475" type="line"/>
      <point x="332" y="480"/>
      <point x="268" y="485"/>
      <point x="234" y="485" type="qcurve" smooth="yes"/>
      <point x="152" y="485"/>
      <point x="82" y="432"/>
      <point x="82" y="362" type="qcurve" smooth="yes"/>
      <point x="82" y="324"/>
      <point x="116" y="287"/>
      <point x="155" y="280" type="qcurve"/>
      <point x="289" y="258" type="line" smooth="yes"/>
      <point x="353" y="247"/>
      <point x="400" y="196"/>
      <point x="400" y="138" type="qcurve" smooth="yes"/>
      <point x="400" y="62"/>
      <point x="323" y="-6"/>
      <point x="238" y="-6" type="qcurve"/>
      <point x="223" y="-6" type="line"/>
      <point x="210" y="-58" type="line"/>
      <point x="278" y="-54"/>
      <point x="342" y="-85"/>
    </contour>
  </outline>
</glyph>
<glyph name="Tbar" format="1">
  <advance width="567.0"/>
  <unicode hex="0166"/>
  <outline>
    <contour>
      <point x="481" y="336" type="line"/>
      <point x="481" y="316" type="line"/>
      <point x="294" y="316" type="line"/>
      <point x="294" y="0" type="line"/>
      <point x="273" y="0" type="line"/>
      <point x="273" y="316" type="line"/>
      <point x="86" y="316" type="line"/>
      <point x="86" y="336" type="line"/>
      <point x="273" y="336" type="line"/>
      <point x="273" y="607" type="line"/>
      <point x="31" y="607" type="line"/>
      <point x="31" y="627" type="line"/>
      <point x="536" y="627" type="line"/>
      <point x="536" y="607" type="line"/>
      <point x="294" y="607" type="line"/>
      <point x="294" y="336" type="line"/>
    </contour>
  </outline>
</glyph>
<glyph name="tbar" format="1">
  <advance width="381.0"/>
  <unicode hex="0167"/>
  <outline>
    <contour>
      <point x="359" y="24" type="qcurve"/>
      <point x="359" y="6" type="line"/>
      <point x="341" y="0"/>
      <point x="296" y="-6"/>
      <point x="272" y="-6" type="qcurve" smooth="yes"/>
      <point x="190" y="-6"/>
      <point x="123" y="69"/>
      <point x="123" y="170" type="qcurve"/>
      <point x="123" y="282" type="line"/>
      <point x="37" y="282" type="line"/>
      <point x="37" y="301" type="line"/>
      <point x="123" y="301" type="line"/>
      <point x="123" y="475" type="line"/>
      <point x="35" y="475" type="line"/>
      <point x="35" y="494" type="line"/>
      <point x="123" y="494" type="line"/>
      <point x="128" y="619" type="line"/>
      <point x="143" y="619" type="line"/>
      <point x="143" y="494" type="line"/>
      <point x="353" y="494" type="line"/>
      <point x="353" y="475" type="line"/>
      <point x="143" y="475" type="line"/>
      <point x="143" y="301" type="line"/>
      <point x="353" y="301" type="line"/>
      <point x="353" y="282" type="line"/>
      <point x="143" y="282" type="line"/>
      <point x="143" y="170" type="line" smooth="yes"/>
      <point x="143" y="80"/>
      <point x="202" y="13"/>
      <point x="275" y="13" type="qcurve" smooth="yes"/>
      <point x="297" y="13"/>
      <point x="345" y="19"/>
    </contour>
  </outline>
</glyph>
<glyph name="Uogonek" format="1">
  <advance width="644.0"/>
  <unicode hex="0172"/>
  <outline>
    <contour>
      <point x="535" y="238" type="qcurve"/>
      <point x="535" y="627" type="line"/>
      <point x="556" y="627" type="line"/>
      <point x="556" y="238" type="line" smooth="yes"/>
      <point x="556" y="143"/>
      <point x="497" y="34"/>
      <point x="434" y="11" type="qcurve"/>
      <point x="363" y="-18"/>
      <point x="285" y="-97"/>
      <point x="285" y="-143" type="qcurve"/>
      <point x="285" y="-172"/>
      <point x="324" y="-205"/>
      <point x="358" y="-205" type="qcurve"/>
      <point x="376" y="-205"/>
      <point x="418" y="-198"/>
      <point x="434" y="-193" type="qcurve"/>
      <point x="434" y="-213" type="line"/>
      <point x="416" y="-218"/>
      <point x="376" y="-224"/>
      <point x="358" y="-224" type="qcurve"/>
      <point x="314" y="-224"/>
      <point x="265" y="-181"/>
      <point x="265" y="-145" type="qcurve"/>
      <point x="265" y="-104"/>
      <point x="314" y="-32"/>
      <point x="362" y="-4" type="qcurve"/>
      <point x="345" y="-5"/>
      <point x="326" y="-6"/>
      <point x="318" y="-6" type="qcurve"/>
      <point x="199" y="-6"/>
      <point x="88" y="111"/>
      <point x="88" y="238" type="qcurve"/>
      <point x="88" y="627" type="line"/>
      <point x="109" y="627" type="line"/>
      <point x="109" y="238" type="line" smooth="yes"/>
      <point x="109" y="117"/>
      <point x="207" y="14"/>
      <point x="318" y="14" type="qcurve"/>
      <point x="433" y="14"/>
      <point x="535" y="118"/>
    </contour>
  </outline>
</glyph>
<glyph name="uogonek" format="1">
  <advance width="542.0"/>
  <unicode hex="0173"/>
  <outline>
    <contour>
      <point x="243" y="-6" type="qcurve" smooth="yes"/>
      <point x="163" y="-6"/>
      <point x="81" y="76"/>
      <point x="81" y="156" type="qcurve"/>
      <point x="81" y="494" type="line"/>
      <point x="101" y="494" type="line"/>
      <point x="101" y="156" type="line" smooth="yes"/>
      <point x="101" y="82"/>
      <point x="173" y="13"/>
      <point x="250" y="13" type="qcurve" smooth="yes"/>
      <point x="294" y="13"/>
      <point x="386" y="42"/>
      <point x="437" y="71" type="qcurve"/>
      <point x="437" y="494" type="line"/>
      <point x="457" y="494" type="line"/>
      <point x="457" y="0" type="line"/>
      <point x="377" y="-18"/>
      <point x="301" y="-79"/>
      <point x="301" y="-123" type="qcurve"/>
      <point x="301" y="-152"/>
      <point x="341" y="-185"/>
      <point x="377" y="-185" type="qcurve"/>
      <point x="397" y="-185"/>
      <point x="431" y="-180"/>
      <point x="450" y="-173" type="qcurve"/>
      <point x="450" y="-193" type="line"/>
      <point x="427" y="-200"/>
      <point x="396" y="-204"/>
      <point x="377" y="-204" type="qcurve"/>
      <point x="332" y="-204"/>
      <point x="281" y="-161"/>
      <point x="281" y="-125" type="qcurve"/>
      <point x="281" y="-74"/>
      <point x="357" y="-6"/>
      <point x="440" y="14" type="qcurve"/>
      <point x="439" y="53" type="line"/>
      <point x="437" y="53" type="line"/>
      <point x="389" y="24"/>
      <point x="292" y="-6"/>
    </contour>
  </outline>
</glyph>
<glyph name="uni018F" format="1">
  <advance width="616.0"/>
  <unicode hex="018F"/>
  <outline>
    <contour>
      <point x="271" y="637" type="qcurve"/>
      <point x="425" y="637"/>
      <point x="551" y="492"/>
      <point x="551" y="314" type="qcurve" smooth="yes"/>
      <point x="551" y="144"/>
      <point x="433" y="-6"/>
      <point x="296" y="-6" type="qcurve"/>
      <point x="174" y="-6"/>
      <point x="55" y="114"/>
      <point x="55" y="236" type="qcurve"/>
      <point x="55" y="253"/>
      <point x="56" y="286"/>
      <point x="60" y="328" type="qcurve"/>
      <point x="530" y="328" type="line"/>
      <point x="528" y="486"/>
      <point x="411" y="617"/>
      <point x="271" y="617" type="qcurve" smooth="yes"/>
      <point x="225" y="617"/>
      <point x="152" y="606"/>
      <point x="114" y="592" type="qcurve"/>
      <point x="114" y="612" type="line"/>
      <point x="146" y="625"/>
      <point x="225" y="637"/>
    </contour>
    <contour>
      <point x="76" y="237" type="qcurve"/>
      <point x="76" y="124"/>
      <point x="184" y="14"/>
      <point x="296" y="14" type="qcurve"/>
      <point x="424" y="14"/>
      <point x="530" y="149"/>
      <point x="530" y="308" type="qcurve"/>
      <point x="79" y="308" type="line"/>
      <point x="78" y="296"/>
      <point x="76" y="260"/>
    </contour>
  </outline>
</glyph>
<glyph name="florin" format="1">
  <advance width="405.0"/>
  <unicode hex="0192"/>
  <outline>
    <contour>
      <point x="127" y="334" type="line"/>
      <point x="47" y="334" type="line"/>
      <point x="47" y="354" type="line"/>
      <point x="130" y="354" type="line"/>
      <point x="150" y="478" type="line" smooth="yes"/>
      <point x="165" y="575"/>
      <point x="232" y="635"/>
      <point x="303" y="635" type="qcurve"/>
      <point x="324" y="635"/>
      <point x="360" y="632"/>
      <point x="379" y="628" type="qcurve"/>
      <point x="379" y="608" type="line"/>
      <point x="367" y="611"/>
      <point x="324" y="615"/>
      <point x="299" y="615" type="qcurve"/>
      <point x="263" y="615"/>
      <point x="216" y="598"/>
      <point x="203" y="580" type="qcurve" smooth="yes"/>
      <point x="192" y="566"/>
      <point x="178" y="523"/>
      <point x="171" y="478" type="qcurve"/>
      <point x="151" y="354" type="line"/>
      <point x="353" y="354" type="line"/>
      <point x="353" y="334" type="line"/>
      <point x="148" y="334" type="line"/>
      <point x="71" y="-152" type="line"/>
      <point x="50" y="-152" type="line"/>
    </contour>
  </outline>
</glyph>
<glyph name="uni01B5" format="1">
  <advance width="528.0"/>
  <unicode hex="01B5"/>
  <outline>
    <contour>
      <point x="494" y="20" type="line"/>
      <point x="494" y="0" type="line"/>
      <point x="39" y="0" type="line"/>
      <point x="39" y="20" type="line"/>
      <point x="247" y="316" type="line"/>
      <point x="63" y="316" type="line"/>
      <point x="63" y="336" type="line"/>
      <point x="261" y="336" type="line"/>
      <point x="451" y="607" type="line"/>
      <point x="68" y="607" type="line"/>
      <point x="68" y="627" type="line"/>
      <point x="475" y="627" type="line"/>
      <point x="475" y="607" type="line"/>
      <point x="285" y="336" type="line"/>
      <point x="469" y="336" type="line"/>
      <point x="469" y="316" type="line"/>
      <point x="271" y="316" type="line"/>
      <point x="64" y="20" type="line"/>
    </contour>
  </outline>
</glyph>
<glyph name="uni01B6" format="1">
  <advance width="440.0"/>
  <unicode hex="01B6"/>
  <outline>
    <contour>
      <point x="402" y="19" type="line"/>
      <point x="402" y="0" type="line"/>
      <point x="43" y="0" type="line"/>
      <point x="43" y="19" type="line"/>
      <point x="205" y="251" type="line"/>
      <point x="64" y="251" type="line"/>
      <point x="64" y="270" type="line"/>
      <point x="219" y="270" type="line"/>
      <point x="362" y="475" type="line"/>
      <point x="61" y="475" type="line"/>
      <point x="61" y="494" type="line"/>
      <point x="385" y="494" type="line"/>
      <point x="385" y="475" type="line"/>
      <point x="242" y="270" type="line"/>
      <point x="384" y="270" type="line"/>
      <point x="384" y="251" type="line"/>
      <point x="228" y="251" type="line"/>
      <point x="66" y="19" type="line"/>
    </contour>
  </outline>
</glyph>
<glyph name="uni0237" format="1">
  <advance width="202.0"/>
  <unicode hex="0237"/>
  <outline>
    <contour>
      <point x="-23" y="-162" type="qcurve"/>
      <point x="-44" y="-162"/>
      <point x="-80" y="-159"/>
      <point x="-98" y="-156" type="qcurve"/>
      <point x="-98" y="-137" type="line"/>
      <point x="-79" y="-140"/>
      <point x="-45" y="-143"/>
      <point x="-27" y="-143" type="qcurve"/>
      <point x="37" y="-143"/>
      <point x="97" y="-72"/>
      <point x="97" y="5" type="qcurve"/>
      <point x="97" y="494" type="line"/>
      <point x="117" y="494" type="line"/>
      <point x="117" y="5" type="line"/>
      <point x="117" y="-80"/>
      <point x="48" y="-162"/>
    </contour>
    <contour>
      <point x="107.0" y="520.0" type="move" name="top"/>
    </contour>
  </outline>
</glyph>
<glyph name="uni0259" format="1">
  <advance width="504.0"/>
  <unicode hex="0259"/>
  <outline>
    <contour>
      <point x="77" y="451" type="qcurve"/>
      <point x="77" y="471" type="line"/>
      <point x="106" y="485"/>
      <point x="194" y="504"/>
      <point x="236" y="504" type="qcurve" smooth="yes"/>
      <point x="345" y="504"/>
      <point x="442" y="389"/>
      <point x="442" y="261" type="qcurve" smooth="yes"/>
      <point x="442" y="120"/>
      <point x="346" y="-6"/>
      <point x="238" y="-6" type="qcurve"/>
      <point x="143" y="-6"/>
      <point x="56" y="91"/>
      <point x="56" y="196" type="qcurve"/>
      <point x="56" y="218"/>
      <point x="58" y="254"/>
      <point x="60" y="267" type="qcurve"/>
      <point x="422" y="267" type="line"/>
      <point x="422" y="382"/>
      <point x="333" y="485"/>
      <point x="232" y="485" type="qcurve" smooth="yes"/>
      <point x="192" y="485"/>
      <point x="104" y="465"/>
    </contour>
    <contour>
      <point x="76" y="196" type="qcurve"/>
      <point x="76" y="100"/>
      <point x="154" y="13"/>
      <point x="238" y="13" type="qcurve"/>
      <point x="336" y="13"/>
      <point x="422" y="123"/>
      <point x="422" y="248" type="qcurve"/>
      <point x="78" y="248" type="line"/>
      <point x="77" y="235"/>
      <point x="76" y="209"/>
    </contour>
  </outline>
</glyph>
<glyph name="ring" format="1">
  <advance width="317.0"/>
  <unicode hex="02DA"/>
  <outline>
    <contour>
      <point x="264" y="627" type="qcurve" smooth="yes"/>
      <point x="264" y="589"/>
      <point x="206" y="543"/>
      <point x="158" y="543" type="qcurve" smooth="yes"/>
      <point x="110" y="543"/>
      <point x="53" y="589"/>
      <point x="53" y="627" type="qcurve" smooth="yes"/>
      <point x="53" y="663"/>
      <point x="111" y="708"/>
      <point x="158" y="708" type="qcurve" smooth="yes"/>
      <point x="206" y="708"/>
      <point x="264" y="663"/>
    </contour>
    <contour>
      <point x="73" y="627" type="qcurve" smooth="yes"/>
      <point x="73" y="596"/>
      <point x="118" y="562"/>
      <point x="158" y="562" type="qcurve" smooth="yes"/>
      <point x="199" y="562"/>
      <point x="244" y="597"/>
      <point x="244" y="627" type="qcurve" smooth="yes"/>
      <point x="244" y="656"/>
      <point x="198" y="689"/>
      <point x="158" y="689" type="qcurve" smooth="yes"/>
      <point x="118" y="689"/>
      <point x="73" y="656"/>
    </contour>
    <contour>
      <point x="157" y="530" type="move" name="_top"/>
    </contour>
  </outline>
</glyph>
<glyph name="ogonek" format="1">
  <advance width="294.0"/>
  <unicode hex="02DB"/>
  <outline>
    <contour>
      <point x="229" y="23" type="qcurve"/>
      <point x="244" y="9" type="line"/>
      <point x="164" y="-9"/>
      <point x="88" y="-70"/>
      <point x="88" y="-114" type="qcurve"/>
      <point x="88" y="-143"/>
      <point x="128" y="-176"/>
      <point x="164" y="-176" type="qcurve"/>
      <point x="184" y="-176"/>
      <point x="218" y="-171"/>
      <point x="237" y="-164" type="qcurve"/>
      <point x="237" y="-184" type="line"/>
      <point x="214" y="-191"/>
      <point x="183" y="-195"/>
      <point x="164" y="-195" type="qcurve"/>
      <point x="119" y="-195"/>
      <point x="68" y="-152"/>
      <point x="68" y="-116" type="qcurve"/>
      <point x="68" y="-65"/>
      <point x="145" y="3"/>
    </contour>
    <contour>
      <point x="244" y="9" type="move" name="_ogonek"/>
    </contour>
  </outline>
</glyph>
<glyph name="tilde" format="1">
  <advance width="383.0"/>
  <unicode hex="02DC"/>
  <outline>
    <contour>
      <point x="313" y="678" type="qcurve"/>
      <point x="333" y="678" type="line"/>
      <point x="333" y="626"/>
      <point x="294" y="567"/>
      <point x="258" y="567" type="qcurve"/>
      <point x="241" y="567"/>
      <point x="211" y="587"/>
      <point x="186" y="619" type="qcurve" smooth="yes"/>
      <point x="165" y="646"/>
      <point x="141" y="663"/>
      <point x="129" y="663" type="qcurve"/>
      <point x="100" y="663"/>
      <point x="70" y="614"/>
      <point x="70" y="571" type="qcurve"/>
      <point x="50" y="571" type="line"/>
      <point x="50" y="622"/>
      <point x="92" y="682"/>
      <point x="130" y="682" type="qcurve"/>
      <point x="146" y="682"/>
      <point x="177" y="662"/>
      <point x="202" y="630" type="qcurve" smooth="yes"/>
      <point x="224" y="603"/>
      <point x="247" y="586"/>
      <point x="259" y="586" type="qcurve"/>
      <point x="285" y="586"/>
      <point x="313" y="636"/>
    </contour>
    <contour>
      <point x="192" y="530" type="move" name="_top"/>
    </contour>
  </outline>
</glyph>
<glyph name="hungarumlaut" format="1">
  <advance width="418.0"/>
  <unicode hex="02DD"/>
  <outline>
    <contour>
      <point x="155" y="682" type="line"/>
      <point x="189" y="682" type="line"/>
      <point x="77" y="571" type="line"/>
      <point x="55" y="571" type="line"/>
    </contour>
    <contour>
      <point x="329" y="682" type="line"/>
      <point x="363" y="682" type="line"/>
      <point x="251" y="571" type="line"/>
      <point x="229" y="571" type="line"/>
    </contour>
    <contour>
      <point x="177" y="530" type="move" name="_top"/>
    </contour>
  </outline>
</glyph>
<glyph name="uni0312" format="1">
  <advance width="136.0"/>
  <unicode hex="0312"/>
  <outline>
    <contour>
      <point x="50" y="571" type="line"/>
      <point x="70" y="704" type="line" smooth="yes"/>
      <point x="72" y="713"/>
      <point x="77" y="719"/>
      <point x="84" y="719" type="qcurve"/>
      <point x="86" y="719" type="line"/>
      <point x="76" y="571" type="line"/>
    </contour>
    <contour>
      <point x="64.0" y="530.0" type="move" name="_top"/>
    </contour>
  </outline>
</glyph>
<glyph name="uni0326" format="1">
  <advance width="136.0"/>
  <unicode hex="0326"/>
  <outline>
    <contour>
      <point x="84" y="-80" type="line"/>
      <point x="64" y="-213" type="line" smooth="yes"/>
      <point x="62" y="-222"/>
      <point x="57" y="-228"/>
      <point x="50" y="-228" type="qcurve"/>
      <point x="48" y="-228" type="line"/>
      <point x="58" y="-80" type="line"/>
    </contour>
    <contour>
      <point x="72.0" y="0.0" type="move" name="_bottom"/>
    </contour>
  </outline>
</glyph>
<glyph name="uni0394" format="1">
  <advance width="612.0"/>
  <unicode hex="0394"/>
  <outline>
    <contour>
      <point x="27" y="0" type="line"/>
      <point x="27" y="20" type="line"/>
      <point x="295" y="627" type="line"/>
      <point x="317" y="627" type="line"/>
      <point x="585" y="20" type="line"/>
      <point x="585" y="0" type="line"/>
    </contour>
    <contour>
      <point x="306" y="607" type="line"/>
      <point x="47" y="20" type="line"/>
      <point x="565" y="20" type="line"/>
    </contour>
  </outline>
</glyph>
<glyph name="uni03A9" format="1">
  <advance width="707.0"/>
  <unicode hex="03A9"/>
  <outline>
    <contour>
      <point x="89" y="0" type="line"/>
      <point x="89" y="21" type="line"/>
      <point x="255" y="21" type="line"/>
      <point x="255" y="115" type="line"/>
      <point x="157" y="141"/>
      <point x="56" y="274"/>
      <point x="56" y="377" type="qcurve"/>
      <point x="56" y="502"/>
      <point x="214" y="647"/>
      <point x="354" y="647" type="qcurve" smooth="yes"/>
      <point x="494" y="647"/>
      <point x="651" y="503"/>
      <point x="651" y="377" type="qcurve"/>
      <point x="651" y="274"/>
      <point x="551" y="142"/>
      <point x="453" y="115" type="qcurve"/>
      <point x="453" y="21" type="line"/>
      <point x="619" y="21" type="line"/>
      <point x="619" y="0" type="line"/>
      <point x="432" y="0" type="line"/>
      <point x="432" y="129" type="line"/>
      <point x="533" y="156"/>
      <point x="630" y="278"/>
      <point x="630" y="377" type="qcurve"/>
      <point x="630" y="494"/>
      <point x="485" y="626"/>
      <point x="354" y="626" type="qcurve" smooth="yes"/>
      <point x="222" y="626"/>
      <point x="77" y="494"/>
      <point x="77" y="377" type="qcurve"/>
      <point x="77" y="279"/>
      <point x="175" y="156"/>
      <point x="276" y="129" type="qcurve"/>
      <point x="276" y="0" type="line"/>
    </contour>
  </outline>
</glyph>
<glyph name="uni03BC" format="1">
  <advance width="553.0"/>
  <unicode hex="03BC"/>
  <outline>
    <contour>
      <point x="244" y="-6" type="qcurve" smooth="yes"/>
      <point x="187" y="-6"/>
      <point x="115" y="32"/>
      <point x="105" y="69" type="qcurve"/>
      <point x="105" y="-29"/>
      <point x="117" y="-117"/>
      <point x="131" y="-152" type="qcurve"/>
      <point x="111" y="-152" type="line"/>
      <point x="97" y="-117"/>
      <point x="85" y="-31"/>
      <point x="85" y="60" type="qcurve"/>
      <point x="85" y="494" type="line"/>
      <point x="105" y="494" type="line"/>
      <point x="105" y="156" type="line" smooth="yes"/>
      <point x="105" y="80"/>
      <point x="172" y="13"/>
      <point x="251" y="13" type="qcurve" smooth="yes"/>
      <point x="296" y="13"/>
      <point x="396" y="43"/>
      <point x="448" y="72" type="qcurve"/>
      <point x="448" y="494" type="line"/>
      <point x="468" y="494" type="line"/>
      <point x="468" y="0" type="line"/>
      <point x="452" y="0" type="line"/>
      <point x="449" y="53" type="line"/>
      <point x="384" y="20"/>
      <point x="291" y="-6"/>
    </contour>
  </outline>
</glyph>
<glyph name="pi" format="1">
  <advance width="603.0"/>
  <unicode hex="03C0"/>
  <outline>
    <contour>
      <point x="90" y="0" type="qcurve"/>
      <point x="68" y="0" type="line"/>
      <point x="117" y="98"/>
      <point x="166" y="361"/>
      <point x="158" y="474" type="qcurve"/>
      <point x="29" y="474" type="line"/>
      <point x="29" y="494" type="line"/>
      <point x="564" y="494" type="line"/>
      <point x="564" y="474" type="line"/>
      <point x="428" y="474" type="line"/>
      <point x="428" y="145" type="line" smooth="yes"/>
      <point x="428" y="87"/>
      <point x="492" y="19"/>
      <point x="548" y="19" type="qcurve"/>
      <point x="559" y="19" type="line"/>
      <point x="559" y="0" type="line"/>
      <point x="550" y="0" type="line" smooth="yes"/>
      <point x="483" y="0"/>
      <point x="408" y="76"/>
      <point x="408" y="144" type="qcurve"/>
      <point x="408" y="474" type="line"/>
      <point x="178" y="474" type="line"/>
      <point x="183" y="352"/>
      <point x="136" y="99"/>
    </contour>
  </outline>
</glyph>
<glyph name="uni1E9E" format="1">
  <advance width="645.0"/>
  <unicode hex="1E9E"/>
  <outline>
    <contour>
      <point x="326" y="637" type="qcurve"/>
      <point x="390" y="637"/>
      <point x="499" y="623"/>
      <point x="531" y="612" type="qcurve"/>
      <point x="441" y="341" type="line"/>
      <point x="508" y="320" type="line" smooth="yes"/>
      <point x="558" y="305"/>
      <point x="598" y="240"/>
      <point x="598" y="179" type="qcurve" smooth="yes"/>
      <point x="598" y="83"/>
      <point x="512" y="-10"/>
      <point x="423" y="-10" type="qcurve" smooth="yes"/>
      <point x="382" y="-10"/>
      <point x="317" y="-3"/>
      <point x="297" y="3" type="qcurve"/>
      <point x="297" y="24" type="line"/>
      <point x="329" y="16"/>
      <point x="387" y="10"/>
      <point x="423" y="10" type="qcurve" smooth="yes"/>
      <point x="502" y="10"/>
      <point x="577" y="93"/>
      <point x="577" y="179" type="qcurve" smooth="yes"/>
      <point x="577" y="232"/>
      <point x="545" y="286"/>
      <point x="502" y="300" type="qcurve"/>
      <point x="414" y="328" type="line"/>
      <point x="506" y="598" type="line"/>
      <point x="476" y="606"/>
      <point x="376" y="617"/>
      <point x="326" y="617" type="qcurve"/>
      <point x="210" y="617"/>
      <point x="109" y="524"/>
      <point x="109" y="415" type="qcurve"/>
      <point x="109" y="0" type="line"/>
      <point x="88" y="0" type="line"/>
      <point x="88" y="415" type="line" smooth="yes"/>
      <point x="88" y="532"/>
      <point x="201" y="637"/>
    </contour>
  </outline>
</glyph>
<glyph name="endash" format="1">
  <advance width="535.0"/>
  <unicode hex="2013"/>
  <outline>
    <contour>
      <point x="472" y="328" type="line"/>
      <point x="472" y="308" type="line"/>
      <point x="63" y="308" type="line"/>
      <point x="63" y="328" type="line"/>
    </contour>
  </outline>
</glyph>
<glyph name="quoteright" format="1">
  <advance width="157.0"/>
  <unicode hex="2019"/>
  <outline>
    <contour>
      <point x="101" y="627" type="line"/>
      <point x="81" y="493" type="line" smooth="yes"/>
      <point x="79" y="483"/>
      <point x="73" y="478"/>
      <point x="66" y="478" type="qcurve"/>
      <point x="65" y="478" type="line"/>
      <point x="75" y="627" type="line"/>
    </contour>
  </outline>
</glyph>
<glyph name="quotedblleft" format="1">
  <advance width="301.0"/>
  <unicode hex="201C"/>
  <outline>
    <contour>
      <point x="62" y="478" type="line"/>
      <point x="82" y="612" type="line" smooth="yes"/>
      <point x="84" y="622"/>
      <point x="90" y="627"/>
      <point x="97" y="627" type="qcurve"/>
      <point x="98" y="627" type="line"/>
      <point x="88" y="478" type="line"/>
    </contour>
    <contour>
      <point x="202" y="478" type="line"/>
      <point x="222" y="612" type="line" smooth="yes"/>
      <point x="224" y="622"/>
      <point x="230" y="627"/>
      <point x="237" y="627" type="qcurve"/>
      <point x="238" y="627" type="line"/>
      <point x="228" y="478" type="line"/>
    </contour>
  </outline>
</glyph>
<glyph name="dagger" format="1">
  <advance width="381.0"/>
  <unicode hex="2020"/>
  <outline>
    <contour>
      <point x="198" y="467" type="line"/>
      <point x="201" y="221" type="line"/>
      <point x="177" y="221" type="line"/>
      <point x="180" y="467" type="line"/>
      <point x="38" y="464" type="line"/>
      <point x="38" y="489" type="line"/>
      <point x="180" y="484" type="line"/>
      <point x="177" y="627" type="line"/>
      <point x="201" y="627" type="line"/>
      <point x="198" y="484" type="line"/>
      <point x="343" y="489" type="line"/>
      <point x="343" y="464" type="line"/>
    </contour>
  </outline>
</glyph>
<glyph name="daggerdbl" format="1">
  <advance width="423.0"/>
  <unicode hex="2021"/>
  <outline>
    <contour>
      <point x="364" y="281" type="line"/>
      <point x="364" y="256" type="line"/>
      <point x="219" y="261" type="line"/>
      <point x="222" y="118" type="line"/>
      <point x="198" y="118" type="line"/>
      <point x="201" y="261" type="line"/>
      <point x="59" y="256" type="line"/>
      <point x="59" y="281" type="line"/>
      <point x="201" y="278" type="line"/>
      <point x="201" y="467" type="line"/>
      <point x="59" y="464" type="line"/>
      <point x="59" y="489" type="line"/>
      <point x="201" y="484" type="line"/>
      <point x="198" y="627" type="line"/>
      <point x="222" y="627" type="line"/>
      <point x="219" y="484" type="line"/>
      <point x="364" y="489" type="line"/>
      <point x="364" y="464" type="line"/>
      <point x="219" y="467" type="line"/>
      <point x="219" y="278" type="line"/>
    </contour>
  </outline>
</glyph>
<glyph name="bullet" format="1">
  <advance width="243.0"/>
  <unicode hex="2022"/>
  <outline>
    <contour>
      <point x="147" y="291" type="line"/>
      <point x="97" y="291" type="line"/>
      <point x="97" y="344" type="line"/>
      <point x="147" y="344" type="line"/>
    </contour>
  </outline>
</glyph>
<glyph name="ellipsis" format="1">
  <advance width="350.0"/>
  <unicode hex="2026"/>
  <outline>
    <contour>
      <point x="187" y="0" type="line"/>
      <point x="163" y="0" type="line"/>
      <point x="163" y="33" type="line"/>
      <point x="187" y="33" type="line"/>
    </contour>
    <contour>
      <point x="77" y="0" type="line"/>
      <point x="53" y="0" type="line"/>
      <point x="53" y="33" type="line"/>
      <point x="77" y="33" type="line"/>
    </contour>
    <contour>
      <point x="297" y="0" type="line"/>
      <point x="273" y="0" type="line"/>
      <point x="273" y="33" type="line"/>
      <point x="297" y="33" type="line"/>
    </contour>
  </outline>
</glyph>
<glyph name="guilsinglright" format="1">
  <advance width="257.0"/>
  <unicode hex="203A"/>
  <outline>
    <contour>
      <point x="220" y="281" type="line"/>
      <point x="71" y="64" type="line"/>
      <point x="50" y="64" type="line"/>
      <point x="198" y="281" type="line"/>
      <point x="50" y="494" type="line"/>
      <point x="71" y="494" type="line"/>
    </contour>
  </outline>
</glyph>
<glyph name="uni2070" format="1">
  <advance width="374.0"/>
  <unicode hex="2070"/>
  <outline>
    <contour>
      <point x="324" y="450" type="qcurve"/>
      <point x="324" y="348"/>
      <point x="264" y="266"/>
      <point x="187" y="266" type="qcurve"/>
      <point x="107" y="266"/>
      <point x="50" y="343"/>
      <point x="50" y="450" type="qcurve"/>
      <point x="50" y="552"/>
      <point x="110" y="633"/>
      <point x="187" y="633" type="qcurve"/>
      <point x="268" y="633"/>
      <point x="324" y="557"/>
    </contour>
    <contour>
      <point x="303" y="450" type="qcurve"/>
      <point x="303" y="548"/>
      <point x="256" y="614"/>
      <point x="187" y="614" type="qcurve"/>
      <point x="121" y="614"/>
      <point x="71" y="543"/>
      <point x="71" y="450" type="qcurve"/>
      <point x="71" y="352"/>
      <point x="118" y="286"/>
      <point x="187" y="286" type="qcurve"/>
      <point x="253" y="286"/>
      <point x="303" y="357"/>
    </contour>
  </outline>
</glyph>
<glyph name="uni2074" format="1">
  <advance width="340.0"/>
  <unicode hex="2074"/>
  <outline>
    <contour>
      <point x="308" y="393" type="line"/>
      <point x="308" y="374" type="line"/>
      <point x="248" y="374" type="line"/>
      <point x="248" y="270" type="line"/>
      <point x="227" y="270" type="line"/>
      <point x="227" y="374" type="line"/>
      <point x="39" y="374" type="line"/>
      <point x="39" y="392" type="line"/>
      <point x="88" y="627" type="line"/>
      <point x="108" y="627" type="line"/>
      <point x="60" y="393" type="line"/>
      <point x="227" y="393" type="line"/>
      <point x="227" y="565" type="line"/>
      <point x="248" y="565" type="line"/>
      <point x="248" y="393" type="line"/>
    </contour>
  </outline>
</glyph>
<glyph name="uni2075" format="1">
  <advance width="306.0"/>
  <unicode hex="2075"/>
  <outline>
    <contour>
      <point x="265" y="374" type="qcurve" smooth="yes"/>
      <point x="265" y="317"/>
      <point x="206" y="266"/>
      <point x="141" y="266" type="qcurve"/>
      <point x="110" y="266"/>
      <point x="60" y="272"/>
      <point x="42" y="277" type="qcurve"/>
      <point x="42" y="297" type="line"/>
      <point x="60" y="292"/>
      <point x="110" y="286"/>
      <point x="138" y="286" type="qcurve"/>
      <point x="195" y="286"/>
      <point x="244" y="326"/>
      <point x="244" y="374" type="qcurve" smooth="yes"/>
      <point x="244" y="415"/>
      <point x="196" y="451"/>
      <point x="136" y="451" type="qcurve" smooth="yes"/>
      <point x="115" y="451"/>
      <point x="78" y="448"/>
      <point x="61" y="444" type="qcurve"/>
      <point x="61" y="627" type="line"/>
      <point x="241" y="627" type="line"/>
      <point x="241" y="608" type="line"/>
      <point x="81" y="608" type="line"/>
      <point x="81" y="464" type="line"/>
      <point x="92" y="466"/>
      <point x="125" y="469"/>
      <point x="141" y="469" type="qcurve" smooth="yes"/>
      <point x="208" y="469"/>
      <point x="265" y="424"/>
    </contour>
  </outline>
</glyph>
<glyph name="uni2076" format="1">
  <advance width="343.0"/>
  <unicode hex="2076"/>
  <outline>
    <contour>
      <point x="176" y="266" type="qcurve"/>
      <point x="108" y="266"/>
      <point x="49" y="347"/>
      <point x="49" y="439" type="qcurve"/>
      <point x="49" y="545"/>
      <point x="122" y="633"/>
      <point x="208" y="633" type="qcurve"/>
      <point x="222" y="633"/>
      <point x="249" y="631"/>
      <point x="256" y="629" type="qcurve"/>
      <point x="256" y="611" type="line"/>
      <point x="246" y="613"/>
      <point x="222" y="614"/>
      <point x="208" y="614" type="qcurve"/>
      <point x="135" y="614"/>
      <point x="73" y="546"/>
      <point x="70" y="459" type="qcurve"/>
      <point x="106" y="478"/>
      <point x="166" y="494"/>
      <point x="197" y="494" type="qcurve"/>
      <point x="253" y="494"/>
      <point x="304" y="443"/>
      <point x="304" y="388" type="qcurve"/>
      <point x="304" y="331"/>
      <point x="236" y="266"/>
    </contour>
    <contour>
      <point x="70" y="441" type="qcurve"/>
      <point x="70" y="438" type="line"/>
      <point x="70" y="356"/>
      <point x="118" y="285"/>
      <point x="175" y="285" type="qcurve"/>
      <point x="228" y="285"/>
      <point x="283" y="338"/>
      <point x="283" y="388" type="qcurve"/>
      <point x="283" y="434"/>
      <point x="240" y="475"/>
      <point x="189" y="475" type="qcurve"/>
      <point x="161" y="475"/>
      <point x="102" y="458"/>
    </contour>
  </outline>
</glyph>
<glyph name="uni2077" format="1">
  <advance width="294.0"/>
  <unicode hex="2077"/>
  <outline>
    <contour>
      <point x="266" y="627" type="line"/>
      <point x="266" y="609" type="line"/>
      <point x="67" y="270" type="line"/>
      <point x="44" y="270" type="line"/>
      <point x="243" y="608" type="line"/>
      <point x="34" y="608" type="line"/>
      <point x="34" y="627" type="line"/>
    </contour>
  </outline>
</glyph>
<glyph name="uni2078" format="1">
  <advance width="348.0"/>
  <unicode hex="2078"/>
  <outline>
    <contour>
      <point x="300" y="364" type="qcurve"/>
      <point x="300" y="314"/>
      <point x="238" y="266"/>
      <point x="173" y="266" type="qcurve"/>
      <point x="109" y="266"/>
      <point x="48" y="311"/>
      <point x="48" y="359" type="qcurve"/>
      <point x="48" y="400"/>
      <point x="92" y="449"/>
      <point x="133" y="453" type="qcurve"/>
      <point x="95" y="456"/>
      <point x="55" y="503"/>
      <point x="55" y="541" type="qcurve"/>
      <point x="55" y="588"/>
      <point x="113" y="633"/>
      <point x="173" y="633" type="qcurve"/>
      <point x="235" y="633"/>
      <point x="293" y="589"/>
      <point x="293" y="543" type="qcurve"/>
      <point x="293" y="503"/>
      <point x="252" y="457"/>
      <point x="213" y="453" type="qcurve"/>
      <point x="255" y="449"/>
      <point x="300" y="403"/>
    </contour>
    <contour>
      <point x="273" y="541" type="qcurve"/>
      <point x="273" y="580"/>
      <point x="225" y="615"/>
      <point x="173" y="615" type="qcurve"/>
      <point x="122" y="615"/>
      <point x="75" y="579"/>
      <point x="75" y="540" type="qcurve"/>
      <point x="75" y="499"/>
      <point x="123" y="461"/>
      <point x="172" y="461" type="qcurve"/>
      <point x="224" y="461"/>
      <point x="273" y="499"/>
    </contour>
    <contour>
      <point x="280" y="365" type="qcurve"/>
      <point x="280" y="405"/>
      <point x="228" y="443"/>
      <point x="172" y="443" type="qcurve"/>
      <point x="119" y="443"/>
      <point x="68" y="403"/>
      <point x="68" y="361" type="qcurve"/>
      <point x="68" y="322"/>
      <point x="119" y="285"/>
      <point x="173" y="285" type="qcurve"/>
      <point x="228" y="285"/>
      <point x="280" y="324"/>
    </contour>
  </outline>
</glyph>
<glyph name="uni2079" format="1">
  <advance width="338.0"/>
  <unicode hex="2079"/>
  <outline>
    <contour>
      <point x="165" y="633" type="qcurve"/>
      <point x="233" y="633"/>
      <point x="289" y="554"/>
      <point x="289" y="460" type="qcurve"/>
      <point x="289" y="354"/>
      <point x="216" y="266"/>
      <point x="130" y="266" type="qcurve"/>
      <point x="118" y="266"/>
      <point x="89" y="268"/>
      <point x="82" y="270" type="qcurve"/>
      <point x="82" y="289" type="line"/>
      <point x="93" y="287"/>
      <point x="117" y="285"/>
      <point x="130" y="285" type="qcurve"/>
      <point x="203" y="285"/>
      <point x="266" y="355"/>
      <point x="268" y="444" type="qcurve"/>
      <point x="238" y="425"/>
      <point x="181" y="408"/>
      <point x="150" y="408" type="qcurve"/>
      <point x="92" y="408"/>
      <point x="39" y="460"/>
      <point x="39" y="516" type="qcurve"/>
      <point x="39" y="572"/>
      <point x="105" y="633"/>
    </contour>
    <contour>
      <point x="165" y="614" type="qcurve"/>
      <point x="114" y="614"/>
      <point x="60" y="564"/>
      <point x="60" y="517" type="qcurve"/>
      <point x="60" y="468"/>
      <point x="105" y="427"/>
      <point x="158" y="427" type="qcurve"/>
      <point x="185" y="427"/>
      <point x="241" y="444"/>
      <point x="268" y="461" type="qcurve"/>
      <point x="268" y="461" type="line"/>
      <point x="268" y="546"/>
      <point x="223" y="614"/>
    </contour>
  </outline>
</glyph>
<glyph name="Euro" format="1">
  <advance width="576.0"/>
  <unicode hex="20AC"/>
  <outline>
    <contour>
      <point x="43" y="244" type="line"/>
      <point x="43" y="264" type="line"/>
      <point x="125" y="264" type="line"/>
      <point x="124" y="272"/>
      <point x="124" y="294"/>
      <point x="124" y="316" type="qcurve" smooth="yes"/>
      <point x="124" y="327"/>
      <point x="125" y="354"/>
      <point x="126" y="374" type="qcurve"/>
      <point x="43" y="374" type="line"/>
      <point x="43" y="394" type="line"/>
      <point x="127" y="394" type="line"/>
      <point x="139" y="523"/>
      <point x="256" y="637"/>
      <point x="377" y="637" type="qcurve"/>
      <point x="413" y="637"/>
      <point x="484" y="630"/>
      <point x="514" y="623" type="qcurve"/>
      <point x="514" y="603" type="line"/>
      <point x="480" y="610"/>
      <point x="412" y="617"/>
      <point x="377" y="617" type="qcurve"/>
      <point x="265" y="617"/>
      <point x="159" y="514"/>
      <point x="148" y="394" type="qcurve"/>
      <point x="482" y="394" type="line"/>
      <point x="482" y="374" type="line"/>
      <point x="147" y="374" type="line"/>
      <point x="146" y="353"/>
      <point x="145" y="328"/>
      <point x="145" y="316" type="qcurve" smooth="yes"/>
      <point x="145" y="294"/>
      <point x="145" y="272"/>
      <point x="146" y="264" type="qcurve"/>
      <point x="482" y="264" type="line"/>
      <point x="482" y="244" type="line"/>
      <point x="147" y="244" type="line"/>
      <point x="156" y="118"/>
      <point x="254" y="14"/>
      <point x="367" y="14" type="qcurve"/>
      <point x="409" y="14"/>
      <point x="493" y="35"/>
      <point x="528" y="54" type="qcurve"/>
      <point x="528" y="33" type="line"/>
      <point x="492" y="14"/>
      <point x="405" y="-6"/>
      <point x="357" y="-6" type="qcurve"/>
      <point x="244" y="-6"/>
      <point x="136" y="111"/>
      <point x="126" y="244" type="qcurve"/>
    </contour>
    <contour>
      <point x="350.0" y="0.0" type="move" name="bottom"/>
    </contour>
    <contour>
      <point x="369.0" y="655.0" type="move" name="top"/>
    </contour>
  </outline>
</glyph>
<glyph name="uni20BA" format="1">
  <advance width="574.0"/>
  <unicode hex="20BA"/>
  <outline>
    <contour>
      <point x="49" y="207" type="line"/>
      <point x="49" y="229" type="line"/>
      <point x="119" y="251" type="line"/>
      <point x="119" y="367" type="line"/>
      <point x="49" y="345" type="line"/>
      <point x="49" y="367" type="line"/>
      <point x="119" y="389" type="line"/>
      <point x="119" y="627" type="line"/>
      <point x="140" y="627" type="line"/>
      <point x="140" y="395" type="line"/>
      <point x="426" y="484" type="line"/>
      <point x="426" y="462" type="line"/>
      <point x="140" y="373" type="line"/>
      <point x="140" y="257" type="line"/>
      <point x="426" y="346" type="line"/>
      <point x="426" y="324" type="line"/>
      <point x="140" y="235" type="line"/>
      <point x="140" y="20" type="line"/>
      <point x="279" y="20" type="line" smooth="yes"/>
      <point x="398" y="20"/>
      <point x="513" y="145"/>
      <point x="513" y="274" type="qcurve"/>
      <point x="534" y="274" type="line"/>
      <point x="534" y="136"/>
      <point x="407" y="0"/>
      <point x="279" y="0" type="qcurve"/>
      <point x="119" y="0" type="line"/>
      <point x="119" y="229" type="line"/>
    </contour>
    <contour>
      <point x="323.0" y="645.0" type="move" name="top"/>
    </contour>
  </outline>
</glyph>
<glyph name="uni2117" format="1">
  <advance width="793.0"/>
  <unicode hex="2117"/>
  <outline>
    <contour>
      <point x="238" y="434" type="qcurve"/>
      <point x="138" y="457" type="line" smooth="yes"/>
      <point x="103" y="465"/>
      <point x="72" y="500"/>
      <point x="72" y="532" type="qcurve"/>
      <point x="72" y="587"/>
      <point x="131" y="635"/>
      <point x="200" y="635" type="qcurve" smooth="yes"/>
      <point x="227" y="635"/>
      <point x="273" y="630"/>
      <point x="291" y="625" type="qcurve"/>
      <point x="291" y="606" type="line"/>
      <point x="269" y="611"/>
      <point x="224" y="615"/>
      <point x="199" y="615" type="qcurve" smooth="yes"/>
      <point x="140" y="615"/>
      <point x="93" y="579"/>
      <point x="93" y="533" type="qcurve"/>
      <point x="93" y="509"/>
      <point x="117" y="484"/>
      <point x="145" y="477" type="qcurve"/>
      <point x="245" y="453" type="line" smooth="yes"/>
      <point x="289" y="442"/>
      <point x="320" y="407"/>
      <point x="320" y="370" type="qcurve"/>
      <point x="320" y="313"/>
      <point x="262" y="268"/>
      <point x="195" y="268" type="qcurve"/>
      <point x="158" y="268"/>
      <point x="91" y="278"/>
      <point x="71" y="286" type="qcurve"/>
      <point x="71" y="305" type="line"/>
      <point x="102" y="296"/>
      <point x="163" y="288"/>
      <point x="195" y="288" type="qcurve"/>
      <point x="252" y="288"/>
      <point x="299" y="322"/>
      <point x="299" y="370" type="qcurve"/>
      <point x="299" y="399"/>
      <point x="274" y="426"/>
    </contour>
    <contour>
      <point x="713" y="627" type="line"/>
      <point x="713" y="276" type="line"/>
      <point x="693" y="276" type="line"/>
      <point x="693" y="598" type="line"/>
      <point x="557" y="348" type="line"/>
      <point x="536" y="348" type="line"/>
      <point x="400" y="598" type="line"/>
      <point x="400" y="276" type="line"/>
      <point x="380" y="276" type="line"/>
      <point x="380" y="627" type="line"/>
      <point x="408" y="627" type="line"/>
      <point x="547" y="372" type="line"/>
      <point x="685" y="627" type="line"/>
    </contour>
  </outline>
</glyph>
<glyph name="trademark" format="1">
  <advance width="777.0"/>
  <unicode hex="2122"/>
  <outline>
    <contour>
      <point x="322" y="627" type="line"/>
      <point x="322" y="608" type="line"/>
      <point x="184" y="608" type="line"/>
      <point x="184" y="276" type="line"/>
      <point x="163" y="276" type="line"/>
      <point x="163" y="608" type="line"/>
      <point x="25" y="608" type="line"/>
      <point x="25" y="627" type="line"/>
    </contour>
    <contour>
      <point x="697" y="627" type="line"/>
      <point x="697" y="276" type="line"/>
      <point x="677" y="276" type="line"/>
      <point x="677" y="598" type="line"/>
      <point x="541" y="348" type="line"/>
      <point x="520" y="348" type="line"/>
      <point x="384" y="598" type="line"/>
      <point x="384" y="276" type="line"/>
      <point x="364" y="276" type="line"/>
      <point x="364" y="627" type="line"/>
      <point x="392" y="627" type="line"/>
      <point x="531" y="372" type="line"/>
      <point x="669" y="627" type="line"/>
    </contour>
  </outline>
</glyph>
